<?xml version="1.0" standalone="no"?>
<!DOCTYPE svg PUBLIC "-//W3C//DTD SVG 1.1//EN" "http://www.w3.org/Graphics/SVG/1.1/DTD/svg11.dtd" >
<svg xmlns="http://www.w3.org/2000/svg">
<metadata></metadata>
<defs>
<font id="rte_mehuaregular" horiz-adv-x="0" >
<font-face units-per-em="2048" ascent="1536" descent="-512" />
<missing-glyph horiz-adv-x="546" />
<glyph unicode=" "  horiz-adv-x="546" />
<glyph unicode="&#x09;" horiz-adv-x="546" />
<glyph unicode="&#xa0;" horiz-adv-x="546" />
<glyph unicode="!" horiz-adv-x="276" d="M70 68q0 18 8 32q6 12 19.5 23.5t39.5 11.5q27 0 41.5 -11t20.5 -24q8 -14 8 -32q0 -20 -8 -35q-6 -12 -20.5 -22.5t-41.5 -10.5t-40 10t-19 23q-8 14 -8 35zM100 203v819h70v-819h-70z" />
<glyph unicode="&#x22;" horiz-adv-x="206" d="M2 887v272h68v-272h-68zM137 887v272h68v-272h-68z" />
<glyph unicode="#" horiz-adv-x="1116" d="M43 309v68h205l119 338h-183v67h207l133 377h70l-133 -377h342l133 377h70l-134 -377h201v-67h-225l-119 -338h203v-68h-227l-109 -309h-68l109 309h-344l-109 -309h-67l108 309h-182zM317 377h342l119 338h-342z" />
<glyph unicode="$" horiz-adv-x="888" d="M70 375h67q4 -78 35 -144q12 -29 31.5 -55t48.5 -49t67.5 -38t90.5 -19v458q-63 18 -125 42t-109 54.5t-76.5 69.5t-29.5 90q6 98 43 179q16 33 40.5 66.5t60.5 60t84 45t112 22.5v72h69v-72q63 -4 111.5 -22.5t84.5 -45t60.5 -60.5t40.5 -66q37 -80 43 -179h-67 q-4 78 -35 144q-27 55 -81 103t-157 59v-510q63 -18 125 -39t109 -44.5t76.5 -53t29.5 -68.5q-6 -98 -43 -178q-16 -35 -40.5 -68t-60.5 -59.5t-84 -45t-112 -22.5v-72h-69v72q-63 4 -111.5 22.5t-84.5 45t-60.5 59.5t-40.5 68q-37 80 -43 178zM137 784q0 -35 22.5 -61.5 t59.5 -48t86 -40t105 -34.5v490q-104 -10 -157.5 -58.5t-80.5 -103.5q-31 -66 -35 -144zM479 70q102 8 156.5 57t81.5 104q31 66 35 144q0 23 -22.5 40t-60.5 32.5t-87.5 30t-102.5 30.5v-438z" />
<glyph unicode="%" horiz-adv-x="1378" d="M43 887q4 76 35 135q27 51 81 94t156 43q100 0 155.5 -43t82.5 -94q31 -59 35 -135q-4 -78 -35 -137q-27 -51 -81 -93.5t-157 -42.5q-102 0 -156.5 42t-80.5 94q-31 59 -35 137zM111 887q2 -57 24 -103q18 -39 60 -70.5t120 -31.5t118 31.5t61 70.5q23 45 26 103 q-4 57 -26 102q-20 39 -60.5 71t-118.5 32t-119.5 -32t-60.5 -71q-23 -45 -24 -102zM453 0l407 1159h70l-410 -1159h-67zM791 272q4 76 34 136q27 51 81.5 94t156.5 43q100 0 155.5 -43t81.5 -94q31 -59 35 -136q-4 -78 -35 -137q-27 -51 -81 -93t-156 -42t-156.5 42 t-81.5 93q-31 59 -34 137zM858 272q2 -57 25 -102q18 -39 60 -70.5t120 -31.5t118 31.5t60 70.5q23 45 27 102q-4 57 -27 103q-20 39 -60 70.5t-118 31.5t-120 -31.5t-60 -70.5q-23 -45 -25 -103z" />
<glyph unicode="&#x26;" horiz-adv-x="956" d="M35 377q2 41 14 78q10 33 35 66.5t72 60.5q-47 25 -72 58.5t-35 66.5q-12 37 -14 77q6 104 47 187q18 35 45 68.5t65.5 60t92 43t125.5 16.5q123 0 194.5 -45t112.5 -104v149h67v-375h-67q-4 86 -39 154q-29 57 -91.5 105.5t-176.5 48.5q-115 0 -177.5 -48.5 t-91.5 -105.5q-35 -68 -39 -154q2 -49 25 -86q18 -33 60 -58.5t120 -25.5v-67q-78 0 -120 -26.5t-60 -59.5q-23 -37 -25 -84q4 -86 39 -154q29 -59 91.5 -106t177.5 -47t177 47t91 106q35 68 39 154v67h205v-67h-138q-6 -106 -47 -189q-18 -35 -44.5 -68.5t-66.5 -60 t-93.5 -43t-122.5 -16.5q-72 0 -125.5 16.5t-92 43t-65.5 60.5t-45 68q-41 82 -47 189zM477 614h70q-2 -66 24.5 -99.5t59.5 -49.5q37 -18 84 -21v-67q-66 2 -119 29q-45 23 -82 70.5t-37 137.5z" />
<glyph unicode="'" horiz-adv-x="137" d="M35 887v272h67v-272h-67z" />
<glyph unicode="(" horiz-adv-x="376" d="M70 135v889q4 76 34 135q27 51 81.5 94t156.5 43v-67q-78 0 -120 -32t-60 -71q-23 -45 -25 -102v-889q2 -57 25 -102q18 -39 60 -71t120 -32v-67q-102 0 -156.5 42t-81.5 93q-31 59 -34 137z" />
<glyph unicode=")" horiz-adv-x="376" d="M35 -70q78 0 118 32t60 71q23 45 27 102v889q-4 57 -27 102q-20 39 -60 71t-118 32v67q100 0 155.5 -43t81.5 -94q31 -59 35 -135v-889q-4 -78 -35 -137q-27 -51 -81 -93t-156 -42v67z" />
<glyph unicode="*" horiz-adv-x="391" d="M35 1026l14 66l125 -54v121h68l-25 -129l105 62l34 -60l-127 -43l90 -88l-47 -47l-77 113l-64 -113l-59 33l94 110z" />
<glyph unicode="+" horiz-adv-x="614" d="M35 512v68h237v237h68v-237h240v-68h-240v-240h-68v240h-237z" />
<glyph unicode="," horiz-adv-x="153" d="M-53 -70l137 170l68 -67l-170 -137z" />
<glyph unicode="-" horiz-adv-x="614" d="M35 444v68h545v-68h-545z" />
<glyph unicode="." horiz-adv-x="276" d="M70 68q0 18 8 32q6 12 19 23.5t40 11.5t41.5 -11t20.5 -24q8 -14 8 -32q0 -20 -8 -35q-6 -12 -20.5 -22.5t-41.5 -10.5t-40 10t-19 23q-8 14 -8 35z" />
<glyph unicode="/" horiz-adv-x="481" d="M2 0l408 1159h69l-409 -1159h-68z" />
<glyph unicode="0" horiz-adv-x="888" d="M70 342v408q6 113 47 202q18 39 44.5 76t65.5 65.5t92 46t125 17.5q70 0 123.5 -17.5t93 -46t66.5 -65.5t45 -76q41 -90 47 -202v-408l-2 -26q-2 -25 -12 -63t-32.5 -82t-64.5 -82t-106.5 -62.5t-157.5 -24.5q-72 0 -125 14.5t-92 38t-65.5 54t-44.5 63.5q-41 74 -47 170 zM139 342q-2 -14 2 -33q4 -33 23 -78q23 31 64.5 88.5t92 129t104.5 149.5t105.5 148.5t93.5 128t66 86.5q-35 53 -92.5 91t-153.5 38q-57 0 -100 -14.5t-75.5 -39t-54 -55.5t-36.5 -61q-35 -76 -39 -170v-408zM188 186q33 -47 92.5 -81.5t163.5 -34.5q76 0 128.5 20.5 t86 50t52 64.5t28 65.5t10.5 51.5l1 20v408q0 25 -5 51q-4 23 -11 52.5t-19 59.5q-27 -37 -72 -98t-96 -135t-106.5 -151.5t-104.5 -146.5t-88 -121t-60 -75z" />
<glyph unicode="1" horiz-adv-x="481" d="M2 682q39 63 78 117.5t80 108t86 113.5t96 136h70v-1155h-70v1059q-66 -94 -107.5 -152.5t-70.5 -97.5t-49.5 -67.5t-42.5 -61.5h-70z" />
<glyph unicode="2" horiz-adv-x="888" d="M70 2v68q0 51 50 109.5t126 120.5t164 127t163.5 127t126 120.5t50.5 109.5q-4 84 -39 152q-29 57 -91.5 105.5t-175.5 48.5q-115 0 -176 -48.5t-90 -105.5q-35 -68 -39 -152h-69q6 104 47 187q18 35 44.5 68.5t65.5 59t92.5 42t124.5 16.5q70 0 123.5 -16.5t93 -42 t66.5 -59t45 -68.5q41 -83 47 -187q0 -68 -50 -138.5t-126 -138t-164 -132t-163.5 -120.5t-126 -104.5t-50.5 -80.5h680v-68h-749z" />
<glyph unicode="3" horiz-adv-x="888" d="M70 375h69q4 -86 39 -154q29 -57 90.5 -104t175.5 -47q113 0 175.5 47t91.5 104q35 68 39 154q-2 47 -25 84q-18 33 -60 59.5t-118 26.5v69q76 0 118 26t60 58q23 37 25 86q-4 84 -39 152q-29 57 -91.5 105.5t-175.5 48.5q-115 0 -176 -48.5t-90 -105.5q-35 -68 -39 -152 h-69q6 104 47 187q18 35 44.5 68.5t65.5 59t92.5 42t124.5 16.5q70 0 123.5 -16.5t93 -42t66.5 -59t45 -68.5q41 -82 47 -187q-2 -41 -16 -77q-12 -33 -37 -67.5t-70 -59.5q45 -25 70 -60t37 -67q14 -37 16 -78q-6 -104 -47 -187q-18 -35 -45 -68.5t-66.5 -60t-93 -42 t-123.5 -15.5q-72 0 -125 15.5t-92 42t-65.5 60.5t-44.5 68q-41 82 -47 187z" />
<glyph unicode="4" horiz-adv-x="819" d="M2 274v68q76 127 161 256t161.5 240.5t136 195.5t84.5 123h69v-815h203v-68h-203v-272h-69v272h-543zM70 342h475v719q-68 -94 -114 -163t-80 -123t-61.5 -98t-58 -92t-68.5 -106.5t-93 -136.5z" />
<glyph unicode="5" horiz-adv-x="888" d="M70 375h69q4 -86 39 -154q29 -57 90.5 -104t175.5 -47q14 0 21 2q31 2 89 18t112 66q25 27 40 55.5t24 56t13.5 51t6.5 37.5v19q0 115 -48.5 177t-105.5 91q-68 35 -152 39h-102q-102 0 -156.5 42t-81.5 93q-31 59 -34 137v203h749v-67h-680v-136h-2q2 -57 25 -102 q18 -39 60 -70.5t120 -31.5h102q104 -6 187 -48q35 -18 68.5 -44.5t60 -66.5t43 -93.5t16.5 -122.5v-8q0 -4 -1 -8.5t-1 -10.5q-4 -86 -33.5 -144.5t-70.5 -97.5q-39 -41 -97.5 -69.5t-144.5 -32.5q-6 -2 -11 -2h-9h-7q-72 0 -125 15.5t-92 42t-65.5 60.5t-44.5 68 q-41 82 -47 187z" />
<glyph unicode="6" horiz-adv-x="894" d="M76 375q-16 272 51 463q29 82 78 152.5t128 115.5t191.5 53t266.5 -37v-67q-125 39 -220.5 39t-165 -30t-116.5 -82t-77 -115.5t-45 -133t-22 -133.5q39 57 112 102.5t194 45.5q70 0 123 -16.5t93 -42t66.5 -59.5t44.5 -69q41 -82 47 -186l-2 -29t-12 -69.5t-32.5 -90 t-64.5 -90.5t-106.5 -68.5t-156.5 -27.5q-94 0 -158 27.5t-106 68.5t-64.5 90.5t-32.5 90t-12 69.5zM145 375l1 -23q1 -24 10.5 -58t28 -74t52 -73.5t86 -56t128.5 -22.5t128 22.5t85.5 56t52 73.5t28 74t10.5 58l1 23q-4 84 -39 151q-29 57 -91.5 105.5t-174.5 48.5 q-115 0 -176.5 -48t-90.5 -106q-35 -68 -39 -151z" />
<glyph unicode="7" horiz-adv-x="821" d="M70 2q39 63 101 170t148.5 247t195 310t235.5 361h-680v67h749v-67q-59 -94 -128.5 -204t-139.5 -222.5t-136.5 -220t-121.5 -197.5t-96 -154.5t-58 -89.5h-69z" />
<glyph unicode="8" horiz-adv-x="819" d="M70 342q0 66 22 125q16 51 55 103.5t111 82.5q-47 29 -71.5 68t-34.5 76q-12 43 -15 88q4 76 35 135q27 51 81 94t157 43q100 0 155.5 -43t81.5 -94q31 -59 35 -135q-2 -45 -14 -88q-10 -37 -36 -76t-71 -68q72 -31 109 -83t55 -103q20 -59 25 -125q-6 -96 -43 -170 q-16 -33 -41 -63.5t-61 -54t-84 -38t-111 -14.5t-111.5 14.5t-84.5 38t-60.5 54t-40.5 63.5q-37 74 -43 170zM137 342q4 -78 35 -137q27 -51 81.5 -93t156.5 -42t156.5 42t80.5 93q31 59 35 137q-4 76 -35 135q-27 51 -81 93t-156 44q-102 -2 -156.5 -44t-81.5 -93 q-31 -59 -35 -135zM205 885q2 -57 24 -103q18 -39 60.5 -69.5t120.5 -30.5t117.5 30.5t60.5 69.5q23 45 26 103q-4 57 -26 102q-20 39 -60.5 71t-117.5 32q-78 0 -120 -32t-61 -71q-22 -45 -24 -102z" />
<glyph unicode="9" horiz-adv-x="892" d="M70 784l2 29t12 70t32.5 90t64.5 90t105.5 68.5t157.5 27.5q92 0 157 -27.5t107 -68.5t64.5 -90t32.5 -90t11 -55l3 -44q16 -272 -51 -462q-29 -82 -79 -153t-129 -116t-190.5 -53t-265.5 37v67q188 -59 309.5 -31.5t193 104.5t102 181.5t41.5 200.5q-41 -59 -113 -103 t-193 -44q-72 0 -125 15t-92 42t-65.5 60.5t-44.5 68.5q-41 82 -47 186zM139 784q4 -86 39 -153q29 -57 90 -104.5t176 -47.5q113 0 175.5 47t91.5 105q35 68 39 153q-4 86 -39 154q-29 57 -91.5 105.5t-175.5 48.5q-115 0 -176 -48.5t-90 -105.5q-35 -68 -39 -154z" />
<glyph unicode=":" horiz-adv-x="206" d="M35 172q0 18 8 33q6 12 19 23.5t40 11.5t41.5 -11.5t20.5 -23.5q8 -14 8 -33q0 -20 -8 -35q-6 -12 -20.5 -22.5t-41.5 -10.5t-40 10.5t-19 22.5q-8 14 -8 35zM35 647q0 18 8 33q6 12 19 23.5t40 11.5t41.5 -11.5t20.5 -23.5q8 -14 8 -33q0 -20 -8 -35q-6 -12 -20.5 -22 t-41.5 -10t-40 10t-19 22q-8 14 -8 35z" />
<glyph unicode=";" horiz-adv-x="274" d="M35 43l137 170l68 -68l-170 -137zM102 647q0 18 9 33q6 12 19 23.5t40 11.5t41 -11.5t20 -23.5q8 -14 9 -33q0 -20 -9 -35q-6 -12 -20 -22t-41 -10t-40 10t-19 22q-8 14 -9 35z" />
<glyph unicode="&#x3c;" horiz-adv-x="888" d="M35 549v67l819 273v-68l-717 -239l717 -238v-70z" />
<glyph unicode="=" horiz-adv-x="614" d="M35 377v67h545v-67h-545zM35 647v68h545v-68h-545z" />
<glyph unicode="&#x3e;" horiz-adv-x="888" d="M35 274v70l717 238l-717 239v68l819 -273v-67z" />
<glyph unicode="?" horiz-adv-x="888" d="M70 647q6 115 47 205q18 39 44.5 76t65.5 65.5t92 46t125 17.5q70 0 123.5 -17.5t93 -46t66.5 -65.5t45 -76q41 -90 47 -205q-6 -90 -43 -162q-33 -61 -101.5 -114.5t-195.5 -61.5v-104h-69v170h34q115 0 177.5 42t91.5 93q35 59 39 137q-4 94 -39 170q-14 33 -37 63.5 t-54.5 55.5t-75.5 39t-102 14q-57 0 -101 -14t-75.5 -39t-54.5 -55.5t-37 -63.5q-35 -76 -39 -170h-67zM377 68q0 18 8 32q6 12 19 23.5t40 11.5q25 0 39.5 -11t20.5 -24q8 -14 8 -32q0 -20 -8 -35q-6 -12 -20.5 -22.5t-39.5 -10.5q-27 0 -40 10t-19 23q-8 14 -8 35z" />
<glyph unicode="@" horiz-adv-x="1026" d="M70 342v477q4 76 34 135q27 51 82.5 94.5t157.5 43.5h340q76 -4 135 -35q51 -27 94 -82t43 -156v-409q-2 -39 -16 -68q-12 -27 -40 -47.5t-79 -20.5h-69v105q-33 -43 -89.5 -74t-148.5 -31q-115 0 -177.5 47.5t-90.5 104.5q-35 68 -39 154q4 86 39 153q29 57 91 105.5 t177 48.5q92 0 148.5 -31t89.5 -76v107h69v-545q25 0 39 10t21 23q8 14 8 35v409q0 78 -32 118t-71 60q-45 23 -102 27h-340q-78 0 -120 -31.5t-60 -70.5q-23 -45 -25 -103v-477q0 -78 32 -120t71 -60q45 -23 102 -25h612v-67h-612q-78 4 -137 34q-53 27 -95 81.5t-42 156.5 zM274 580q4 -66 31 -119q23 -45 71 -82t138 -37t137 37t70 82q25 53 31 119q-6 66 -31 118q-23 45 -71 83t-136 38q-90 0 -138 -38t-71 -83q-27 -53 -31 -118z" />
<glyph unicode="A" horiz-adv-x="890" d="M2 0l410 1159h67l410 -1159h-70l-180 512h-389l-180 -512h-68zM274 580h340l-170 483z" />
<glyph unicode="B" horiz-adv-x="686" d="M70 0v1159h239q86 -4 154 -39q57 -29 105 -91t48 -177q0 -123 -40 -190.5t-89 -102.5q33 -12 68 -31.5t63.5 -53.5t47 -83t18.5 -119q0 -102 -43 -156.5t-94 -80.5q-59 -31 -135 -35h-342zM139 68h273q57 2 102 24q39 18 70.5 60.5t31.5 119.5q0 90 -37.5 138.5 t-82.5 70.5q-53 27 -119 31h-238v-444zM139 580h205q55 4 100 34q39 27 71 80.5t32 157.5q0 90 -37 138t-82 71q-53 27 -119 31h-170v-512z" />
<glyph unicode="C" horiz-adv-x="888" d="M70 340v410q6 115 47 204q18 39 44.5 76t65.5 65.5t92.5 46t124.5 17.5q70 0 123.5 -17.5t93 -46t66.5 -65.5t45 -76q41 -90 47 -204h-67q-4 94 -39 170q-14 33 -37 63.5t-54.5 55t-75.5 39t-102 14.5q-57 0 -101 -14.5t-75.5 -39t-54.5 -55.5t-37 -63q-35 -76 -39 -170 v-410q4 -78 39 -137q29 -51 91.5 -93t176.5 -42q115 0 177.5 42t91.5 93q35 59 39 137h67q-6 -96 -47 -170q-18 -33 -45 -63.5t-66.5 -54t-93 -38t-123.5 -14.5q-72 0 -125 14.5t-92 38t-65.5 54t-44.5 63.5q-41 74 -47 170z" />
<glyph unicode="D" horiz-adv-x="888" d="M70 0v1159h204q152 -10 273 -78q51 -29 99 -73.5t87 -109t62.5 -152t23.5 -201.5q0 -102 -23.5 -180t-62.5 -135.5t-87 -97.5t-99 -64q-121 -59 -273 -68h-204zM137 68h137q133 6 238 59q45 23 88 56.5t77 84.5t54.5 119t20.5 158q0 102 -20.5 180t-54.5 136.5t-77 98 t-88 64.5q-104 59 -238 68h-137v-1024z" />
<glyph unicode="E" horiz-adv-x="753" d="M70 0v1159h614v-67h-545v-512h340v-68h-340v-444h545v-68h-614z" />
<glyph unicode="F" horiz-adv-x="686" d="M70 0v1159h614v-67h-545v-512h340v-68h-340v-512h-69z" />
<glyph unicode="G" horiz-adv-x="888" d="M70 340v410q6 115 47 204q18 39 44.5 76t65.5 65.5t92.5 46t124.5 17.5q70 0 123.5 -17.5t93 -46t66.5 -65.5t45 -76q41 -90 47 -204h-67q-4 94 -39 170q-14 33 -37 63.5t-54.5 55t-75.5 39t-102 14.5q-57 0 -101 -14.5t-75.5 -39t-54.5 -55.5t-37 -63q-35 -76 -39 -170 v-410q4 -78 39 -137q29 -51 91.5 -93t176.5 -42q115 0 177.5 42t91.5 93q35 59 39 137v172h-340v68h407v-240q-6 -96 -47 -170q-18 -33 -45 -63.5t-66.5 -54t-93 -38t-123.5 -14.5q-72 0 -125 14.5t-92 38t-65.5 54t-44.5 63.5q-41 74 -47 170z" />
<glyph unicode="H" horiz-adv-x="821" d="M70 0v1159h67v-579h545v579h70v-1159h-70v512h-545v-512h-67z" />
<glyph unicode="I" horiz-adv-x="548" d="M70 0v68h172v1024h-172v67h409v-67h-170v-1024h170v-68h-409z" />
<glyph unicode="J" horiz-adv-x="413" d="M-29 -205q78 0 119 32t60 71q23 45 24 102v1092h-172v67h410v-67h-170v-1092q-4 -78 -33 -137q-25 -53 -80 -95t-158 -42v69z" />
<glyph unicode="K" horiz-adv-x="786" d="M70 0v1159h67v-579q143 8 256 71q47 27 93 69t82 103.5t58.5 144.5t22.5 191h68q0 -147 -36 -251.5t-91 -176.5t-122 -114.5t-130 -65.5q70 -23 124 -57.5t94 -77.5t67.5 -91.5t46.5 -93.5q41 -109 47 -231h-68q-8 143 -63 256q-25 47 -62 93t-91 82t-127 58.5t-169 22.5 v-512h-67z" />
<glyph unicode="L" horiz-adv-x="616" d="M70 0v1159h67v-1091h477v-68h-544z" />
<glyph unicode="M" horiz-adv-x="1093" d="M70 0v1159h67q76 -94 140.5 -180t116.5 -158.5t91 -129t62 -93.5q25 37 62.5 93.5t90 129t117 158.5t139.5 180h68v-1159h-68v1063q-33 -45 -75.5 -105.5t-92 -129t-102.5 -141.5t-104 -142h-68q-51 70 -104.5 142.5t-102.5 141t-93 129t-75 105.5v-1063h-69z" />
<glyph unicode="N" horiz-adv-x="888" d="M70 0v1159h67q100 -166 193.5 -321.5t173.5 -290.5t143.5 -244.5t104.5 -181.5v1038h67v-1159h-67q-92 150 -183.5 301.5t-173.5 289.5t-148.5 254t-109.5 193v-1038h-67z" />
<glyph unicode="O" horiz-adv-x="888" d="M70 340v410q6 115 47 204q18 39 44.5 76t65.5 65.5t92 46t125 17.5q70 0 123.5 -17.5t93 -46t66.5 -65.5t45 -76q41 -90 47 -204v-410q-6 -96 -47 -170q-18 -33 -45 -63.5t-66.5 -54t-93 -38t-123.5 -14.5q-72 0 -125 14.5t-92 38t-65.5 54t-44.5 63.5q-41 74 -47 170z M137 340q4 -78 39 -137q29 -51 91.5 -93t176.5 -42q115 0 177.5 42t91.5 93q35 59 39 137v410q-4 94 -39 170q-14 33 -37 63.5t-54.5 55t-75.5 39t-102 14.5q-57 0 -101 -14.5t-75.5 -39t-54.5 -55.5t-37 -63q-35 -76 -39 -170v-410z" />
<glyph unicode="P" horiz-adv-x="786" d="M70 0v1159h342q84 -6 151 -43q57 -33 105.5 -102.5t48.5 -196.5q0 -57 -14.5 -100t-39 -76t-55 -54.5t-61.5 -35.5q-76 -35 -170 -39h-240v-512h-67zM137 580h240q76 2 135 28q51 23 94 71t43 138q0 102 -37 157.5t-82 82.5q-53 31 -118 35h-275v-512z" />
<glyph unicode="Q" horiz-adv-x="888" d="M70 340v410q6 115 47 204q18 39 44.5 76t65.5 65.5t92 46t125 17.5q70 0 123.5 -17.5t93 -46t66.5 -65.5t45 -76q41 -90 47 -204v-410q-4 -70 -28 -133q-23 -53 -71 -107.5t-136 -81.5q23 -23 37 -50t20 -50q8 -27 8 -55q2 -29 13 -51q10 -20 29.5 -36t58.5 -16t59 15.5 t31 36.5q10 23 12 51h70q-4 -49 -23 -86q-16 -33 -50 -59.5t-99 -26.5q-66 0 -100 26.5t-50 59.5q-18 37 -20 86q-2 37 -17 67q-12 27 -39.5 48.5t-79.5 21.5q-53 0 -80.5 -21.5t-39.5 -48.5q-14 -31 -17 -67h-67q0 29 8 55q6 23 19.5 50.5t37.5 49.5q-90 27 -137 81.5 t-70 107.5q-25 63 -28 133zM137 340q4 -78 39 -137q29 -51 91.5 -93t176.5 -42h15q111 4 169 46t87 93q33 59 37 133v410q-4 94 -39 170q-14 33 -37 63.5t-54.5 55t-75.5 39t-102 14.5q-57 0 -101 -14.5t-75.5 -39t-54.5 -55.5t-37 -63q-35 -76 -39 -170v-410z" />
<glyph unicode="R" horiz-adv-x="786" d="M70 0v1159h342q84 -6 151 -43q57 -33 105.5 -102.5t48.5 -196.5q0 -86 -32 -142.5t-77 -90t-95 -49t-85 -19.5q109 -57 166 -144t86 -171q33 -98 37 -201h-68q-8 143 -63 256q-25 47 -62 93t-90 82t-127 58.5t-168 22.5h-2v-512h-67zM137 580h240q76 2 135 28 q51 23 94 71t43 138q0 102 -37 157.5t-82 82.5q-53 31 -118 35h-275v-512z" />
<glyph unicode="S" horiz-adv-x="888" d="M70 375h67q4 -86 39 -154q29 -59 91.5 -106t176.5 -47q115 0 177.5 47t91.5 106q35 68 39 154q0 35 -50.5 59.5t-126 47t-164.5 47t-165 59.5t-126 82t-50 114q6 104 47 187q18 35 44.5 68.5t65.5 60t92.5 43t124.5 16.5q70 0 123.5 -16.5t93 -43t66.5 -60t45 -68.5 q41 -82 47 -187h-67q-4 86 -39 154q-29 57 -91.5 105.5t-177.5 48.5t-177 -48.5t-91 -105.5q-35 -68 -39 -154q0 -51 50.5 -86.5t126 -64.5t164.5 -53.5t165 -53t126 -64.5t50 -87q-6 -106 -47 -189q-18 -35 -45 -68.5t-66.5 -60t-93 -42t-123.5 -15.5q-72 0 -125 15.5 t-92 42t-65.5 60.5t-44.5 68q-41 82 -47 189z" />
<glyph unicode="T" horiz-adv-x="618" d="M2 1092v67h614v-67h-272v-1092h-68v1092h-274z" />
<glyph unicode="U" horiz-adv-x="888" d="M70 340v819h67v-819q4 -78 39 -137q29 -51 91.5 -93t176.5 -42q115 0 177.5 42t91.5 93q35 59 39 137v819h67v-819q-6 -96 -47 -170q-18 -33 -45 -63.5t-66.5 -54t-93 -38t-123.5 -14.5q-72 0 -125 14.5t-92 38t-65.5 54t-44.5 63.5q-41 74 -47 170z" />
<glyph unicode="V" horiz-adv-x="890" d="M2 1159h68l374 -1063l375 1063h70l-410 -1159h-67z" />
<glyph unicode="W" horiz-adv-x="1298" d="M2 1159h68l374 -1063l172 484l-204 579h67l170 -483l170 483h70l-205 -579l170 -484l375 1063h67l-407 -1159h-70l-170 483l-170 -483h-67z" />
<glyph unicode="X" horiz-adv-x="821" d="M70 0l307 580l-307 579h67l273 -516l272 516h70l-308 -579l308 -580h-70l-272 516l-273 -516h-67z" />
<glyph unicode="Y" horiz-adv-x="686" d="M2 1159h68l272 -545l272 545h70l-307 -614v-545h-68v545z" />
<glyph unicode="Z" horiz-adv-x="821" d="M70 0v68q0 6 26.5 52t69.5 117.5t97 160.5t112.5 181.5t113 181.5t97.5 160.5t69.5 117.5t26.5 53h-612v67h682v-67q0 -6 -27 -52.5t-70 -118t-98 -160.5t-112.5 -181.5t-113 -181.5t-98.5 -160.5t-69.5 -117.5t-26.5 -52h615v-68h-682z" />
<glyph unicode="[" horiz-adv-x="368" d="M70 -133v1427h264v-65h-199v-1297h199v-65h-264z" />
<glyph unicode="\" horiz-adv-x="481" d="M2 1159h70l407 -1159h-67z" />
<glyph unicode="]" horiz-adv-x="368" d="M35 -68h198v1297h-198v65h264v-1427h-264v65z" />
<glyph unicode="^" horiz-adv-x="344" d="M2 1092l170 137l170 -137l-68 -68l-102 127l-102 -127z" />
<glyph unicode="_" horiz-adv-x="548" d="M2 0h545v-68h-545v68z" />
<glyph unicode="`" horiz-adv-x="344" d="M70 1024l67 68l137 -170l-34 -35z" />
<glyph unicode="a" horiz-adv-x="753" d="M70 307v205q4 86 39 154q29 57 91 105t177 48q92 0 148.5 -31.5t90.5 -74.5v106h68v-819h-68v106q-35 -43 -91 -74.5t-148 -31.5q-115 0 -177.5 47t-90.5 107q-35 68 -39 153zM137 307q4 -68 31 -121q23 -45 71 -81.5t138 -36.5t138 36.5t71 81.5q27 53 30 121v205 q-4 66 -30 119q-23 45 -71 83t-138 38t-138.5 -38t-70.5 -83q-27 -53 -31 -119v-205z" />
<glyph unicode="b" horiz-adv-x="753" d="M70 0v1161h67v-448q35 43 91.5 74.5t148.5 31.5q115 0 177 -48t91 -105q35 -68 39 -154v-205q-4 -86 -39 -153q-29 -59 -91 -106.5t-177 -47.5q-92 0 -148.5 31.5t-91.5 74.5v-106h-67zM137 307q4 -68 31 -121q23 -45 71 -81.5t138 -36.5t138 36.5t71 81.5q27 53 30 121 v205q-4 66 -30 119q-23 45 -71 83t-138 38t-138.5 -38t-70.5 -83q-27 -53 -31 -119v-205z" />
<glyph unicode="c" horiz-adv-x="753" d="M70 307v205q4 86 39 154q29 57 91 105t177 48t177 -48t91 -105q35 -68 39 -154h-68q-4 66 -30 119q-23 45 -71 83t-138 38t-138.5 -38t-70.5 -83q-27 -53 -29 -119v-205q2 -68 29 -121q23 -45 71 -81.5t138 -36.5t138 36.5t71 81.5q27 53 30 121h68q-4 -86 -39 -153 q-29 -59 -91 -106.5t-177 -47.5t-177.5 47t-90.5 107q-35 68 -39 153z" />
<glyph unicode="d" horiz-adv-x="753" d="M70 307v205q4 86 39 154q29 57 91 105t177 48q92 0 148.5 -31.5t90.5 -74.5v448h68v-1161h-68v106q-35 -43 -91 -74.5t-148 -31.5q-115 0 -177.5 47t-90.5 107q-35 68 -39 153zM137 307q4 -68 31 -121q23 -45 71 -81.5t138 -36.5t138 36.5t71 81.5q27 53 30 121v205 q-4 66 -30 119q-23 45 -71 83t-138 38t-138.5 -38t-70.5 -83q-27 -53 -31 -119v-205z" />
<glyph unicode="e" horiz-adv-x="753" d="M70 307v205q4 86 39 154q29 57 91 105t177 48t177 -48t91 -105q35 -68 39 -154v-137h-545v-68q2 -68 29 -121q23 -45 71 -81.5t138 -36.5t138 36.5t71 81.5q27 53 30 121h68q-4 -86 -39 -153q-29 -59 -91 -106.5t-177 -47.5t-177.5 47t-90.5 107q-35 68 -39 153zM139 444 h477v68q-4 66 -30 119q-23 45 -71 83t-138 38t-138.5 -38t-70.5 -83q-27 -53 -29 -119v-68z" />
<glyph unicode="f" horiz-adv-x="344" d="M2 750v67h135v68q4 76 35 137q27 51 82 94t158 43v-69q-78 0 -120 -32t-61 -71q-23 -45 -24 -102v-68h135v-67h-135v-750h-70v750h-135z" />
<glyph unicode="g" horiz-adv-x="755" d="M70 -70h69q4 -68 31 -120q23 -45 71 -82t138 -37t137 36.5t70 82.5q25 53 30 120v174q-33 -43 -89 -73.5t-148 -30.5q-115 0 -178.5 47t-91.5 105q-35 68 -39 153v205q4 86 39 154q14 29 36.5 57.5t54 50t75.5 34.5t104 13q92 0 148.5 -31.5t88.5 -74.5v106h70v-889 q-4 -86 -39 -153q-29 -59 -91 -106.5t-177 -47.5q-59 0 -103.5 13.5t-76 35t-54 49t-36.5 56.5q-35 68 -39 153zM139 305q4 -68 31 -121q23 -45 71 -81.5t138 -36.5t137 36.5t70 81.5q25 53 30 121v205q-6 66 -30 119q-23 45 -71 83t-136 38q-90 0 -138 -38t-71 -83 q-27 -53 -31 -119v-205z" />
<glyph unicode="h" horiz-adv-x="686" d="M70 0v1159h67v-436q31 41 80 68.5t125 27.5q102 0 157.5 -48t82.5 -105q31 -68 34 -154v-512h-69v512q-4 66 -27 119q-20 45 -60 83t-118 38t-120 -38t-60 -83q-23 -53 -25 -119v-512h-67z" />
<glyph unicode="i" horiz-adv-x="243" d="M37 752v67h137v-819h-70v752h-67zM37 954q0 18 8 33q6 12 19 23.5t40 11.5t41.5 -11.5t20.5 -23.5q8 -14 8 -33q0 -20 -8 -34q-6 -12 -20.5 -22.5t-41.5 -10.5t-40 10t-19 23q-8 14 -8 34z" />
<glyph unicode="j" horiz-adv-x="243" d="M-100 -205q78 0 117.5 32t60.5 71q23 45 26 102v750h-67v69h137v-819q-4 -78 -35 -137q-27 -51 -82 -93t-157 -42v67zM37 954q0 18 8 33q6 12 19 23.5t40 11.5t41.5 -11.5t20.5 -23.5q8 -14 8 -33q0 -20 -8 -34q-6 -12 -20.5 -22.5t-41.5 -10.5t-40 10t-19 23 q-8 14 -8 34z" />
<glyph unicode="k" horiz-adv-x="649" d="M70 0v1159h67v-751q104 6 187 51q35 18 68.5 48t60 73t43 101t16.5 136h68q0 -102 -24 -176t-62.5 -126t-86 -85t-92.5 -51q98 -35 152.5 -97.5t79.5 -125.5q29 -74 33 -156h-68q-6 94 -47 170q-18 31 -45 61.5t-67 55t-93 39t-123 14.5v-340h-67z" />
<glyph unicode="l" horiz-adv-x="208" d="M2 1092v67h137v-1159h-69v1092h-68z" />
<glyph unicode="m" horiz-adv-x="1163" d="M70 0v819h69v-96q29 41 78 68.5t127 27.5q100 0 156.5 -48t81.5 -105q27 57 82 105t157 48q100 0 155.5 -48t82.5 -105q31 -68 35 -154v-512h-68v512q-4 66 -27 119q-20 45 -60 83t-118 38t-120 -38t-60 -83q-23 -53 -25 -119v-512h-67v512q-4 66 -27 119q-20 45 -60 83 t-118 38t-120 -38t-60 -83q-23 -53 -25 -119v-512h-69z" />
<glyph unicode="n" horiz-adv-x="686" d="M70 0v819h67v-96q31 41 80 68.5t125 27.5q102 0 157.5 -48t82.5 -105q31 -68 34 -154v-512h-69v512q-4 66 -27 119q-20 45 -60 83t-118 38t-120 -38t-60 -83q-23 -53 -25 -119v-512h-67z" />
<glyph unicode="o" horiz-adv-x="753" d="M70 307v205q4 86 39 154q29 57 91 105t177 48t177 -48t91 -105q35 -68 39 -154v-205q-4 -86 -39 -153q-29 -59 -91 -106.5t-177 -47.5t-177.5 47t-90.5 107q-35 68 -39 153zM139 307q2 -68 29 -121q23 -45 71 -81.5t138 -36.5t138 36.5t71 81.5q27 53 30 121v205 q-4 66 -30 119q-23 45 -71 83t-138 38t-138.5 -38t-70.5 -83q-27 -53 -29 -119v-205z" />
<glyph unicode="p" horiz-adv-x="753" d="M70 -342v1161h67v-106q35 43 91.5 74.5t148.5 31.5q115 0 177 -48t91 -105q35 -68 39 -154v-205q-4 -86 -39 -153q-29 -59 -91 -106.5t-177 -47.5q-92 0 -148.5 31.5t-91.5 74.5v-448h-67zM137 307q4 -68 31 -121q23 -45 71 -81.5t138 -36.5t138 36.5t71 81.5 q27 53 30 121v205q-4 66 -30 119q-23 45 -71 83t-138 38t-138.5 -38t-70.5 -83q-27 -53 -31 -119v-205z" />
<glyph unicode="q" horiz-adv-x="753" d="M70 307v205q4 86 39 154q29 57 91 105t177 48q92 0 148.5 -31.5t90.5 -74.5v106h68v-1161h-68v448q-35 -43 -91 -74.5t-148 -31.5q-115 0 -177.5 47t-90.5 107q-35 68 -39 153zM137 307q4 -68 31 -121q23 -45 71 -81.5t138 -36.5t138 36.5t71 81.5q27 53 30 121v205 q-4 66 -30 119q-23 45 -71 83t-138 38t-138.5 -38t-70.5 -83q-27 -53 -31 -119v-205z" />
<glyph unicode="r" horiz-adv-x="413" d="M70 0v819h67v-129q37 53 101.5 91t173.5 38v-67q-102 0 -157.5 -43t-82.5 -95q-31 -61 -35 -137v-477h-67z" />
<glyph unicode="s" horiz-adv-x="686" d="M70 272h67q2 -57 25 -102q18 -39 60 -70.5t120 -31.5t118 31.5t60 70.5q23 45 27 102q0 51 -36 73t-88 29t-114.5 9t-115 15.5t-88 46t-35.5 102.5q4 76 34 135q27 51 81.5 94t156.5 43t157.5 -43t82.5 -94q31 -59 34 -135h-69q-4 57 -27 102q-20 39 -60 71t-118 32 t-120 -32t-60 -71q-23 -45 -25 -102q0 -51 36 -72.5t89 -29t114.5 -9.5t115 -15t89 -47t35.5 -102q-4 -78 -34 -137q-27 -51 -82.5 -93t-157.5 -42t-156.5 42t-81.5 93q-31 59 -34 137z" />
<glyph unicode="t" horiz-adv-x="346" d="M2 750v69h137v273h68v-273h137v-69h-137v-750h-68v750h-137z" />
<glyph unicode="u" horiz-adv-x="686" d="M70 307v512h67v-512q2 -68 25 -121q18 -45 60 -81.5t120 -36.5t118 36.5t60 81.5q23 53 27 121v512h69v-819h-69v94q-29 -39 -78 -66.5t-127 -27.5q-102 0 -156.5 47t-81.5 107q-31 68 -34 153z" />
<glyph unicode="v" horiz-adv-x="618" d="M2 819h70l237 -717l240 717h67l-272 -819h-68z" />
<glyph unicode="w" horiz-adv-x="960" d="M2 819h68l239 -717l137 410l-102 307h68l67 -205l70 205h67l-102 -307l137 -410l238 717h69l-274 -819h-68l-137 410l-135 -410h-70z" />
<glyph unicode="x" horiz-adv-x="616" d="M70 0l204 410l-204 409h67l170 -342l172 342h68l-205 -409l205 -410h-68l-172 342l-170 -342h-67z" />
<glyph unicode="y" horiz-adv-x="618" d="M2 819h68l239 -717l240 717h67l-272 -819l-149 -412h-68l147 412z" />
<glyph unicode="z" horiz-adv-x="686" d="M70 0v68l477 684h-477v67h546v-67l-479 -684h479v-68h-546z" />
<glyph unicode="{" horiz-adv-x="399" d="M35 580q18 29 33 53q12 23 22 45t10 35v317q4 74 33 131q25 49 78 91t154 42v-65q-76 0 -116 -32t-59 -69q-23 -43 -24 -98v-317q0 -25 -10.5 -49.5t-22.5 -42.5q-14 -23 -33 -41q18 -18 33 -41q12 -18 22.5 -42t10.5 -48v-320q2 -57 24 -100q18 -37 58.5 -68t116.5 -31 v-67q-100 0 -153.5 41t-78.5 92q-29 57 -33 133v320q0 12 -10 33.5t-22 43.5q-14 25 -33 54z" />
<glyph unicode="|" horiz-adv-x="208" d="M70 -70v1299h69v-1299h-69z" />
<glyph unicode="}" horiz-adv-x="399" d="M35 -70q74 0 114.5 31t59.5 68q23 43 24 100v320q0 25 10.5 48t22.5 42q14 23 33 41q-18 18 -33 41q-12 18 -22.5 42.5t-10.5 49.5v317q-2 55 -24 98q-18 37 -59 69t-115 32v65q98 0 152.5 -42t78.5 -91q29 -57 33 -131v-317q0 -12 10 -35t23 -45q14 -25 33 -53 q-18 -29 -33 -54q-12 -23 -22.5 -44t-10.5 -33v-320q-4 -76 -33 -133q-25 -51 -79 -92t-152 -41v67z" />
<glyph unicode="~" horiz-adv-x="684" d="M70 444q2 47 20 84q16 33 50 59.5t100 26.5q39 0 65.5 -16t49 -34.5t44 -35t45.5 -16.5q39 0 59.5 15.5t31.5 35.5q10 23 12 51h67q-2 -49 -20 -86q-16 -33 -51 -58.5t-99 -25.5q-39 0 -65.5 16.5t-49 35t-44 35t-45.5 16.5q-39 0 -59.5 -16.5t-30.5 -34.5 q-10 -23 -13 -52h-67z" />
<glyph unicode="&#xa1;" horiz-adv-x="276" d="M70 1092q0 18 8 32q6 12 19 23.5t40 11.5t41.5 -11t20.5 -24q8 -14 8 -32q0 -20 -8 -35q-6 -12 -20.5 -22.5t-41.5 -10.5t-40 10t-19 23q-8 14 -8 35zM100 137v819h70v-819h-70z" />
<glyph unicode="&#xa2;" horiz-adv-x="753" d="M70 375v205q4 78 34 143q27 55 80.5 103t157.5 59v141h70v-141q102 -10 156.5 -58.5t80.5 -103.5q31 -66 35 -143h-68q-4 59 -26 110q-20 43 -61.5 80t-116.5 47v-680q78 8 117.5 46t60.5 81q23 51 26 111h68q-4 -78 -35 -144q-27 -55 -81 -104t-156 -57v-140h-70v140 q-51 4 -90 19t-67.5 38t-48 49.5t-32.5 54.5q-31 66 -34 144zM139 375q2 -59 25 -111q18 -43 59 -81t119 -46v680q-78 -10 -119 -47t-59 -80q-23 -51 -25 -110v-205z" />
<glyph unicode="&#xa3;" horiz-adv-x="681" d="M35 0v68q78 0 118 31.5t60 70.5q23 45 27 102v273h-138v67h138v273q4 76 34 135q27 51 81.5 94t156.5 43h102v-67h-102q-78 0 -120 -32t-60 -71q-23 -45 -25 -102v-273h170v-67h-170v-273q-2 -35 -10 -71q-8 -31 -25.5 -68t-48.5 -65h424v-68h-612z" />
<glyph unicode="&#xa4;" horiz-adv-x="841" d="M35 242l143 141q-41 59 -52 116.5t-11 73.5v11q0 16 11 73.5t52 114.5v2l-143 141l49 50l141 -142l33 23l6 4l35 14q8 4 12 4q8 4 17.5 5t19.5 6q4 0 7 1t7 1q12 2 25.5 3t28.5 1h10q14 0 27.5 -1t25.5 -3q4 0 7 -1t8 -1q10 -4 19 -5.5t17 -5.5q4 0 13 -4l35 -14l6 -4 q10 -4 17 -10.5t15 -12.5l142 142l49 -50l-143 -141v-2q41 -57 52 -114.5t11 -73.5v-6q0 -31 -8 -64q-6 -29 -19.5 -62.5t-35.5 -66.5v-2l143 -141l-49 -49l-142 141q-16 -14 -34 -23l-4 -4q-8 -4 -16.5 -7t-18.5 -7q-8 -4 -11 -4q-23 -8 -38 -10q-4 0 -7.5 -1.5t-7.5 -1.5 q-14 -2 -27.5 -3t-29.5 -1t-30.5 1t-29.5 3q-4 0 -7 1.5t-7 1.5q-18 4 -37 10q-4 0 -12 4l-35 14l-4 4q-18 8 -35 23l-141 -141zM182 565q2 -4 2 -14v-2q2 -4 2 -8t2 -11q4 -20 13.5 -45.5t25.5 -50.5q10 -14 21.5 -26.5t25.5 -24.5l27 -16h2q6 -4 13.5 -6.5t15.5 -6.5 q2 -2 6 -2q6 -4 14 -5t17 -3h8q10 -2 21.5 -3t23.5 -1q10 0 21.5 1t21.5 3h8q8 2 16.5 3t14.5 5q4 0 6 2q8 4 15 6t14 7h2l26 16q14 12 25.5 24.5t21.5 26.5q16 25 25.5 50.5t13.5 45.5q2 6 2 10.5t2 8.5v2q0 10 2 14v27q-2 4 -2 14v2l-4 17v2q-4 20 -13 45.5t-26 50.5 q-20 31 -47 51l-26 17h-2q-6 4 -13.5 6t-15.5 6q-2 0 -3 1t-3 1q-12 6 -29 6l-10 4q-10 0 -18.5 1t-18.5 1h-14q-10 0 -18.5 -1t-18.5 -1l-10 -4q-16 0 -29 -6q-2 0 -3 -1t-3 -1q-8 -4 -15.5 -6t-13.5 -6h-2l-27 -17q-27 -20 -47 -51q-16 -25 -25 -49.5t-14 -46.5v-2l-4 -17 v-2q0 -10 -2 -14v-27z" />
<glyph unicode="&#xa5;" horiz-adv-x="686" d="M2 1159h68l272 -545l272 545h70l-307 -614h237v-68h-237v-203h237v-67h-237v-207h-68v207h-239v67h239v203h-239v68h239z" />
<glyph unicode="&#xa6;" horiz-adv-x="208" d="M70 -70v586h69v-586h-69zM70 719v510h69v-510h-69z" />
<glyph unicode="&#xa7;" horiz-adv-x="684" d="M70 272h67q2 -57 25 -102q18 -39 60 -70.5t120 -31.5t118 31.5t60 70.5q23 45 27 102q0 51 -36 73t-88 29t-114.5 9t-115 15.5t-88 46t-35.5 100.5q2 37 14 73q10 31 34.5 65t69.5 58q-51 14 -84.5 47t-33.5 99q4 76 34 135q27 51 81.5 94t156.5 43q100 0 155.5 -43 t82.5 -94q31 -59 34 -135h-67q-4 57 -27 102q-20 39 -60 71t-118 32t-120 -32t-60 -71q-23 -45 -25 -102q0 -51 36 -72.5t88 -29t114.5 -9.5t115 -15t88 -46t35.5 -101l-2 -22q-2 -23 -12 -53.5t-34.5 -63.5t-67.5 -57q51 -14 83.5 -47t32.5 -99q-4 -78 -34 -137 q-27 -51 -81.5 -93t-156.5 -42t-156.5 42t-81.5 93q-31 59 -34 137zM137 545q0 -43 25.5 -64.5t67.5 -31t93.5 -11.5t100.5 -8q47 16 70.5 47t35.5 62q12 37 17 75q0 43 -25.5 64.5t-67.5 31t-93.5 11.5t-100.5 8q-47 -16 -70.5 -47t-35.5 -61q-14 -37 -17 -76z" />
<glyph unicode="&#xa8;" horiz-adv-x="616" d="M70 954q0 18 8 33q6 12 19 23.5t40 11.5q25 0 39 -11.5t21 -23.5q8 -14 8 -33q0 -20 -8 -34q-6 -12 -20.5 -22.5t-39.5 -10.5q-27 0 -40 10t-19 23q-8 14 -8 34zM410 954q0 18 8 33q6 12 20 23.5t41 11.5q25 0 39 -11.5t21 -23.5q8 -14 8 -33q0 -20 -8 -34 q-6 -12 -20.5 -22.5t-39.5 -10.5q-27 0 -41 10t-20 23q-8 14 -8 34z" />
<glyph unicode="&#xa9;" horiz-adv-x="1228" d="M35 578q0 109 24.5 191.5t65.5 144t92 103.5t107 68q126 64 290 72q162 -8 289 -72q55 -27 107.5 -68.5t93.5 -103t65.5 -144.5t24.5 -191q0 -109 -24.5 -192t-65.5 -143.5t-93.5 -102.5t-107.5 -68q-127 -63 -289 -72q-164 8 -290 72q-55 27 -106.5 68.5t-92.5 103 t-65.5 143.5t-24.5 191zM104 578q0 -96 21.5 -169t57.5 -127.5t82 -90t93 -60.5q113 -55 256 -63q143 8 256 63q47 25 93.5 60.5t82 90t58 127t22.5 169.5q0 96 -22.5 168.5t-58 127t-81.5 91t-94 61.5q-113 55 -256 64q-143 -8 -256 -64q-47 -25 -93 -61.5t-82 -91 t-57.5 -127t-21.5 -168.5zM307 477v203q4 86 39 154q29 57 91.5 105t176.5 48q115 0 177.5 -48t91.5 -105q35 -68 39 -154h-68q-4 66 -31 119q-23 45 -71 83t-138 38t-138 -38t-70 -83q-27 -53 -29 -119v-203q2 -68 29 -121q23 -45 70.5 -81.5t137.5 -36.5t138.5 36.5 t70.5 81.5q27 53 31 121h68q-4 -86 -39 -153q-29 -59 -91.5 -106.5t-177.5 -47.5t-177 47t-91 107q-35 68 -39 153z" />
<glyph unicode="&#xaa;" horiz-adv-x="753" d="M70 819q4 86 39 154q29 57 91 105t177 48q92 0 148.5 -31.5t90.5 -74.5v106h68v-614h-68v106q-35 -43 -91 -74.5t-148 -31.5q-115 0 -177.5 47t-90.5 107q-35 68 -39 153zM137 819q4 -68 31 -121q23 -45 71 -81.5t138 -36.5t138 36.5t71 81.5q26 53 30 121q-4 66 -30 119 q-23 45 -71 83t-138 38t-138.5 -38t-70.5 -83q-27 -53 -31 -119z" />
<glyph unicode="&#xab;" horiz-adv-x="653" d="M35 580l307 307v-68l-240 -239l240 -240v-68zM311 580l307 307v-68l-239 -239l239 -240v-68z" />
<glyph unicode="&#xac;" horiz-adv-x="614" d="M35 440v70h545v-137h-68v67h-477z" />
<glyph unicode="&#xad;" horiz-adv-x="614" d="M35 444v68h545v-68h-545z" />
<glyph unicode="&#xae;" horiz-adv-x="1228" d="M35 578q0 109 24.5 191.5t65.5 144t92 103.5t107 68q126 64 290 72q162 -8 289 -72q55 -27 107.5 -68.5t93.5 -103t65.5 -144.5t24.5 -191q0 -109 -24.5 -192t-65.5 -143.5t-93.5 -102.5t-107.5 -68q-127 -63 -289 -72q-164 8 -290 72q-55 27 -106.5 68.5t-92.5 103 t-65.5 143.5t-24.5 191zM104 578q0 -96 21.5 -169t57.5 -127.5t82 -90t93 -60.5q113 -55 256 -63q143 8 256 63q47 25 93.5 60.5t82 90t58 127t22.5 169.5q0 96 -22.5 168.5t-58 127t-81.5 91t-94 61.5q-113 55 -256 64q-143 -8 -256 -64q-47 -25 -93 -61.5t-82 -91 t-57.5 -127t-21.5 -168.5zM410 170v817h137q76 -4 135 -35q51 -27 94 -82t43 -155q0 -59 -15.5 -101.5t-39 -72t-52 -48t-57.5 -28.5q31 -16 60.5 -42t53.5 -60.5t37 -83t13 -109.5h-67q0 100 -43 155.5t-95 82.5q-59 31 -135 34v-272h-69zM479 510h68q57 2 102 25 q39 18 71 60t32 120t-32 117.5t-71 60.5q-45 23 -102 27h-68v-410z" />
<glyph unicode="&#xaf;" horiz-adv-x="684" d="M70 1229v67h544v-67h-544z" />
<glyph unicode="&#xb0;" horiz-adv-x="276" d="M2 1094q2 37 16 67q12 25 40 46.5t79 21.5t80 -21.5t41 -46.5q14 -31 16 -67q-2 -39 -16 -70q-12 -27 -41 -47.5t-80 -20.5t-78.5 20.5t-40.5 47.5q-14 31 -16 70zM70 1094q0 -20 8 -35q6 -14 19.5 -24.5t39.5 -10.5q27 0 41.5 10t20.5 25q8 15 8 35q0 18 -8 32 q-6 12 -20.5 23.5t-41.5 11.5t-40 -11t-19 -24q-8 -14 -8 -32z" />
<glyph unicode="&#xb1;" horiz-adv-x="614" d="M35 70v67h545v-67h-545zM35 444v68h237v238h68v-238h240v-68h-240v-239h-68v239h-237z" />
<glyph unicode="&#xb2;" horiz-adv-x="546" d="M35 547v69q0 51 29.5 84t75.5 57.5t98.5 45t98.5 45t75.5 58.5t29.5 85q-2 47 -20 84q-16 33 -51 59.5t-99 26.5q-66 0 -99.5 -26.5t-49.5 -59.5q-18 -37 -21 -84h-67q2 66 28 119q23 45 71 82t138 37t138.5 -37t70.5 -82q27 -53 31 -119q0 -68 -30.5 -112.5t-76 -75.5 t-98.5 -51.5t-98 -39t-76 -41t-31 -55.5h410v-69h-477z" />
<glyph unicode="&#xb3;" horiz-adv-x="546" d="M35 788h67q2 -49 21 -86q16 -33 50 -58.5t99 -25.5q63 0 98.5 26t51.5 58q18 37 20 86q0 18 -8 33q-6 12 -20.5 23.5t-38.5 11.5h-68v68h68q18 0 33 8q12 6 23 20t11 41q-2 47 -20 84q-16 33 -51 59.5t-99 26.5q-66 0 -99.5 -26.5t-49.5 -59.5q-18 -37 -21 -84h-67 q2 66 28 119q23 45 71 82t138 37t138.5 -37t70.5 -82q27 -53 31 -119q0 -39 -13.5 -62.5t-29.5 -39.5q16 -16 24.5 -33.5t12.5 -34.5q6 -18 6 -35q-4 -68 -31 -120q-23 -45 -71 -82t-138 -37t-138 37t-71 82q-27 53 -28 120z" />
<glyph unicode="&#xb4;" horiz-adv-x="344" d="M70 922l137 170l67 -68l-170 -137z" />
<glyph unicode="&#xb5;" horiz-adv-x="686" d="M70 -342v1161h67v-512q2 -68 25 -121q18 -45 60 -81.5t120 -36.5t118 36.5t60 81.5q23 53 27 121v512h69v-819h-69v94q-29 -39 -78 -66.5t-127 -27.5t-127 27.5t-78 68.5v-438h-67z" />
<glyph unicode="&#xb6;" horiz-adv-x="956" d="M35 819q0 127 47 195.5t106 101.5q68 37 154 43h580v-67h-138v-1092h-67v1092h-273v-1092h-67v512l-25 1q-26 1 -64 10t-82 27.5t-82 52.5t-63.5 86t-25.5 130zM102 819q0 -90 42 -138t96 -71q59 -27 137 -30v512h-35q-68 -4 -121 -35q-45 -27 -82 -81.5t-37 -156.5z" />
<glyph unicode="&#xb7;" horiz-adv-x="141" d="M2 580q0 18 8 32q6 12 19.5 23.5t40.5 11.5t41 -11t20 -24q8 -14 8 -32q0 -20 -8 -35q-6 -12 -20.5 -22.5t-40.5 -10.5q-27 0 -40.5 10t-19.5 23q-8 14 -8 35z" />
<glyph unicode="&#xb8;" horiz-adv-x="616" d="M70 -342h340q18 0 34 8q12 6 23.5 19.5t11.5 40.5q0 25 -11 39t-24 20q-16 8 -34 8h-136q-39 2 -69 17q-27 12 -47.5 39.5t-20.5 80.5q0 51 20.5 80t47.5 41q31 14 69 17v-68q-20 -2 -34 -10q-14 -6 -24.5 -20.5t-10.5 -39.5q0 -27 10 -40t25 -19q14 -8 34 -8h136 q37 -2 67 -17q27 -12 48.5 -40.5t21.5 -79.5q0 -53 -21.5 -81t-48.5 -40q-31 -14 -67 -17h-340v70z" />
<glyph unicode="&#xb9;" horiz-adv-x="376" d="M35 889q39 63 61.5 96t45 61.5t52 66.5t80.5 116h68v-682h-68v586q-59 -84 -84.5 -120t-37 -52.5t-19.5 -27.5t-31 -44h-67z" />
<glyph unicode="&#xba;" horiz-adv-x="753" d="M70 819q4 86 39 154q29 57 91 105t177 48t177 -48t91 -105q35 -68 39 -154q-4 -86 -39 -153q-29 -59 -91 -106.5t-177 -47.5t-177.5 47t-90.5 107q-35 68 -39 153zM139 819q2 -68 29 -121q23 -45 71 -81.5t138 -36.5t138 36.5t71 81.5q27 53 30 121q-4 66 -30 119 q-23 45 -71 83t-138 38t-138.5 -38t-70.5 -83q-27 -53 -29 -119z" />
<glyph unicode="&#xbb;" horiz-adv-x="653" d="M35 272v68l239 240l-239 239v68l307 -307zM311 272v68l240 240l-240 239v68l307 -307z" />
<glyph unicode="&#xbc;" horiz-adv-x="1163" d="M35 819q39 63 61.5 96t45 62t52 66.5t80.5 115.5h68v-682h-68v586q-59 -84 -84.5 -120t-37 -52.5t-19.5 -27.5t-31 -44h-67zM344 0l408 1159h69l-409 -1159h-68zM686 137v68q78 129 153.5 252t153.5 225h68v-477h67v-68h-67v-137h-68v137h-307zM754 205h239v375 q-35 -53 -65.5 -98.5t-58 -89.5t-56.5 -90t-59 -97z" />
<glyph unicode="&#xbd;" horiz-adv-x="1261" d="M35 819q39 63 61.5 96t45 62t52 66.5t80.5 115.5h68v-682h-68v586q-59 -84 -84.5 -120t-37 -52.5t-19.5 -27.5t-31 -44h-67zM342 0l408 1159h69l-409 -1159h-68zM750 0v70q0 51 29.5 83.5t75.5 57.5t98.5 45t98.5 45t75.5 58.5t29.5 84.5q-2 47 -20 84q-16 33 -51 59.5 t-99 26.5q-66 0 -99.5 -26.5t-49.5 -59.5q-18 -37 -21 -84h-67q2 66 28 119q23 45 71 82t138 37t138.5 -37t70.5 -82q27 -53 31 -119q0 -68 -31 -112.5t-76 -75.5t-98 -51.5t-98 -39t-76 -41t-31 -54.5h410v-70h-477z" />
<glyph unicode="&#xbe;" horiz-adv-x="1263" d="M35 717h67q2 -49 21 -86q16 -33 50 -58.5t99 -25.5q63 0 98.5 25.5t51.5 58.5q18 37 20 86q0 18 -8 33q-6 12 -20.5 23t-38.5 11h-68v68h68q18 0 33 8q12 6 23 20.5t11 41.5q-2 47 -20 84q-16 33 -51 59.5t-99 26.5q-66 0 -99.5 -27t-49.5 -59q-18 -37 -21 -84h-67 q2 66 28 118q23 45 71 82t138 37t138.5 -37t70.5 -82q27 -53 31 -118q0 -39 -13.5 -62.5t-29.5 -40.5q16 -16 24.5 -33.5t12.5 -33.5q6 -18 6 -35q-4 -68 -31 -121q-23 -45 -71 -82t-138 -37t-138 37t-71 82q-27 53 -28 121zM444 0l408 1159h70l-410 -1159h-68zM786 137v68 q78 129 154 252t154 225h67v-477h68v-68h-68v-137h-67v137h-308zM854 205h240v375q-35 -53 -66 -98.5t-58.5 -89.5t-56 -90t-59.5 -97z" />
<glyph unicode="&#xbf;" horiz-adv-x="888" d="M70 512q6 90 43 162q16 31 40.5 60.5t60.5 54t84 41t112 20.5v104h69v-170h-35q-115 0 -177 -43t-91 -94q-35 -59 -39 -135q4 -96 39 -172q14 -33 37 -63.5t54.5 -54t75.5 -38t101 -14.5t101.5 14.5t76 38t54 54t37.5 63.5q35 76 39 172h67q-6 -115 -47 -205 q-18 -39 -45 -75.5t-66.5 -65.5t-93 -46.5t-123.5 -17.5q-72 0 -125 17.5t-92 46.5t-65.5 65.5t-44.5 75.5q-41 90 -47 205zM377 1092q0 18 8 32q6 12 19.5 23.5t39.5 11.5q25 0 39.5 -11t20.5 -24q8 -14 8 -32q0 -20 -8 -35q-6 -12 -20.5 -22.5t-39.5 -10.5q-27 0 -40 10 t-19 23q-8 14 -8 35z" />
<glyph unicode="&#xc0;" horiz-adv-x="890" d="M2 0l410 1159h67l410 -1159h-70l-180 512h-389l-180 -512h-68zM274 580h340l-170 483zM342 1366l68 68l137 -170l-35 -35z" />
<glyph unicode="&#xc1;" horiz-adv-x="890" d="M2 0l410 1159h67l410 -1159h-70l-180 512h-389l-180 -512h-68zM274 580h340l-170 483zM342 1264l137 170l68 -68l-170 -137z" />
<glyph unicode="&#xc2;" horiz-adv-x="890" d="M2 0l410 1159h67l410 -1159h-70l-180 512h-389l-180 -512h-68zM274 580h340l-170 483zM274 1296l170 138l170 -138l-67 -67l-103 127l-102 -127z" />
<glyph unicode="&#xc3;" horiz-adv-x="890" d="M2 0l410 1159h67l410 -1159h-70l-180 512h-389l-180 -512h-68zM172 1229q2 47 21 84q16 33 49.5 59.5t99.5 26.5q39 0 65.5 -16.5t49 -35t44 -35t46.5 -16.5q39 0 59.5 15.5t30.5 36.5q10 23 12 51h68q-2 -49 -21 -86q-16 -33 -51 -58.5t-98 -25.5q-39 0 -65.5 16.5 t-49 34.5t-44 34.5t-46.5 16.5q-39 0 -59.5 -16.5t-30.5 -34.5q-10 -23 -12 -51h-68zM274 580h340l-170 483z" />
<glyph unicode="&#xc4;" horiz-adv-x="890" d="M2 0l410 1159h67l410 -1159h-70l-180 512h-389l-180 -512h-68zM207 1296q0 18 8 33q6 12 19 23.5t40 11.5q25 0 39.5 -11.5t20.5 -23.5q8 -14 8 -33q0 -20 -8 -34q-6 -12 -20.5 -22.5t-39.5 -10.5q-27 0 -40 10t-19 23q-8 14 -8 34zM274 580h340l-170 483zM547 1296 q0 18 8 33q6 12 20 23.5t41 11.5q25 0 39.5 -11.5t20.5 -23.5q8 -14 8 -33q0 -20 -8 -34q-6 -12 -20.5 -22.5t-39.5 -10.5q-27 0 -41 10t-20 23q-8 14 -8 34z" />
<glyph unicode="&#xc5;" horiz-adv-x="890" d="M2 0l410 1159h67l410 -1159h-70l-180 512h-389l-180 -512h-68zM274 580h340l-170 483zM307 1364q2 37 17 68q12 27 39.5 48t80.5 21q51 0 80 -21.5t41 -47.5q14 -31 17 -68q-2 -39 -17 -68q-12 -27 -40.5 -47t-80.5 -20q-53 0 -80.5 20.5t-39.5 46.5q-14 29 -17 68z M377 1364q0 -20 8 -35q6 -12 19 -22.5t40 -10.5q25 0 39.5 10.5t20.5 22.5q8 14 8 35q0 18 -8 35q-6 12 -20.5 23.5t-39.5 11.5q-27 0 -40 -11.5t-19 -23.5q-8 -16 -8 -35z" />
<glyph unicode="&#xc6;" horiz-adv-x="1095" d="M2 0l410 1159h614v-67h-547v-512h342v-68h-342v-444h547v-68h-614v512h-160l-180 -512h-70zM276 580h136v387z" />
<glyph unicode="&#xc7;" horiz-adv-x="888" d="M70 340v410q6 115 47 204q18 39 44.5 76t65.5 65.5t92.5 46t124.5 17.5q70 0 123.5 -17.5t93 -46t66.5 -65.5t45 -76q41 -90 47 -204h-67q-4 94 -39 170q-14 33 -37 63.5t-54.5 55t-75.5 39t-102 14.5q-57 0 -101 -14.5t-75.5 -39t-54.5 -55.5t-37 -63q-35 -76 -39 -170 v-410q4 -78 39 -137q29 -51 91.5 -93t176.5 -42q115 0 177.5 42t91.5 93q35 59 39 137h67q-6 -96 -47 -170q-18 -33 -45 -63.5t-66.5 -54t-93 -38t-123.5 -14.5q-20 -2 -34 -10q-14 -6 -24.5 -20.5t-10.5 -39.5q0 -27 10 -40t25 -19q14 -8 34 -8h136q37 -2 67 -17 q27 -12 48.5 -40.5t21.5 -79.5q0 -53 -21.5 -81t-48.5 -40q-31 -14 -67 -17h-340v70h340q18 0 34 8q12 6 23.5 19.5t11.5 40.5q0 25 -11 39t-24 20q-16 8 -34 8h-136q-39 2 -69 17q-27 12 -47.5 39.5t-20.5 80.5t23 82q-98 23 -150.5 77t-77.5 110q-29 66 -32 141z" />
<glyph unicode="&#xc8;" horiz-adv-x="753" d="M70 0v1159h614v-67h-545v-512h340v-68h-340v-444h545v-68h-614zM274 1366l68 68l137 -170l-35 -35z" />
<glyph unicode="&#xc9;" horiz-adv-x="753" d="M70 0v1159h614v-67h-545v-512h340v-68h-340v-444h545v-68h-614zM274 1264l138 170l67 -68l-170 -137z" />
<glyph unicode="&#xca;" horiz-adv-x="753" d="M70 0v1159h614v-67h-545v-512h340v-68h-340v-444h545v-68h-614zM207 1296l170 138l170 -138l-68 -67l-102 127l-103 -127z" />
<glyph unicode="&#xcb;" horiz-adv-x="753" d="M70 0v1159h614v-67h-545v-512h340v-68h-340v-444h545v-68h-614zM139 1296q0 18 8 33q6 12 19.5 23.5t40.5 11.5q25 0 39 -11.5t20 -23.5q8 -14 8 -33q0 -20 -8 -34q-6 -12 -20.5 -22.5t-38.5 -10.5q-27 0 -40 10t-20 23q-8 14 -8 34zM479 1296q0 18 8 33q6 12 20.5 23.5 t41.5 11.5q25 0 39 -11.5t20 -23.5q8 -14 8 -33q0 -20 -8 -34q-6 -12 -20.5 -22.5t-38.5 -10.5q-27 0 -41 10t-21 23q-8 14 -8 34z" />
<glyph unicode="&#xcc;" horiz-adv-x="548" d="M70 0v68h172v1024h-172v67h409v-67h-170v-1024h170v-68h-409zM172 1366l68 68l137 -170l-35 -35z" />
<glyph unicode="&#xcd;" horiz-adv-x="548" d="M70 0v68h172v1024h-172v67h409v-67h-170v-1024h170v-68h-409zM172 1264l137 170l68 -68l-170 -137z" />
<glyph unicode="&#xce;" horiz-adv-x="548" d="M70 0v68h172v1024h-172v67h409v-67h-170v-1024h170v-68h-409zM104 1296l170 138l170 -138l-67 -67l-103 127l-102 -127z" />
<glyph unicode="&#xcf;" horiz-adv-x="616" d="M70 1296q0 18 8 33q6 12 19 23.5t40 11.5q25 0 39 -11.5t21 -23.5q8 -14 8 -33q0 -20 -8 -34q-6 -12 -20.5 -22.5t-39.5 -10.5q-27 0 -40 10t-19 23q-8 14 -8 34zM102 0v68h172v1024h-172v67h410v-67h-170v-1024h170v-68h-410zM410 1296q0 18 8 33q6 12 20 23.5t41 11.5 q25 0 39 -11.5t21 -23.5q8 -14 8 -33q0 -20 -8 -34q-6 -12 -20.5 -22.5t-39.5 -10.5q-27 0 -41 10t-20 23q-8 14 -8 34z" />
<glyph unicode="&#xd0;" horiz-adv-x="890" d="M2 512v68h137v579h205q152 -8 272 -76q51 -29 99.5 -72.5t87.5 -109t62.5 -152.5t23.5 -202q0 -102 -23.5 -181t-62.5 -136.5t-87 -97.5t-100 -64q-121 -59 -272 -68h-205v512h-137zM207 68h137q133 6 238 59q45 23 88 57.5t76.5 84.5t54 119t20.5 159q0 102 -20.5 180 t-54 135.5t-76.5 97t-88 64.5q-104 59 -238 68h-137v-512h137v-68h-137v-444z" />
<glyph unicode="&#xd1;" horiz-adv-x="888" d="M70 0v1159h67q100 -166 193.5 -321.5t173.5 -290.5t143.5 -244.5t104.5 -181.5v1038h67v-1159h-67q-92 150 -183.5 301.5t-173.5 289.5t-148.5 254t-109.5 193v-1038h-67zM172 1229q2 47 21 84q16 33 49.5 59.5t99.5 26.5q39 0 65.5 -16.5t49 -35t44 -35t46.5 -16.5 q39 0 59.5 15.5t30.5 36.5q10 23 12 51h68q-2 -49 -21 -86q-16 -33 -51 -58.5t-98 -25.5q-39 0 -65.5 16.5t-49 34.5t-44 34.5t-46.5 16.5q-39 0 -59.5 -16.5t-30.5 -34.5q-10 -23 -12 -51h-68z" />
<glyph unicode="&#xd2;" horiz-adv-x="888" d="M70 340v410q6 115 47 204q18 39 44.5 76t65.5 65.5t92 46t125 17.5q70 0 123.5 -17.5t93 -46t66.5 -65.5t45 -76q41 -90 47 -204v-410q-6 -96 -47 -170q-18 -33 -45 -63.5t-66.5 -54t-93 -38t-123.5 -14.5q-72 0 -125 14.5t-92 38t-65.5 54t-44.5 63.5q-41 74 -47 170z M137 340q4 -78 39 -137q29 -51 91.5 -93t176.5 -42q115 0 177.5 42t91.5 93q35 59 39 137v410q-4 94 -39 170q-14 33 -37 63.5t-54.5 55t-75.5 39t-102 14.5q-57 0 -101 -14.5t-75.5 -39t-54.5 -55.5t-37 -63q-35 -76 -39 -170v-410zM342 1366l68 68l137 -170l-35 -35z" />
<glyph unicode="&#xd3;" horiz-adv-x="888" d="M70 340v410q6 115 47 204q18 39 44.5 76t65.5 65.5t92 46t125 17.5q70 0 123.5 -17.5t93 -46t66.5 -65.5t45 -76q41 -90 47 -204v-410q-6 -96 -47 -170q-18 -33 -45 -63.5t-66.5 -54t-93 -38t-123.5 -14.5q-72 0 -125 14.5t-92 38t-65.5 54t-44.5 63.5q-41 74 -47 170z M137 340q4 -78 39 -137q29 -51 91.5 -93t176.5 -42q115 0 177.5 42t91.5 93q35 59 39 137v410q-4 94 -39 170q-14 33 -37 63.5t-54.5 55t-75.5 39t-102 14.5q-57 0 -101 -14.5t-75.5 -39t-54.5 -55.5t-37 -63q-35 -76 -39 -170v-410zM342 1264l137 170l68 -68l-170 -137z " />
<glyph unicode="&#xd4;" horiz-adv-x="888" d="M70 340v410q6 115 47 204q18 39 44.5 76t65.5 65.5t92 46t125 17.5q70 0 123.5 -17.5t93 -46t66.5 -65.5t45 -76q41 -90 47 -204v-410q-6 -96 -47 -170q-18 -33 -45 -63.5t-66.5 -54t-93 -38t-123.5 -14.5q-72 0 -125 14.5t-92 38t-65.5 54t-44.5 63.5q-41 74 -47 170z M137 340q4 -78 39 -137q29 -51 91.5 -93t176.5 -42q115 0 177.5 42t91.5 93q35 59 39 137v410q-4 94 -39 170q-14 33 -37 63.5t-54.5 55t-75.5 39t-102 14.5q-57 0 -101 -14.5t-75.5 -39t-54.5 -55.5t-37 -63q-35 -76 -39 -170v-410zM274 1296l170 138l170 -138l-67 -67 l-103 127l-102 -127z" />
<glyph unicode="&#xd5;" horiz-adv-x="888" d="M70 340v410q6 115 47 204q18 39 44.5 76t65.5 65.5t92 46t125 17.5q70 0 123.5 -17.5t93 -46t66.5 -65.5t45 -76q41 -90 47 -204v-410q-6 -96 -47 -170q-18 -33 -45 -63.5t-66.5 -54t-93 -38t-123.5 -14.5q-72 0 -125 14.5t-92 38t-65.5 54t-44.5 63.5q-41 74 -47 170z M137 340q4 -78 39 -137q29 -51 91.5 -93t176.5 -42q115 0 177.5 42t91.5 93q35 59 39 137v410q-4 94 -39 170q-14 33 -37 63.5t-54.5 55t-75.5 39t-102 14.5q-57 0 -101 -14.5t-75.5 -39t-54.5 -55.5t-37 -63q-35 -76 -39 -170v-410zM172 1229q2 47 21 84q16 33 49.5 59.5 t99.5 26.5q39 0 65.5 -16.5t49 -35t44 -35t46.5 -16.5q39 0 59.5 15.5t30.5 36.5q10 23 12 51h68q-2 -49 -21 -86q-16 -33 -51 -58.5t-98 -25.5q-39 0 -65.5 16.5t-49 34.5t-44 34.5t-46.5 16.5q-39 0 -59.5 -16.5t-30.5 -34.5q-10 -23 -12 -51h-68z" />
<glyph unicode="&#xd6;" horiz-adv-x="888" d="M70 340v410q6 115 47 204q18 39 44.5 76t65.5 65.5t92 46t125 17.5q70 0 123.5 -17.5t93 -46t66.5 -65.5t45 -76q41 -90 47 -204v-410q-6 -96 -47 -170q-18 -33 -45 -63.5t-66.5 -54t-93 -38t-123.5 -14.5q-72 0 -125 14.5t-92 38t-65.5 54t-44.5 63.5q-41 74 -47 170z M137 340q4 -78 39 -137q29 -51 91.5 -93t176.5 -42q115 0 177.5 42t91.5 93q35 59 39 137v410q-4 94 -39 170q-14 33 -37 63.5t-54.5 55t-75.5 39t-102 14.5q-57 0 -101 -14.5t-75.5 -39t-54.5 -55.5t-37 -63q-35 -76 -39 -170v-410zM205 1296q0 18 8 33q6 12 19 23.5 t40 11.5q25 0 39.5 -11.5t20.5 -23.5q8 -14 8 -33q0 -20 -8 -34q-6 -12 -20.5 -22.5t-39.5 -10.5q-27 0 -40 10t-19 23q-8 14 -8 34zM545 1296q0 18 8 33q6 12 20 23.5t41 11.5q25 0 39.5 -11.5t20.5 -23.5q8 -14 8 -33q0 -20 -8 -34q-6 -12 -20.5 -22.5t-39.5 -10.5 q-27 0 -41 10t-20 23q-8 14 -8 34z" />
<glyph unicode="&#xd7;" horiz-adv-x="503" d="M35 377l170 170l-168 168l47 47l168 -168l168 168l47 -47l-168 -168l170 -170l-47 -47l-170 168l-170 -168z" />
<glyph unicode="&#xd8;" horiz-adv-x="888" d="M35 100q4 0 22.5 22.5t51.5 63.5q-16 29 -23.5 57.5t-11.5 51.5q-4 25 -4 47v410q6 113 47 202q18 39 44.5 76t65.5 65.5t92.5 46t124.5 17.5q117 0 187.5 -45t111.5 -106q66 84 76 84l33 -35q-4 0 -25.5 -25.5t-56.5 -70.5q18 -41 28.5 -78t14.5 -66q6 -35 6 -65v-410 q-6 -96 -47 -172q-18 -33 -45 -63.5t-66.5 -54t-93 -38t-123.5 -14.5q-123 0 -195.5 42t-113.5 97q-29 -33 -45 -51t-20 -18zM35 100v2v-2zM137 342q0 -14 2 -29q2 -12 6.5 -29.5t12.5 -35.5q55 70 124.5 163t143.5 190t145.5 189.5t126.5 161.5q-33 55 -92 97.5t-162 42.5 q-57 0 -101 -14.5t-75.5 -39t-54.5 -55.5t-37 -61q-35 -76 -39 -170v-410zM182 197q29 -49 90.5 -88t171.5 -39q115 0 177.5 42t91.5 93q35 59 39 137v410q0 23 -4 45q-4 20 -10.5 46.5t-16.5 55.5q-57 -74 -128 -167t-144.5 -189.5t-143 -187.5t-123.5 -158zM852 1057h2h-2 z" />
<glyph unicode="&#xd9;" horiz-adv-x="888" d="M70 340v819h67v-819q4 -78 39 -137q29 -51 91.5 -93t176.5 -42q115 0 177.5 42t91.5 93q35 59 39 137v819h67v-819q-6 -96 -47 -170q-18 -33 -45 -63.5t-66.5 -54t-93 -38t-123.5 -14.5q-72 0 -125 14.5t-92 38t-65.5 54t-44.5 63.5q-41 74 -47 170zM342 1366l68 68 l137 -170l-35 -35z" />
<glyph unicode="&#xda;" horiz-adv-x="888" d="M70 340v819h67v-819q4 -78 39 -137q29 -51 91.5 -93t176.5 -42q115 0 177.5 42t91.5 93q35 59 39 137v819h67v-819q-6 -96 -47 -170q-18 -33 -45 -63.5t-66.5 -54t-93 -38t-123.5 -14.5q-72 0 -125 14.5t-92 38t-65.5 54t-44.5 63.5q-41 74 -47 170zM342 1264l137 170 l68 -68l-170 -137z" />
<glyph unicode="&#xdb;" horiz-adv-x="888" d="M70 340v819h67v-819q4 -78 39 -137q29 -51 91.5 -93t176.5 -42q115 0 177.5 42t91.5 93q35 59 39 137v819h67v-819q-6 -96 -47 -170q-18 -33 -45 -63.5t-66.5 -54t-93 -38t-123.5 -14.5q-72 0 -125 14.5t-92 38t-65.5 54t-44.5 63.5q-41 74 -47 170zM274 1296l170 138 l170 -138l-67 -67l-103 127l-102 -127z" />
<glyph unicode="&#xdc;" horiz-adv-x="888" d="M70 340v819h67v-819q4 -78 39 -137q29 -51 91.5 -93t176.5 -42q115 0 177.5 42t91.5 93q35 59 39 137v819h67v-819q-6 -96 -47 -170q-18 -33 -45 -63.5t-66.5 -54t-93 -38t-123.5 -14.5q-72 0 -125 14.5t-92 38t-65.5 54t-44.5 63.5q-41 74 -47 170zM207 1296q0 18 8 33 q6 12 19 23.5t40 11.5q25 0 39.5 -11.5t20.5 -23.5q8 -14 8 -33q0 -20 -8 -34q-6 -12 -20.5 -22.5t-39.5 -10.5q-27 0 -40 10t-19 23q-8 14 -8 34zM547 1296q0 18 8 33q6 12 20 23.5t41 11.5q25 0 39.5 -11.5t20.5 -23.5q8 -14 8 -33q0 -20 -8 -34q-6 -12 -20.5 -22.5 t-39.5 -10.5q-27 0 -41 10t-20 23q-8 14 -8 34z" />
<glyph unicode="&#xdd;" horiz-adv-x="686" d="M2 1159h68l272 -545l272 545h70l-307 -614v-545h-68v545zM240 1264l137 170l67 -68l-170 -137z" />
<glyph unicode="&#xde;" horiz-adv-x="786" d="M70 0v1159h67v-272h273q86 -6 153 -43q57 -33 105.5 -101.5t48.5 -195.5q0 -57 -14.5 -101.5t-39 -76t-55 -54t-61.5 -36.5q-76 -35 -170 -39h-240v-240h-67zM137 307h240q76 4 135 31q51 23 94 71t43 138q0 102 -38 156.5t-83 80.5q-53 31 -118 35h-273v-512z" />
<glyph unicode="&#xdf;" horiz-adv-x="888" d="M70 647v70h135v135q4 86 39 154q29 57 91 105t177 48t177.5 -48t90.5 -105q35 -68 39 -154q-2 -57 -20 -102q-16 -39 -51 -71t-99 -32q-27 0 -41 -11t-20 -24q-8 -14 -8 -32q0 -20 8 -35q6 -12 20 -22.5t41 -10.5q88 0 136.5 -38t70.5 -83q25 -53 31 -119 q-4 -78 -35 -137q-27 -51 -81 -93t-157 -42q-102 0 -156.5 42t-80.5 93q-31 59 -35 137h68q2 -57 24 -102q18 -39 60.5 -70.5t119.5 -31.5q78 0 118 31.5t61 70.5q23 45 26 102q-2 49 -20 86q-16 33 -51 59.5t-99 26.5q-53 0 -80.5 20.5t-40.5 47.5q-14 29 -16 68 q2 37 16 67q12 27 40 48.5t81 21.5q39 0 59.5 20.5t30.5 46.5q10 29 13 68q-4 66 -31 119q-23 45 -71 83t-138 38q-92 0 -139 -38t-70 -83q-25 -53 -29 -119h-2v-852h-67v647h-135z" />
<glyph unicode="&#xe0;" horiz-adv-x="753" d="M70 307v205q4 86 39 154q29 57 91 105t177 48q92 0 148.5 -31.5t90.5 -74.5v106h68v-819h-68v106q-35 -43 -91 -74.5t-148 -31.5q-115 0 -177.5 47t-90.5 107q-35 68 -39 153zM137 307q4 -68 31 -121q23 -45 71 -81.5t138 -36.5t138 36.5t71 81.5q27 53 30 121v205 q-4 66 -30 119q-23 45 -71 83t-138 38t-138.5 -38t-70.5 -83q-27 -53 -31 -119v-205zM276 1024l68 68l137 -170l-35 -35z" />
<glyph unicode="&#xe1;" horiz-adv-x="753" d="M70 307v205q4 86 39 154q29 57 91 105t177 48q92 0 148.5 -31.5t90.5 -74.5v106h68v-819h-68v106q-35 -43 -91 -74.5t-148 -31.5q-115 0 -177.5 47t-90.5 107q-35 68 -39 153zM137 307q4 -68 31 -121q23 -45 71 -81.5t138 -36.5t138 36.5t71 81.5q27 53 30 121v205 q-4 66 -30 119q-23 45 -71 83t-138 38t-138.5 -38t-70.5 -83q-27 -53 -31 -119v-205zM274 922l138 170l67 -68l-170 -137z" />
<glyph unicode="&#xe2;" horiz-adv-x="753" d="M70 307v205q4 86 39 154q29 57 91 105t177 48q92 0 148.5 -31.5t90.5 -74.5v106h68v-819h-68v106q-35 -43 -91 -74.5t-148 -31.5q-115 0 -177.5 47t-90.5 107q-35 68 -39 153zM137 307q4 -68 31 -121q23 -45 71 -81.5t138 -36.5t138 36.5t71 81.5q27 53 30 121v205 q-4 66 -30 119q-23 45 -71 83t-138 38t-138.5 -38t-70.5 -83q-27 -53 -31 -119v-205zM207 954l170 138l170 -138l-68 -67l-102 127l-103 -127z" />
<glyph unicode="&#xe3;" horiz-adv-x="753" d="M70 307v205q4 86 39 154q29 57 91 105t177 48q92 0 148.5 -31.5t90.5 -74.5v106h68v-819h-68v106q-35 -43 -91 -74.5t-148 -31.5q-115 0 -177.5 47t-90.5 107q-35 68 -39 153zM104 887q2 47 21 84q16 33 50 59.5t99 26.5q39 0 66 -16.5t49.5 -35t44 -35t45.5 -16.5 q39 0 59.5 15.5t30.5 36.5q10 23 13 51h67q-2 -49 -20 -86q-16 -33 -51 -58.5t-99 -25.5q-39 0 -65.5 16.5t-49 34.5t-44 34.5t-46.5 16.5q-39 0 -59 -16.5t-31 -34.5q-10 -23 -12 -51h-68zM137 307q4 -68 31 -121q23 -45 71 -81.5t138 -36.5t138 36.5t71 81.5q27 53 30 121 v205q-4 66 -30 119q-23 45 -71 83t-138 38t-138.5 -38t-70.5 -83q-27 -53 -31 -119v-205z" />
<glyph unicode="&#xe4;" horiz-adv-x="753" d="M70 307v205q4 86 39 154q29 57 91 105t177 48q92 0 148.5 -31.5t90.5 -74.5v106h68v-819h-68v106q-35 -43 -91 -74.5t-148 -31.5q-115 0 -177.5 47t-90.5 107q-35 68 -39 153zM137 307q4 -68 31 -121q23 -45 71 -81.5t138 -36.5t138 36.5t71 81.5q27 53 30 121v205 q-4 66 -30 119q-23 45 -71 83t-138 38t-138.5 -38t-70.5 -83q-27 -53 -31 -119v-205zM139 954q0 18 8 33q6 12 19.5 23.5t40.5 11.5q25 0 39 -11.5t20 -23.5q8 -14 8 -33q0 -20 -8 -34q-6 -12 -20.5 -22.5t-38.5 -10.5q-27 0 -40 10t-20 23q-8 14 -8 34zM479 954q0 18 8 33 q6 12 20.5 23.5t41.5 11.5q25 0 39 -11.5t20 -23.5q8 -14 8 -33q0 -20 -8 -34q-6 -12 -20.5 -22.5t-38.5 -10.5q-27 0 -41 10t-21 23q-8 14 -8 34z" />
<glyph unicode="&#xe5;" horiz-adv-x="753" d="M70 307v205q4 86 39 154q29 57 91 105t177 48q92 0 148.5 -31.5t90.5 -74.5v106h68v-819h-68v106q-35 -43 -91 -74.5t-148 -31.5q-115 0 -177.5 47t-90.5 107q-35 68 -39 153zM137 307q4 -68 31 -121q23 -45 71 -81.5t138 -36.5t138 36.5t71 81.5q27 53 30 121v205 q-4 66 -30 119q-23 45 -71 83t-138 38t-138.5 -38t-70.5 -83q-27 -53 -31 -119v-205zM240 1022q2 37 16 68q12 27 40 48t81 21q51 0 79.5 -21.5t41.5 -47.5q14 -31 16 -68q-2 -39 -16 -68q-12 -27 -41 -47t-80 -20q-53 0 -81 20.5t-40 46.5q-14 29 -16 68zM309 1022 q0 -20 8 -35q6 -12 19.5 -22.5t40.5 -10.5q25 0 39 10.5t20 22.5q8 14 8 35q0 18 -8 35q-6 12 -20.5 23.5t-38.5 11.5q-27 0 -40 -11.5t-20 -23.5q-8 -16 -8 -35z" />
<glyph unicode="&#xe6;" horiz-adv-x="1300" d="M70 307v137h546v68q-4 66 -30 119q-23 45 -71 83t-138 38t-138.5 -38t-70.5 -83q-27 -53 -31 -119h-67q4 86 39 154q29 57 91 105t177 48q59 0 104 -14t78 -38t54.5 -52.5t35.5 -59.5q14 31 36 59.5t55.5 52.5t79 38t104.5 14q115 0 177 -48t91 -105q35 -68 39 -154v-135 h-547v-70q4 -66 31 -119q23 -45 71 -81.5t138 -36.5t137 36.5t69 81.5q25 53 31 119h70q-4 -86 -39 -153q-29 -59 -91.5 -106.5t-176.5 -47.5q-59 0 -104.5 14.5t-79 38t-55 52t-36.5 59.5q-14 -31 -35.5 -59.5t-54.5 -52t-78 -38t-104 -14.5q-115 0 -177.5 47t-90.5 107 q-35 68 -39 153zM137 307q4 -66 31 -119q23 -45 71 -81.5t138 -36.5t138 36.5t71 81.5q27 53 30 119v70h-479v-70zM684 444h477v68q-6 66 -31 119q-23 45 -70.5 83t-135.5 38q-90 0 -138.5 -38t-70.5 -83q-27 -53 -31 -119v-68z" />
<glyph unicode="&#xe7;" horiz-adv-x="753" d="M70 307v205q4 86 39 154q29 57 91 105t177 48t177 -48t91 -105q35 -68 39 -154h-68q-4 66 -30 119q-23 45 -71 83t-138 38t-138.5 -38t-70.5 -83q-27 -53 -29 -119v-205q4 -66 29 -119q23 -45 69 -81.5t134 -38.5h8q90 0 137 36.5t70 81.5q25 53 30 121h68 q-4 -86 -39 -153q-29 -59 -91 -106.5t-177 -47.5h-2q-4 0 -15.5 -2t-22.5 -9t-19.5 -21.5t-8.5 -37.5q0 -27 10.5 -40t24.5 -19q14 -8 35 -8h135q37 -2 68 -17q27 -12 48 -40.5t21 -79.5q0 -53 -21.5 -81t-47.5 -40q-31 -14 -68 -17h-340v70h340q18 0 35 8q12 6 23.5 19.5 t11.5 40.5q0 25 -11.5 39t-23.5 20q-16 8 -35 8h-135q-39 2 -70 17q-27 12 -47 39.5t-20 80.5t24 84q-74 23 -113.5 72t-58.5 98q-23 57 -24 123z" />
<glyph unicode="&#xe8;" horiz-adv-x="753" d="M70 307v205q4 86 39 154q29 57 91 105t177 48t177 -48t91 -105q35 -68 39 -154v-137h-545v-68q2 -68 29 -121q23 -45 71 -81.5t138 -36.5t138 36.5t71 81.5q27 53 30 121h68q-4 -86 -39 -153q-29 -59 -91 -106.5t-177 -47.5t-177.5 47t-90.5 107q-35 68 -39 153zM139 444 h477v68q-4 66 -30 119q-23 45 -71 83t-138 38t-138.5 -38t-70.5 -83q-27 -53 -29 -119v-68zM274 1024l68 68l137 -170l-35 -35z" />
<glyph unicode="&#xe9;" horiz-adv-x="753" d="M70 307v205q4 86 39 154q29 57 91 105t177 48t177 -48t91 -105q35 -68 39 -154v-137h-545v-68q2 -68 29 -121q23 -45 71 -81.5t138 -36.5t138 36.5t71 81.5q27 53 30 121h68q-4 -86 -39 -153q-29 -59 -91 -106.5t-177 -47.5t-177.5 47t-90.5 107q-35 68 -39 153zM139 444 h477v68q-4 66 -30 119q-23 45 -71 83t-138 38t-138.5 -38t-70.5 -83q-27 -53 -29 -119v-68zM274 922l138 170l67 -68l-170 -137z" />
<glyph unicode="&#xea;" horiz-adv-x="753" d="M70 307v205q4 86 39 154q29 57 91 105t177 48t177 -48t91 -105q35 -68 39 -154v-137h-545v-68q2 -68 29 -121q23 -45 71 -81.5t138 -36.5t138 36.5t71 81.5q27 53 30 121h68q-4 -86 -39 -153q-29 -59 -91 -106.5t-177 -47.5t-177.5 47t-90.5 107q-35 68 -39 153zM139 444 h477v68q-4 66 -30 119q-23 45 -71 83t-138 38t-138.5 -38t-70.5 -83q-27 -53 -29 -119v-68zM207 954l170 138l170 -138l-68 -67l-102 127l-103 -127z" />
<glyph unicode="&#xeb;" horiz-adv-x="753" d="M70 307v205q4 86 39 154q29 57 91 105t177 48t177 -48t91 -105q35 -68 39 -154v-137h-545v-68q2 -68 29 -121q23 -45 71 -81.5t138 -36.5t138 36.5t71 81.5q27 53 30 121h68q-4 -86 -39 -153q-29 -59 -91 -106.5t-177 -47.5t-177.5 47t-90.5 107q-35 68 -39 153zM139 444 h477v68q-4 66 -30 119q-23 45 -71 83t-138 38t-138.5 -38t-70.5 -83q-27 -53 -29 -119v-68zM139 954q0 18 8 33q6 12 19.5 23.5t40.5 11.5q25 0 39 -11.5t20 -23.5q8 -14 8 -33q0 -20 -8 -34q-6 -12 -20.5 -22.5t-38.5 -10.5q-27 0 -40 10t-20 23q-8 14 -8 34zM479 954 q0 18 8 33q6 12 20.5 23.5t41.5 11.5q25 0 39 -11.5t20 -23.5q8 -14 8 -33q0 -20 -8 -34q-6 -12 -20.5 -22.5t-38.5 -10.5q-27 0 -41 10t-21 23q-8 14 -8 34z" />
<glyph unicode="&#xec;" horiz-adv-x="243" d="M2 1024l68 68l137 -170l-35 -35zM37 752v67h137v-819h-70v752h-67z" />
<glyph unicode="&#xed;" horiz-adv-x="243" d="M2 922l137 170l68 -68l-170 -137zM37 752v67h137v-819h-70v752h-67z" />
<glyph unicode="&#xee;" horiz-adv-x="243" d="M-66 954l170 138l170 -138l-67 -67l-103 127l-102 -127zM37 752v67h137v-819h-70v752h-67z" />
<glyph unicode="&#xef;" horiz-adv-x="243" d="M-98 954q0 18 8 33q6 12 19 23.5t40 11.5q25 0 39.5 -11.5t20.5 -23.5q8 -14 8 -33q0 -20 -8 -34q-6 -12 -20.5 -22.5t-39.5 -10.5q-27 0 -40 10t-19 23q-8 14 -8 34zM37 752v67h137v-819h-70v752h-67zM174 954q0 18 8 33q6 12 20.5 23.5t41.5 11.5q25 0 39 -11.5 t20 -23.5q8 -14 8 -33q0 -20 -8 -34q-6 -12 -20.5 -22.5t-38.5 -10.5q-27 0 -41.5 10t-20.5 23q-8 14 -8 34z" />
<glyph unicode="&#xf0;" horiz-adv-x="786" d="M70 307v205q4 86 39 154q29 57 91 105t177 48q92 0 148.5 -31.5t88.5 -74.5v174h-170v67h162q-16 51 -49 80t-65 41q-39 14 -82 17v67q63 -4 116 -26q47 -20 90 -60.5t60 -118.5h108v-67h-100v-580q-4 -86 -39 -153q-29 -59 -91 -106.5t-177 -47.5t-177.5 47t-90.5 107 q-35 68 -39 153zM137 307q4 -68 31 -121q23 -45 71 -81.5t138 -36.5t137 36.5t70 81.5q25 53 30 121v205q-6 66 -30 119q-23 45 -70 82t-137 37t-138.5 -37t-70.5 -82q-27 -53 -31 -119v-205z" />
<glyph unicode="&#xf1;" horiz-adv-x="686" d="M70 0v819h67v-96q31 41 80 68.5t125 27.5q102 0 157.5 -48t82.5 -105q31 -68 34 -154v-512h-69v512q-4 66 -27 119q-20 45 -60 83t-118 38t-120 -38t-60 -83q-23 -53 -25 -119v-512h-67zM70 887q2 47 20 84q16 33 50 59.5t100 26.5q39 0 65.5 -16.5t49 -35t44 -35 t45.5 -16.5q39 0 59.5 15.5t31.5 36.5q10 23 12 51h67q-2 -49 -20 -86q-16 -33 -51 -58.5t-99 -25.5q-39 0 -65.5 16.5t-49 34.5t-44 34.5t-45.5 16.5q-39 0 -59.5 -16.5t-30.5 -34.5q-10 -23 -13 -51h-67z" />
<glyph unicode="&#xf2;" horiz-adv-x="753" d="M70 307v205q4 86 39 154q29 57 91 105t177 48t177 -48t91 -105q35 -68 39 -154v-205q-4 -86 -39 -153q-29 -59 -91 -106.5t-177 -47.5t-177.5 47t-90.5 107q-35 68 -39 153zM139 307q2 -68 29 -121q23 -45 71 -81.5t138 -36.5t138 36.5t71 81.5q27 53 30 121v205 q-4 66 -30 119q-23 45 -71 83t-138 38t-138.5 -38t-70.5 -83q-27 -53 -29 -119v-205zM274 1024l68 68l137 -170l-35 -35z" />
<glyph unicode="&#xf3;" horiz-adv-x="753" d="M70 307v205q4 86 39 154q29 57 91 105t177 48t177 -48t91 -105q35 -68 39 -154v-205q-4 -86 -39 -153q-29 -59 -91 -106.5t-177 -47.5t-177.5 47t-90.5 107q-35 68 -39 153zM139 307q2 -68 29 -121q23 -45 71 -81.5t138 -36.5t138 36.5t71 81.5q27 53 30 121v205 q-4 66 -30 119q-23 45 -71 83t-138 38t-138.5 -38t-70.5 -83q-27 -53 -29 -119v-205zM274 922l138 170l67 -68l-170 -137z" />
<glyph unicode="&#xf4;" horiz-adv-x="753" d="M70 307v205q4 86 39 154q29 57 91 105t177 48t177 -48t91 -105q35 -68 39 -154v-205q-4 -86 -39 -153q-29 -59 -91 -106.5t-177 -47.5t-177.5 47t-90.5 107q-35 68 -39 153zM139 307q2 -68 29 -121q23 -45 71 -81.5t138 -36.5t138 36.5t71 81.5q27 53 30 121v205 q-4 66 -30 119q-23 45 -71 83t-138 38t-138.5 -38t-70.5 -83q-27 -53 -29 -119v-205zM207 954l170 138l170 -138l-68 -67l-102 127l-103 -127z" />
<glyph unicode="&#xf5;" horiz-adv-x="753" d="M70 307v205q4 86 39 154q29 57 91 105t177 48t177 -48t91 -105q35 -68 39 -154v-205q-4 -86 -39 -153q-29 -59 -91 -106.5t-177 -47.5t-177.5 47t-90.5 107q-35 68 -39 153zM104 887q2 47 21 84q16 33 50 59.5t99 26.5q39 0 66 -16.5t49.5 -35t44 -35t45.5 -16.5 q39 0 59.5 15.5t30.5 36.5q10 23 13 51h67q-2 -49 -20 -86q-16 -33 -51 -58.5t-99 -25.5q-39 0 -65.5 16.5t-49 34.5t-44 34.5t-46.5 16.5q-39 0 -59 -16.5t-31 -34.5q-10 -23 -12 -51h-68zM139 307q2 -68 29 -121q23 -45 71 -81.5t138 -36.5t138 36.5t71 81.5q27 53 30 121 v205q-4 66 -30 119q-23 45 -71 83t-138 38t-138.5 -38t-70.5 -83q-27 -53 -29 -119v-205z" />
<glyph unicode="&#xf6;" horiz-adv-x="753" d="M70 307v205q4 86 39 154q29 57 91 105t177 48t177 -48t91 -105q35 -68 39 -154v-205q-4 -86 -39 -153q-29 -59 -91 -106.5t-177 -47.5t-177.5 47t-90.5 107q-35 68 -39 153zM139 307q2 -68 29 -121q23 -45 71 -81.5t138 -36.5t138 36.5t71 81.5q27 53 30 121v205 q-4 66 -30 119q-23 45 -71 83t-138 38t-138.5 -38t-70.5 -83q-27 -53 -29 -119v-205zM139 954q0 18 8 33q6 12 19.5 23.5t40.5 11.5q25 0 39 -11.5t20 -23.5q8 -14 8 -33q0 -20 -8 -34q-6 -12 -20.5 -22.5t-38.5 -10.5q-27 0 -40 10t-20 23q-8 14 -8 34zM479 954q0 18 8 33 q6 12 20.5 23.5t41.5 11.5q25 0 39 -11.5t20 -23.5q8 -14 8 -33q0 -20 -8 -34q-6 -12 -20.5 -22.5t-38.5 -10.5q-27 0 -41 10t-21 23q-8 14 -8 34z" />
<glyph unicode="&#xf7;" horiz-adv-x="614" d="M35 512v68h545v-68h-545zM240 309q0 18 8 33q6 12 19 23.5t40 11.5t41 -11.5t21 -23.5q8 -14 8 -33q0 -20 -8 -35q-6 -12 -20.5 -22t-41.5 -10t-40 10t-19 22q-8 14 -8 35zM240 784q0 18 8 33q6 12 19 23.5t40 11.5t41 -11.5t21 -23.5q8 -14 8 -33q0 -20 -8 -34 q-6 -12 -20.5 -22.5t-41.5 -10.5t-40 10t-19 23q-8 14 -8 34z" />
<glyph unicode="&#xf8;" horiz-adv-x="753" d="M70 100q4 0 45 41q-16 29 -25.5 59.5t-13.5 53.5q-6 27 -6 51v205q4 86 39 154q29 57 91 105t177 48q88 0 144 -29.5t91 -70.5q29 33 37 33l33 -35q-6 0 -43 -41q16 -31 25.5 -60.5t13.5 -52.5q6 -27 6 -51v-205q-4 -86 -39 -153q-29 -57 -91 -104.5t-177 -47.5 q-88 0 -144.5 29.5t-91.5 70.5q-29 -33 -37 -32zM70 100v2v-2zM137 305q0 -14 4 -33q4 -16 8.5 -34.5t14.5 -40.5q41 47 94 109.5t107.5 127t105.5 126t92 106.5q-27 35 -70.5 59.5t-115.5 24.5q-90 0 -138.5 -38t-70.5 -83q-27 -53 -31 -119v-205zM190 152q25 -35 70 -59.5 t117 -24.5q90 0 138 36.5t71 81.5q27 53 30 119v205q0 14 -4 33q-4 16 -8 35.5t-14 42.5q-41 -47 -94.5 -109.5t-107.5 -127.5t-106.5 -126t-91.5 -106zM682 715h2h-2z" />
<glyph unicode="&#xf9;" horiz-adv-x="686" d="M70 307v512h67v-512q2 -68 25 -121q18 -45 60 -81.5t120 -36.5t118 36.5t60 81.5q23 53 27 121v512h69v-819h-69v94q-29 -39 -78 -66.5t-127 -27.5q-102 0 -156.5 47t-81.5 107q-31 68 -34 153zM240 1024l67 68l137 -170l-34 -35z" />
<glyph unicode="&#xfa;" horiz-adv-x="686" d="M70 307v512h67v-512q2 -68 25 -121q18 -45 60 -81.5t120 -36.5t118 36.5t60 81.5q23 53 27 121v512h69v-819h-69v94q-29 -39 -78 -66.5t-127 -27.5q-102 0 -156.5 47t-81.5 107q-31 68 -34 153zM240 922l137 170l67 -68l-170 -137z" />
<glyph unicode="&#xfb;" horiz-adv-x="686" d="M70 307v512h67v-512q2 -68 25 -121q18 -45 60 -81.5t120 -36.5t118 36.5t60 81.5q23 53 27 121v512h69v-819h-69v94q-29 -39 -78 -66.5t-127 -27.5q-102 0 -156.5 47t-81.5 107q-31 68 -34 153zM172 954l170 138l170 -138l-68 -67l-102 127l-102 -127z" />
<glyph unicode="&#xfc;" horiz-adv-x="686" d="M70 307v512h67v-512q2 -68 25 -121q18 -45 60 -81.5t120 -36.5t118 36.5t60 81.5q23 53 27 121v512h69v-819h-69v94q-29 -39 -78 -66.5t-127 -27.5q-102 0 -156.5 47t-81.5 107q-31 68 -34 153zM104 954q0 18 9 33q6 12 19 23.5t40 11.5q25 0 39 -11.5t20 -23.5 q8 -14 9 -33q0 -20 -9 -34q-6 -12 -20 -22.5t-39 -10.5q-27 0 -40 10t-19 23q-8 14 -9 34zM444 954q0 18 9 33q6 12 20 23.5t41 11.5q25 0 39 -11.5t20 -23.5q8 -14 9 -33q0 -20 -9 -34q-6 -12 -20 -22.5t-39 -10.5q-27 0 -41 10t-20 23q-8 14 -9 34z" />
<glyph unicode="&#xfd;" horiz-adv-x="753" d="M70 819h67l240 -717l239 717h68l-272 -819l-150 -412h-67l147 412zM274 922l138 170l67 -68l-170 -137z" />
<glyph unicode="&#xfe;" horiz-adv-x="753" d="M70 -342v1503h67v-448q35 43 91.5 74.5t148.5 31.5q115 0 177 -48t91 -105q35 -68 39 -154v-205q-4 -86 -39 -153q-29 -59 -91 -106.5t-177 -47.5q-92 0 -148.5 31.5t-91.5 74.5v-448h-67zM137 307q4 -68 31 -121q23 -45 71 -81.5t138 -36.5t138 36.5t71 81.5 q27 53 30 121v205q-4 66 -30 119q-23 45 -71 83t-138 38t-138.5 -38t-70.5 -83q-27 -53 -31 -119v-205z" />
<glyph unicode="&#xff;" horiz-adv-x="753" d="M70 819h67l240 -717l239 717h68l-272 -819l-150 -412h-67l147 412zM139 954q0 18 8 33q6 12 19.5 23.5t40.5 11.5q25 0 39 -11.5t20 -23.5q8 -14 8 -33q0 -20 -8 -34q-6 -12 -20.5 -22.5t-38.5 -10.5q-27 0 -40 10t-20 23q-8 14 -8 34zM479 954q0 18 8 33q6 12 20.5 23.5 t41.5 11.5q25 0 39 -11.5t20 -23.5q8 -14 8 -33q0 -20 -8 -34q-6 -12 -20.5 -22.5t-38.5 -10.5q-27 0 -41 10t-21 23q-8 14 -8 34z" />
<glyph unicode="&#x108;" horiz-adv-x="888" d="M70 340v410q6 115 47 204q18 39 44.5 76t65.5 65.5t92.5 46t124.5 17.5q70 0 123.5 -17.5t93 -46t66.5 -65.5t45 -76q41 -90 47 -204h-67q-4 94 -39 170q-14 33 -37 63.5t-54.5 55t-75.5 39t-102 14.5q-57 0 -101 -14.5t-75.5 -39t-54.5 -55.5t-37 -63q-35 -76 -39 -170 v-410q4 -78 39 -137q29 -51 91.5 -93t176.5 -42q115 0 177.5 42t91.5 93q35 59 39 137h67q-6 -96 -47 -170q-18 -33 -45 -63.5t-66.5 -54t-93 -38t-123.5 -14.5q-72 0 -125 14.5t-92 38t-65.5 54t-44.5 63.5q-41 74 -47 170zM274 1296l170 138l170 -138l-67 -67l-103 127 l-102 -127z" />
<glyph unicode="&#x109;" horiz-adv-x="753" d="M70 307v205q4 86 39 154q29 57 91 105t177 48t177 -48t91 -105q35 -68 39 -154h-68q-4 66 -30 119q-23 45 -71 83t-138 38t-138.5 -38t-70.5 -83q-27 -53 -29 -119v-205q2 -68 29 -121q23 -45 71 -81.5t138 -36.5t138 36.5t71 81.5q27 53 30 121h68q-4 -86 -39 -153 q-29 -59 -91 -106.5t-177 -47.5t-177.5 47t-90.5 107q-35 68 -39 153zM207 954l170 138l170 -138l-68 -67l-102 127l-103 -127z" />
<glyph unicode="&#x11c;" horiz-adv-x="888" d="M70 340v410q6 115 47 204q18 39 44.5 76t65.5 65.5t92.5 46t124.5 17.5q70 0 123.5 -17.5t93 -46t66.5 -65.5t45 -76q41 -90 47 -204h-67q-4 94 -39 170q-14 33 -37 63.5t-54.5 55t-75.5 39t-102 14.5q-57 0 -101 -14.5t-75.5 -39t-54.5 -55.5t-37 -63q-35 -76 -39 -170 v-410q4 -78 39 -137q29 -51 91.5 -93t176.5 -42q115 0 177.5 42t91.5 93q35 59 39 137v172h-340v68h407v-240q-6 -96 -47 -170q-18 -33 -45 -63.5t-66.5 -54t-93 -38t-123.5 -14.5q-72 0 -125 14.5t-92 38t-65.5 54t-44.5 63.5q-41 74 -47 170zM274 1296l170 138l170 -138 l-67 -67l-103 127l-102 -127z" />
<glyph unicode="&#x11d;" horiz-adv-x="755" d="M70 -70h69q4 -68 31 -120q23 -45 71 -82t138 -37t137 36.5t70 82.5q25 53 30 120v174q-33 -43 -89 -73.5t-148 -30.5q-115 0 -178.5 47t-91.5 105q-35 68 -39 153v205q4 86 39 154q14 29 36.5 57.5t54 50t75.5 34.5t104 13q92 0 148.5 -31.5t88.5 -74.5v106h70v-889 q-4 -86 -39 -153q-29 -59 -91 -106.5t-177 -47.5q-59 0 -103.5 13.5t-76 35t-54 49t-36.5 56.5q-35 68 -39 153zM139 305q4 -68 31 -121q23 -45 71 -81.5t138 -36.5t137 36.5t70 81.5q25 53 30 121v205q-6 66 -30 119q-23 45 -71 83t-136 38q-90 0 -138 -38t-71 -83 q-27 -53 -31 -119v-205zM207 954l170 138l170 -138l-68 -67l-102 127l-103 -127z" />
<glyph unicode="&#x124;" horiz-adv-x="821" d="M70 0v1159h67v-579h545v579h70v-1159h-70v512h-545v-512h-67zM240 1296l170 138l170 -138l-68 -67l-102 127l-103 -127z" />
<glyph unicode="&#x125;" horiz-adv-x="686" d="M70 0v1159h67v-436q31 41 80 68.5t125 27.5q102 0 157.5 -48t82.5 -105q31 -68 34 -154v-512h-69v512q-4 66 -27 119q-20 45 -60 83t-118 38t-120 -38t-60 -83q-23 -53 -25 -119v-512h-67zM172 954l170 138l170 -138l-68 -67l-102 127l-102 -127z" />
<glyph unicode="&#x131;" horiz-adv-x="243" d="M37 752v67h137v-819h-70v752h-67z" />
<glyph unicode="&#x134;" horiz-adv-x="413" d="M-29 -205q78 0 119 32t60 71q23 45 24 102v1092h-172v67h410v-67h-170v-1092q-4 -78 -33 -137q-25 -53 -80 -95t-158 -42v69zM39 1296l170 138l170 -138l-68 -67l-102 127l-103 -127z" />
<glyph unicode="&#x135;" horiz-adv-x="243" d="M-100 -205q78 0 117.5 32t60.5 71q23 45 26 102v750h-67v69h137v-819q-4 -78 -35 -137q-27 -51 -82 -93t-157 -42v67zM-66 954l170 138l170 -138l-67 -67l-103 127l-102 -127z" />
<glyph unicode="&#x141;" horiz-adv-x="686" d="M4 475q4 -2 16.5 9.5t31 31t41 45t46.5 53.5v545h68v-469q37 41 64.5 67.5t37.5 26.5l33 -30q-4 0 -17.5 -12.5t-32 -32t-40 -44t-45.5 -51.5v-544h477v-70h-545v539q-37 -41 -64.5 -68t-37.5 -27q-6 6 -14 13q-14 10 -19 18zM342 754q2 0 2 -2z" />
<glyph unicode="&#x142;" horiz-adv-x="278" d="M2 512l4 -2q-4 0 -4 2zM6 510q8 2 36 32.5t62 71.5v478h-67v67h137v-469q23 27 41 44.5t27 17.5q6 -8 12 -15q4 -6 9 -10t9 -8q-8 -2 -35.5 -33t-62.5 -72v-614h-70v539q-23 -27 -41 -44.5t-26 -17.5q-6 4 -12 12q-4 4 -9.5 10.5t-9.5 10.5zM272 719q2 0 2 -2z" />
<glyph unicode="&#x152;" horiz-adv-x="1435" d="M70 340v410q6 115 47 204q18 39 44.5 76t65.5 65.5t92.5 46t124.5 17.5q61 0 109.5 -13t85.5 -37t64.5 -53.5t48.5 -62.5v166h614v-67h-545v-512h340v-68h-340v-444h545v-68h-614v137q-41 -55 -113 -96t-195 -41q-72 0 -125 14.5t-92 38t-65.5 54t-44.5 63.5 q-41 74 -47 170zM137 340q4 -78 39 -137q29 -51 91 -93t177 -42q104 0 165 34.5t91.5 80.5t40 89t11.5 60v418q-4 94 -39 170q-14 33 -37 63.5t-54.5 55t-75.5 39t-102 14.5q-57 0 -101 -14.5t-75.5 -39t-54.5 -55.5t-37 -63q-35 -76 -39 -170v-410z" />
<glyph unicode="&#x153;" horiz-adv-x="1300" d="M70 307v205q4 86 39 154q29 57 91 105t177 48q59 0 104 -14t78 -37t54.5 -52.5t35.5 -60.5q14 31 36 60.5t55.5 52.5t79 37t104.5 14q115 0 177 -48t91 -105q35 -68 39 -154v-135h-547v-70q4 -66 31 -119q23 -45 71 -81.5t138 -36.5t137 36.5t69 81.5q25 53 31 119h70 q-4 -86 -39 -153q-29 -59 -91.5 -106.5t-176.5 -47.5q-59 0 -104.5 14.5t-79 38t-55 52t-36.5 59.5q-14 -31 -35.5 -59.5t-54.5 -52t-78 -38t-104 -14.5q-115 0 -177.5 47t-90.5 107q-35 68 -39 153zM137 307q4 -66 31 -119q23 -45 71 -81.5t138 -36.5t138 36.5t71 81.5 q27 53 30 119v205q-4 66 -30 119q-23 45 -71 83t-138 38t-138.5 -38t-70.5 -83q-27 -53 -31 -119v-205zM684 444h477v68q-6 66 -31 119q-23 45 -70.5 83t-135.5 38q-90 0 -138.5 -38t-70.5 -83q-27 -53 -31 -119v-68z" />
<glyph unicode="&#x15c;" horiz-adv-x="888" d="M70 375h67q4 -86 39 -154q29 -59 91.5 -106t176.5 -47q115 0 177.5 47t91.5 106q35 68 39 154q0 35 -50.5 59.5t-126 47t-164.5 47t-165 59.5t-126 82t-50 114q6 104 47 187q18 35 44.5 68.5t65.5 60t92.5 43t124.5 16.5q70 0 123.5 -16.5t93 -43t66.5 -60t45 -68.5 q41 -82 47 -187h-67q-4 86 -39 154q-29 57 -91.5 105.5t-177.5 48.5t-177 -48.5t-91 -105.5q-35 -68 -39 -154q0 -51 50.5 -86.5t126 -64.5t164.5 -53.5t165 -53t126 -64.5t50 -87q-6 -106 -47 -189q-18 -35 -45 -68.5t-66.5 -60t-93 -42t-123.5 -15.5q-72 0 -125 15.5 t-92 42t-65.5 60.5t-44.5 68q-41 82 -47 189zM274 1296l170 138l170 -138l-67 -67l-103 127l-102 -127z" />
<glyph unicode="&#x15d;" horiz-adv-x="686" d="M70 272h67q2 -57 25 -102q18 -39 60 -70.5t120 -31.5t118 31.5t60 70.5q23 45 27 102q0 51 -36 73t-88 29t-114.5 9t-115 15.5t-88 46t-35.5 102.5q4 76 34 135q27 51 81.5 94t156.5 43t157.5 -43t82.5 -94q31 -59 34 -135h-69q-4 57 -27 102q-20 39 -60 71t-118 32 t-120 -32t-60 -71q-23 -45 -25 -102q0 -51 36 -72.5t89 -29t114.5 -9.5t115 -15t89 -47t35.5 -102q-4 -78 -34 -137q-27 -51 -82.5 -93t-157.5 -42t-156.5 42t-81.5 93q-31 59 -34 137zM172 954l170 138l170 -138l-68 -67l-102 127l-102 -127z" />
<glyph unicode="&#x160;" horiz-adv-x="888" d="M70 375h67q4 -86 39 -154q29 -59 91.5 -106t176.5 -47q115 0 177.5 47t91.5 106q35 68 39 154q0 35 -50.5 59.5t-126 47t-164.5 47t-165 59.5t-126 82t-50 114q6 104 47 187q18 35 44.5 68.5t65.5 60t92.5 43t124.5 16.5q70 0 123.5 -16.5t93 -43t66.5 -60t45 -68.5 q41 -82 47 -187h-67q-4 86 -39 154q-29 57 -91.5 105.5t-177.5 48.5t-177 -48.5t-91 -105.5q-35 -68 -39 -154q0 -51 50.5 -86.5t126 -64.5t164.5 -53.5t165 -53t126 -64.5t50 -87q-6 -106 -47 -189q-18 -35 -45 -68.5t-66.5 -60t-93 -42t-123.5 -15.5q-72 0 -125 15.5 t-92 42t-65.5 60.5t-44.5 68q-41 82 -47 189zM274 1366l68 68l102 -127l103 127l67 -68l-170 -137z" />
<glyph unicode="&#x161;" horiz-adv-x="686" d="M70 272h67q2 -57 25 -102q18 -39 60 -70.5t120 -31.5t118 31.5t60 70.5q23 45 27 102q0 51 -36 73t-88 29t-114.5 9t-115 15.5t-88 46t-35.5 102.5q4 76 34 135q27 51 81.5 94t156.5 43t157.5 -43t82.5 -94q31 -59 34 -135h-69q-4 57 -27 102q-20 39 -60 71t-118 32 t-120 -32t-60 -71q-23 -45 -25 -102q0 -51 36 -72.5t89 -29t114.5 -9.5t115 -15t89 -47t35.5 -102q-4 -78 -34 -137q-27 -51 -82.5 -93t-157.5 -42t-156.5 42t-81.5 93q-31 59 -34 137zM172 1024l68 68l102 -127l102 127l68 -68l-170 -137z" />
<glyph unicode="&#x16c;" horiz-adv-x="888" d="M70 340v819h67v-819q4 -78 39 -137q29 -51 91.5 -93t176.5 -42q115 0 177.5 42t91.5 93q35 59 39 137v819h67v-819q-6 -96 -47 -170q-18 -33 -45 -63.5t-66.5 -54t-93 -38t-123.5 -14.5q-72 0 -125 14.5t-92 38t-65.5 54t-44.5 63.5q-41 74 -47 170zM274 1399h68 q2 -29 12 -51q10 -20 31 -36t59 -16q39 0 59.5 15.5t31.5 36.5q10 23 12 51h67q-2 -49 -20 -86q-16 -33 -51 -58.5t-99 -25.5q-66 0 -99.5 25.5t-49.5 58.5q-18 37 -21 86z" />
<glyph unicode="&#x16d;" horiz-adv-x="686" d="M70 307v512h67v-512q2 -68 25 -121q18 -45 60 -81.5t120 -36.5t118 36.5t60 81.5q23 53 27 121v512h69v-819h-69v94q-29 -39 -78 -66.5t-127 -27.5q-102 0 -156.5 47t-81.5 107q-31 68 -34 153zM172 1057h68q2 -29 12 -51q10 -20 30.5 -36t59.5 -16t59.5 15.5t30.5 36.5 q10 23 12 51h68q-2 -49 -20 -86q-16 -33 -51 -58.5t-99 -25.5q-66 0 -99.5 25.5t-49.5 58.5q-18 37 -21 86z" />
<glyph unicode="&#x178;" horiz-adv-x="686" d="M2 1159h68l272 -545l272 545h70l-307 -614v-545h-68v545zM104 1296q0 18 9 33q6 12 19 23.5t40 11.5q25 0 39 -11.5t20 -23.5q8 -14 9 -33q0 -20 -9 -34q-6 -12 -20 -22.5t-39 -10.5q-27 0 -40 10t-19 23q-8 14 -9 34zM444 1296q0 18 9 33q6 12 20 23.5t41 11.5 q25 0 39 -11.5t20 -23.5q8 -14 9 -33q0 -20 -9 -34q-6 -12 -20 -22.5t-39 -10.5q-27 0 -41 10t-20 23q-8 14 -9 34z" />
<glyph unicode="&#x17d;" horiz-adv-x="821" d="M70 0v68q0 6 26.5 52t69.5 117.5t97 160.5t112.5 181.5t113 181.5t97.5 160.5t69.5 117.5t26.5 53h-612v67h682v-67q0 -6 -27 -52.5t-70 -118t-98 -160.5t-112.5 -181.5t-113 -181.5t-98.5 -160.5t-69.5 -117.5t-26.5 -52h615v-68h-682zM240 1366l67 68l103 -127l102 127 l68 -68l-170 -137z" />
<glyph unicode="&#x17e;" horiz-adv-x="686" d="M70 0v68l477 684h-477v67h546v-67l-479 -684h479v-68h-546zM172 1024l68 68l102 -127l102 127l68 -68l-170 -137z" />
<glyph unicode="&#x192;" horiz-adv-x="344" d="M-68 -205q78 0 118 32t61 71q23 45 26 102h70l-4 -43t-30 -94t-82 -94t-159 -43v69zM2 750v67h135v68q4 76 35 137q27 51 82 94t158 43v-69q-78 0 -120 -32t-61 -71q-23 -45 -24 -102v-68h135v-67h-135v-750h-70v750h-135z" />
<glyph unicode="&#x2c6;" horiz-adv-x="479" d="M70 954l170 138l170 -138l-68 -67l-102 127l-103 -127z" />
<glyph unicode="&#x2c7;" horiz-adv-x="479" d="M70 1024l67 68l103 -127l102 127l68 -68l-170 -137z" />
<glyph unicode="&#x2d8;" horiz-adv-x="479" d="M70 1057h67q2 -29 13 -51q10 -20 30.5 -36t59.5 -16t59 15.5t31 36.5q10 23 12 51h68q-2 -49 -21 -86q-16 -33 -51 -58.5t-98 -25.5q-66 0 -100 25.5t-50 58.5q-18 37 -20 86z" />
<glyph unicode="&#x2d9;" horiz-adv-x="276" d="M70 954q0 18 8 33q6 12 19 23.5t40 11.5t41.5 -11.5t20.5 -23.5q8 -14 8 -33q0 -20 -8 -34q-6 -12 -20.5 -22.5t-41.5 -10.5t-40 10t-19 23q-8 14 -8 34z" />
<glyph unicode="&#x2da;" horiz-adv-x="413" d="M70 1022q2 37 16 68q12 27 40 48t81 21q51 0 79.5 -21.5t41.5 -47.5q14 -31 16 -68q-2 -39 -16 -68q-12 -27 -41 -47t-80 -20q-53 0 -81 20.5t-40 46.5q-14 29 -16 68zM139 1022q0 -20 8 -35q6 -12 19.5 -22.5t40.5 -10.5q25 0 39 10.5t20 22.5q8 14 8 35q0 18 -8 35 q-6 12 -20.5 23.5t-38.5 11.5q-27 0 -40 -11.5t-20 -23.5q-8 -16 -8 -35z" />
<glyph unicode="&#x2db;" horiz-adv-x="411" d="M70 -70q0 51 20.5 80t46.5 41q29 14 68 17v-68q-20 0 -35 -8q-12 -6 -22.5 -20.5t-10.5 -41.5t10.5 -40t22.5 -19q14 -8 35 -8h137v-68h-137q-39 2 -68 17q-27 12 -47 39.5t-20 78.5z" />
<glyph unicode="&#x2dc;" horiz-adv-x="684" d="M70 887q2 47 20 84q16 33 50 59.5t100 26.5q39 0 65.5 -16.5t49 -35t44 -35t45.5 -16.5q39 0 59.5 15.5t31.5 36.5q10 23 12 51h67q-2 -49 -20 -86q-16 -33 -51 -58.5t-99 -25.5q-39 0 -65.5 16.5t-49 34.5t-44 34.5t-45.5 16.5q-39 0 -59.5 -16.5t-30.5 -34.5 q-10 -23 -13 -51h-67z" />
<glyph unicode="&#x2dd;" horiz-adv-x="514" d="M70 922l137 170l67 -68l-170 -137zM240 922l137 170l67 -68l-170 -137z" />
<glyph unicode="&#x3c0;" horiz-adv-x="751" d="M35 819v68h682v-68h-70v-819h-67v819h-410v-819h-68v819h-67z" />
<glyph unicode="&#xe01;" horiz-adv-x="686" d="M70 0v272q0 25 8 50q6 23 18.5 45t34.5 43q-23 18 -35 40.5t-18 45.5q-8 25 -8 51q4 76 34 135q27 51 82.5 94t157.5 43q100 0 155.5 -43t82.5 -94q31 -59 34 -135v-547h-67v547q-4 57 -27 102q-20 39 -60 71t-118 32t-120 -32t-60 -71q-23 -45 -25 -102q2 -29 13 -51 q10 -20 30.5 -36t59.5 -16v-69q-39 0 -59.5 -16.5t-30.5 -34.5q-10 -23 -13 -52v-272h-69z" />
<glyph unicode="&#xe02;" horiz-adv-x="618" d="M70 682q0 51 20.5 80t46.5 41q31 14 70 16q37 -2 67 -16q25 -12 46.5 -41t21.5 -80v-137q0 -51 -21.5 -85t-46 -63.5t-46 -57.5t-21.5 -67v-137q0 -20 8 -35q6 -12 19.5 -22t39.5 -10h138q25 0 39 10t20 22q8 14 8 35v684h70v-684q-2 -39 -17 -67q-12 -27 -40.5 -47.5 t-79.5 -20.5h-138q-51 0 -78.5 20.5t-39.5 47.5q-14 29 -17 67v137q0 51 21.5 86t46 64t46 56.5t21.5 66.5v18q-14 -8 -25 -11t-22 -5q-10 -2 -20 -2q-39 2 -70 16q-27 12 -47 40t-20 81zM139 682q0 -27 10.5 -40t22.5 -19q15 -9 35 -9q18 0 33 9q12 6 23 19t11 40 q0 25 -11 39t-23 20q-14 8 -33 9q-20 0 -35 -9q-12 -6 -22.5 -20t-10.5 -39z" />
<glyph unicode="&#xe03;" horiz-adv-x="686" d="M2 682q0 51 20.5 80t47.5 41q29 14 67 16q18 0 37 -6q16 -4 33.5 -12t34.5 -25q16 18 39.5 30.5t62.5 12.5q51 0 79 -21.5t40 -47.5q14 -31 16 -68v-137q-2 -49 -20 -86q-16 -33 -51 -58.5t-99 -25.5q-39 0 -59.5 -16.5t-30.5 -34.5q-10 -23 -12 -52v-135q0 -20 8 -35 q6 -14 19.5 -24t39.5 -10h205q25 0 39 10t21 24q8 14 10 35v682h67v-682q-2 -39 -16 -69q-12 -27 -41 -47.5t-80 -20.5h-205q-51 0 -78.5 20.5t-39.5 47.5q-14 31 -17 69v135q2 47 21 84q16 33 50 59.5t99 26.5q39 0 59.5 15.5t30.5 36.5q10 23 13 51v137q0 18 -9 33 q-6 12 -20 23.5t-39 11.5q-27 0 -41 -11.5t-20 -23.5q-8 -14 -9 -33q0 -53 -21.5 -81t-47.5 -40q-31 -14 -68 -16q-39 2 -67 16q-27 12 -47.5 40t-20.5 81zM70 682q0 -27 10 -40t22 -19q15 -9 35 -9q18 0 35 9q12 6 23.5 19t11.5 40t-11.5 41t-23.5 20q-16 8 -35 9 q-20 0 -35 -9q-12 -6 -22 -20t-10 -41z" />
<glyph unicode="&#xe04;" horiz-adv-x="684" d="M70 0v547q4 76 34 135q27 51 81.5 94t156.5 43q100 0 155.5 -43t82.5 -94q31 -59 34 -135v-547h-67v547q-4 57 -27 102q-20 39 -60 71t-118 32t-120 -32t-60 -71q-23 -45 -25 -102v-84q29 31 62.5 47t63.5 24.5t51.5 10.5t25.5 2h2q37 -2 68 -17q25 -12 46 -40.5 t21 -79.5q0 -53 -21.5 -81t-45.5 -40q-31 -14 -68 -17q-39 2 -70 17q-27 12 -47 39.5t-20 81.5q0 14 2 20q-29 -23 -49.5 -60.5t-20.5 -97.5v-272h-67zM272 410q0 -27 10.5 -40.5t24.5 -19.5q14 -8 35 -8q18 0 33 8q12 6 23.5 19.5t11.5 40.5q0 25 -11.5 39t-23.5 20 q-14 8 -33 8q-20 0 -35 -8q-14 -6 -24.5 -20.5t-10.5 -38.5z" />
<glyph unicode="&#xe05;" horiz-adv-x="684" d="M70 0v682q0 51 20.5 80t46.5 41q29 14 68 16q25 0 49 -8q23 -6 45.5 -19.5t42.5 -35.5q18 23 41 36t45 19q22 8 49 8q37 -2 68 -16q27 -12 48 -41t21 -80v-682h-67v682q0 27 -11.5 41t-23.5 20q-16 8 -35 9q-29 -2 -51 -13q-20 -10 -35.5 -30.5t-15.5 -59.5h-68 q0 39 -16.5 59.5t-34.5 30.5q-23 10 -51 13q-20 0 -35 -9q-12 -6 -22.5 -20t-10.5 -41v-221q29 31 62.5 47t63.5 24.5t51.5 11.5t25.5 3h2q37 -2 68 -17q25 -12 46 -40.5t21 -79.5q0 -53 -21.5 -81t-45.5 -40q-31 -14 -68 -17q-39 2 -70 17q-27 12 -47 39.5t-20 81.5 q0 14 2 20q-29 -23 -49.5 -60.5t-20.5 -97.5v-272h-67zM272 410q0 -27 10.5 -41.5t24.5 -20.5q14 -8 35 -8q18 0 33 8q12 6 23.5 20.5t11.5 41.5q0 25 -11.5 39t-23.5 20q-14 8 -33 8q-20 0 -35 -8q-14 -6 -24.5 -20.5t-10.5 -38.5z" />
<glyph unicode="&#xe06;" horiz-adv-x="753" d="M70 137q2 37 16 68q12 25 40 46t81 21q35 0 67 -14v84q2 37 17 68q12 25 39.5 46t79.5 21q27 0 41 10.5t20 24.5q8 14 8 35v135q0 18 -8 33q-6 12 -20.5 23.5t-40.5 11.5q-27 0 -40.5 -11.5t-19.5 -23.5q-8 -14 -8 -33q-2 -39 -16 -68q-12 -27 -41 -47t-80 -20t-79 20.5 t-40 46.5q-14 29 -16 68q2 37 16 68q12 27 40 48t79 21q39 0 63.5 -12t38.5 -31q16 18 41 30.5t62 12.5q51 0 79.5 -21.5t40.5 -47.5q14 -31 17 -68v-135q-2 -39 -17 -70q-12 -27 -40.5 -47t-79.5 -20q-27 0 -40.5 -11.5t-19.5 -23.5q-8 -14 -8 -33v-137q2 -39 16 -70 q12 -27 40 -47t81 -20q51 0 79 20.5t40 46.5q14 31 16 70v614h70v-614q-4 -57 -27 -103q-20 -39 -60 -70.5t-118 -31.5q-59 0 -96 18.5t-59 47.5q-14 -25 -41 -45.5t-76 -20.5q-53 0 -81 20.5t-40 47.5q-14 31 -16 69zM137 137q0 -20 8 -35q6 -14 20.5 -24t41.5 -10 q25 0 39 10t20 24q8 14 8 35q0 18 -8 33q-6 12 -20.5 23.5t-38.5 11.5q-27 0 -41 -11.5t-21 -23.5q-8 -14 -8 -33zM137 682q0 -20 8 -35q6 -12 19.5 -22.5t40.5 -10.5t41 10.5t20 22.5q8 14 8 35q0 18 -8 35q-6 12 -20.5 23.5t-40.5 11.5q-27 0 -40 -11.5t-20 -23.5 q-8 -16 -8 -35z" />
<glyph unicode="&#xe07;" horiz-adv-x="616" d="M70 547h67q0 -135 21 -240q8 -45 20 -88t30.5 -76.5t43 -54t57.5 -20.5q63 0 98 31.5t52 70.5q18 45 20 102v289q-14 -6 -29.5 -10t-37.5 -4q-53 0 -81 20.5t-40 46.5q-14 29 -17 68q2 37 17 68q12 27 40 48t81 21q51 0 78.5 -21.5t39.5 -47.5q14 -31 17 -68v-410 q-6 -78 -31 -137q-23 -51 -71 -93t-136 -42q-45 0 -78.5 23.5t-59.5 61.5t-42 87t-29 100q-27 121 -30 275zM342 682q0 -20 8 -35q6 -12 20.5 -22.5t41.5 -10.5q25 0 39 10.5t20 22.5q8 14 8 35q0 18 -8 35q-6 12 -20.5 23.5t-38.5 11.5q-27 0 -41.5 -11.5t-20.5 -23.5 q-8 -16 -8 -35z" />
<glyph unicode="&#xe08;" horiz-adv-x="616" d="M2 547q4 76 35 135q27 51 81 94t156 43q100 0 155.5 -43t82.5 -94q31 -59 35 -135v-547h-68v272q0 59 -20.5 97.5t-48.5 60.5q0 -4 1 -9t1 -11q0 -53 -21.5 -81t-48.5 -40q-31 -14 -68 -17q-39 2 -69 17q-27 12 -47.5 39.5t-20.5 81.5q0 51 20.5 79.5t47.5 40.5 q31 14 69 17h2q4 0 26 -2t51.5 -10.5t63.5 -24.5t62 -47v84q-4 57 -26 102q-20 39 -60.5 71t-118.5 32t-119.5 -32t-60.5 -71q-23 -45 -24 -102h-68zM207 410q0 -27 10 -40.5t23 -19.5q14 -8 34 -8q18 0 33 8q12 6 23.5 19.5t11.5 40.5q0 25 -11.5 39t-23.5 20q-15 8 -33 8 q-20 0 -34 -8q-12 -6 -22.5 -20.5t-10.5 -38.5z" />
<glyph unicode="&#xe09;" horiz-adv-x="821" d="M70 342q2 37 16 68q12 25 40 46t79 21t79.5 -21.5t41.5 -45.5q14 -31 16 -68v-205q0 -20 8 -35q6 -14 19.5 -24t40.5 -10h67q27 0 41 10t21 24q8 14 8 35v410q-4 57 -27 102q-20 39 -60 71t-118 32t-120 -32t-60 -71q-23 -45 -25 -102h-67q4 76 34 135q27 51 81.5 94 t156.5 43q100 0 155.5 -43t82.5 -94q31 -59 34 -135v-289q33 14 68 14q51 0 80 -21.5t41 -45.5q14 -31 16 -68q-2 -39 -16 -69q-12 -27 -41 -47.5t-80 -20.5q-37 0 -61.5 12.5t-40.5 30.5q-14 -18 -39 -30.5t-64 -12.5h-67q-53 0 -81 20.5t-40 47.5q-14 31 -17 69v84 q-27 -16 -67 -16q-51 0 -79 20.5t-40 46.5q-14 31 -16 70zM137 342q0 -20 8 -35q6 -14 19.5 -24.5t40.5 -10.5t40 10.5t19 24.5q8 14 8 35q0 18 -8 33q-6 12 -20.5 23.5t-38.5 11.5q-27 0 -40 -11.5t-20 -23.5q-8 -14 -8 -33zM614 137q0 -20 9 -35q6 -14 19 -24t40 -10 t41 10t20 24q8 14 9 35q0 18 -9 33q-6 12 -20 23.5t-41 11.5t-40 -11.5t-19 -23.5q-8 -14 -9 -33z" />
<glyph unicode="&#xe0a;" horiz-adv-x="616" d="M70 682q0 51 20.5 80t46.5 41q31 14 70 16q37 -2 67 -16q25 -12 46.5 -41t21.5 -80l22 2q21 2 46.5 15.5t47 41t21.5 78.5h68q0 -70 -24.5 -108.5t-59.5 -61.5q31 -23 48 -51.5t24.5 -54t9.5 -44t2 -20.5v-342q-2 -39 -17 -69q-12 -27 -39.5 -47.5t-78.5 -20.5h-138 q-53 0 -80.5 20.5t-39.5 47.5q-14 31 -17 69v135h2q0 51 21.5 86t46 64t46 57.5t21.5 65.5v18q-14 -8 -25 -10l-22 -4q-10 -2 -20 -2q-39 2 -70 16q-27 12 -47 39t-20 80zM137 682q0 -27 10.5 -40t24.5 -19q15 -9 35 -9q18 0 33 9q12 6 23 19t11 40t-11 41t-23 20 q-14 8 -33 9q-20 0 -35 -9q-14 -6 -24.5 -20t-10.5 -41zM207 137q0 -20 8 -35q6 -14 19.5 -24t39.5 -10h138q25 0 39 10t20 24q8 14 8 35v340q0 51 -21.5 80t-47.5 41q-31 14 -68 16v-69q0 -51 -21.5 -85t-46 -63.5t-46 -57.5t-21.5 -67v-135z" />
<glyph unicode="&#xe0b;" horiz-adv-x="686" d="M2 682q0 51 20.5 80t47.5 41q29 14 67 16q18 0 37 -6q16 -4 33.5 -12t34.5 -25q16 18 39.5 30.5t62.5 12.5q51 0 79 -21.5t40 -47.5q14 -31 16 -68q27 0 41.5 10t20.5 25q8 14 8 35v67h67v-67q0 -18 -6 -37q-4 -16 -12 -33.5t-25 -32.5q18 -16 30.5 -40.5t12.5 -61.5 v-410q-2 -39 -16 -69q-12 -27 -41 -47.5t-80 -20.5h-205q-51 0 -78.5 20.5t-39.5 47.5q-14 31 -17 69v135q2 47 21 84q16 33 50 59.5t99 26.5q39 0 59.5 15.5t30.5 36.5q10 23 13 51v137q0 18 -9 33q-6 12 -20 23.5t-39 11.5q-27 0 -41 -11.5t-20 -23.5q-8 -14 -9 -33 q0 -53 -21.5 -81t-47.5 -40q-31 -14 -68 -16q-39 2 -67 16q-27 12 -47.5 40t-20.5 81zM70 682q0 -27 10 -40t22 -19q15 -9 35 -9q18 0 35 9q12 6 23.5 19t11.5 40t-11.5 41t-23.5 20q-16 8 -35 9q-20 0 -35 -9q-12 -6 -22 -20t-10 -41zM207 137q0 -20 8 -35q6 -14 19.5 -24 t39.5 -10h205q27 0 41.5 10t20.5 24q8 14 8 35v410q0 25 -11.5 39t-23.5 20q-16 8 -35 8v-69q-2 -49 -20 -86q-16 -33 -51 -58.5t-99 -25.5q-39 0 -59.5 -16.5t-30.5 -34.5q-10 -23 -12 -52v-135z" />
<glyph unicode="&#xe0c;" horiz-adv-x="958" d="M70 137v137q0 25 8 50q6 20 18.5 43.5t34.5 42.5q-23 18 -35 41.5t-18 46.5q-8 25 -8 49q4 76 34 135q27 51 81.5 94t156.5 43t157.5 -43t82.5 -94q31 -59 34 -135v-410q0 -20 9 -35q6 -12 19 -22t40 -10q51 0 80 20.5t41 46.5q14 29 16 68v614h68v-614q-4 -57 -27 -103 q-20 -39 -60 -70.5t-118 -31.5q-39 0 -62.5 13.5t-39.5 29.5q-16 -16 -40 -29.5t-63 -13.5q-43 0 -69.5 16.5t-42 38t-20.5 43t-5 31.5q0 -10 -5 -31.5t-19.5 -43t-41 -38t-69.5 -16.5q-53 0 -81 20.5t-40 47.5q-14 31 -16 69zM137 137q0 -20 8 -35q6 -12 20.5 -22t41.5 -10 q25 0 39 10t20 22q8 14 8 35q0 18 -8 35q-6 12 -20.5 23.5t-38.5 11.5q-27 0 -41 -11.5t-21 -23.5q-8 -16 -8 -35zM137 258q29 16 70 16q49 0 75.5 -19t40 -44t16.5 -46.5t3 -25.5q0 4 3 25.5t17.5 46.5t41 44t75.5 19q41 0 68 -16v289q-4 57 -27 102q-20 39 -60 71t-118 32 t-120 -32t-60 -71q-23 -45 -25 -102q2 -29 13 -51q10 -20 30.5 -36t59.5 -16v-67q-39 0 -59.5 -16.5t-30.5 -34.5q-10 -23 -13 -52v-16zM412 137q0 -20 8 -35q6 -12 19 -22t40 -10q25 0 39 10t21 22q8 14 8 35q0 18 -8 35q-6 12 -20.5 23.5t-39.5 11.5q-27 0 -40 -11.5 t-19 -23.5q-8 -16 -8 -35z" />
<glyph unicode="&#xe0d;" horiz-adv-x="958" d="M70 135v137q0 25 8 50q6 20 18.5 43.5t36.5 42.5q-25 18 -37 41.5t-18 46.5q-8 25 -8 49q4 76 34 135q27 51 81.5 94t156.5 43t157.5 -43t82.5 -94q31 -59 34 -135v-375q2 -29 13 -51q10 -20 30.5 -35.5t59.5 -15.5t59.5 15t30.5 36q10 23 12 51v647h68v-647 q-2 -49 -21 -86q-16 -33 -51 -58.5t-98 -25.5q-66 0 -100.5 25.5t-51.5 58.5q-20 37 -20 86v375q-4 57 -27 102q-20 39 -60 71t-118 32t-120 -32t-60 -71q-23 -45 -25 -102q2 -29 13 -51q10 -20 30.5 -36t59.5 -16v-67q-39 0 -59.5 -16.5t-30.5 -34.5q-10 -23 -13 -52v-16 q29 16 70 16q51 0 78.5 -21.5t40.5 -47.5q14 -31 16 -68q-2 -39 -16 -69q-12 -27 -40 -47.5t-79 -20.5q-53 0 -81 20.5t-40 47.5q-14 31 -16 69zM137 135q0 -20 8 -35q6 -12 20.5 -22t41.5 -10q25 0 39 10t20 22q8 14 8 35q0 18 -8 35q-6 12 -20 23.5t-39 11.5 q-27 0 -41 -11.5t-21 -23.5q-8 -16 -8 -35zM479 -203q2 37 17 68q12 25 39.5 46t80.5 21q51 0 80 -21.5t41 -45.5q14 -31 17 -68v-6q0 -6 -4 -18q27 23 42 50t21 52q8 29 8 57h68q-4 -78 -35 -137q-27 -51 -81 -93t-157 -42q-53 0 -80.5 20.5t-39.5 47.5q-14 31 -17 69z M549 -203q0 -20 8 -35q6 -14 19.5 -24t39.5 -10q25 0 39.5 10t20.5 24q8 14 8 35q0 18 -8 33q-6 12 -20.5 23.5t-39.5 11.5q-27 0 -40 -11.5t-19 -23.5q-8 -15 -8 -33z" />
<glyph unicode="&#xe0e;" horiz-adv-x="686" d="M70 137q2 37 16 68q12 25 40 46t81 21q23 0 38 -4t29 -10v84q0 18 -8 33q-6 12 -20.5 23.5t-38.5 11.5q-53 0 -81 20.5t-40 46.5q-14 31 -16 70q4 76 34 135q27 51 81.5 94t156.5 43t157.5 -43t82.5 -94q31 -59 34 -135v-889h-69q-18 0 -37 6q-16 4 -32.5 12.5 t-33.5 24.5q-14 -18 -38.5 -30.5t-63.5 -12.5q-51 0 -78.5 20.5t-40.5 47.5q-14 31 -16 69q2 37 16 68q12 27 40 48t79 21q41 0 70 -16v84h67v-205q0 -27 10.5 -40t22.5 -19q14 -8 35 -8v819q-4 57 -27 102q-20 39 -60 71t-118 32t-120 -32t-60 -71q-23 -45 -25 -102 q0 -20 8 -35q6 -14 20.5 -24.5t41.5 -10.5q51 0 78.5 -21.5t40.5 -45.5q14 -31 16 -68v-205q-2 -39 -16 -69q-12 -27 -40 -47.5t-79 -20.5q-53 0 -81 20.5t-40 47.5q-14 31 -16 69zM137 137q0 -20 8 -35q6 -14 20.5 -24t41.5 -10q25 0 39 10t20 24q8 14 8 35q0 18 -8 33 q-6 12 -20.5 23.5t-38.5 11.5q-27 0 -41 -11.5t-21 -23.5q-8 -14 -8 -33zM274 -205q0 -20 9 -35q6 -12 19 -22t40 -10t41 10t20 22q8 14 9 35q0 18 -9 33q-6 12 -20 23.5t-41 11.5t-40 -11.5t-19 -23.5q-8 -14 -9 -33z" />
<glyph unicode="&#xe0f;" horiz-adv-x="686" d="M70 137q2 37 16 68q12 25 40 46t81 21q39 0 67 -14v84q0 18 -8 33q-6 12 -20.5 23.5t-38.5 11.5q-53 0 -81 20.5t-40 46.5q-14 31 -16 70q4 76 34 135q27 51 82.5 94t157.5 43q100 0 155.5 -43t82.5 -94q31 -59 34 -135v-889h-67q-12 0 -23 2q-10 2 -22 5t-25 11v-18h-67 q-18 0 -37 6q-16 4 -32.5 12.5t-33.5 24.5q-16 -18 -39.5 -30.5t-62.5 -12.5q-53 0 -81 20.5t-40 47.5q-14 31 -16 69q2 37 16 68q12 27 40 48t81 21q41 0 67 -16v84h70v-205q0 -27 10.5 -40t22.5 -19q14 -8 35 -8v67h67q0 -27 10.5 -40t24.5 -19q14 -8 35 -8v819 q-4 57 -27 102q-20 39 -60 71t-118 32t-120 -32t-60 -71q-23 -45 -25 -102q0 -20 8 -35q6 -14 19.5 -24.5t40.5 -10.5q51 0 79.5 -21.5t41.5 -45.5q14 -31 16 -68v-205q-2 -39 -16 -69q-12 -27 -41 -47.5t-80 -20.5q-53 0 -81 20.5t-40 47.5q-14 31 -16 69zM139 137 q0 -20 8 -35q6 -14 19.5 -24t40.5 -10q25 0 39 10t20 24q8 14 8 35q0 18 -8 33q-6 12 -20.5 23.5t-38.5 11.5q-27 0 -40 -11.5t-20 -23.5q-8 -14 -8 -33zM139 -205q0 -20 8 -35q6 -12 19.5 -22t40.5 -10q25 0 39 10t20 22q8 14 8 35q0 18 -8 33q-6 12 -20.5 23.5t-38.5 11.5 q-27 0 -40 -11.5t-20 -23.5q-8 -14 -8 -33z" />
<glyph unicode="&#xe10;" horiz-adv-x="686" d="M2 -205q2 37 16 68q12 27 40 48t79 21q41 0 70 -16v84h67v-205q0 -20 9 -35q6 -12 19 -22t40 -10t41 10t20 22q8 14 9 35q2 37 16 68q12 27 40 48t79 21t79.5 -21.5t41.5 -47.5q14 -31 16 -68q-2 -39 -16 -69q-12 -27 -41 -47.5t-80 -20.5q-37 0 -61.5 12.5t-41.5 30.5 q-14 -18 -38.5 -30.5t-63.5 -12.5q-37 0 -61.5 12.5t-40.5 30.5q-14 -18 -39 -30.5t-64 -12.5q-51 0 -78.5 20.5t-40.5 47.5q-14 31 -16 69zM70 -205q0 -20 8 -35q6 -12 19 -22t40 -10t41.5 10t20.5 22q8 14 8 35q0 18 -8 33q-6 12 -20.5 23.5t-41.5 11.5t-40 -11.5 t-19 -23.5q-8 -14 -8 -33zM70 547q4 76 34 135q27 51 82.5 94t157.5 43q76 0 125 -24.5t80 -59.5v84h67v-272h-67q-4 57 -27 102q-20 39 -60 71t-118 32t-120 -32t-60 -71q-23 -45 -25 -102q0 -51 36 -72.5t88 -29t114.5 -9.5t115 -15t88 -46t35.5 -101v-274h-67v35 q-2 29 -10 57q-8 25 -21.5 53.5t-40.5 51.5q0 -6 1 -10.5t1 -8.5v-6q-2 -39 -16 -70q-12 -27 -40 -47t-79 -20q-53 0 -80.5 20.5t-40.5 46.5q-14 31 -16 70q2 37 16 68q12 25 40 46t81 21h23q66 -4 109.5 -27.5t72.5 -56.5v51q0 51 -36 73t-89 29t-114.5 9t-115 15.5t-89 46 t-35.5 100.5zM274 172q0 -20 9 -35q6 -12 20 -22.5t41 -10.5q25 0 39 10.5t20 22.5q9 15 9 35q0 18 -9 33q-6 12 -20 23.5t-39 11.5q-27 0 -41 -11.5t-20 -23.5q-8 -14 -9 -33zM479 -205q0 -20 8 -35q6 -12 19.5 -22t40.5 -10t41 10t20 22q8 14 8 35q0 18 -8 33 q-6 12 -20.5 23.5t-40.5 11.5q-27 0 -40 -11.5t-20 -23.5q-8 -14 -8 -33z" />
<glyph unicode="&#xe11;" horiz-adv-x="958" d="M70 684q2 37 16 68q12 25 40 46t81 21q37 0 61.5 -12t40.5 -29q14 16 39 28.5t64 12.5q51 0 78.5 -21.5t39.5 -45.5q14 -31 17 -68v-137q-2 -49 -21 -86q-16 -33 -51 -58.5t-98 -25.5q-39 0 -59.5 -16.5t-30.5 -34.5q-10 -23 -13 -52v-137q0 -20 9 -35q6 -12 19 -22 t40 -10h205q18 0 35 8q12 6 23 19.5t11 39.5v547q2 37 17 68q12 25 40 46t79 21t79.5 -21.5t40.5 -47.5q14 -31 17 -68v-682h-68v684q0 18 -8 33q-6 12 -20.5 23.5t-40.5 11.5q-27 0 -40.5 -11.5t-19.5 -23.5q-8 -14 -8 -33v-547q0 -53 -21.5 -80.5t-48.5 -40.5 q-31 -14 -67 -16h-205q-51 0 -78.5 20.5t-40.5 47.5q-14 31 -16 69v137q2 47 20 84q16 33 50 59.5t100 26.5q39 0 59.5 15.5t30.5 36.5q10 23 12 51v137q0 18 -8 33q-6 12 -20.5 23.5t-38.5 11.5q-25 0 -39.5 -10.5t-21.5 -22.5t-8 -22.5t-1 -12.5q-2 -39 -16 -70 q-12 -27 -40 -47t-79 -20q-53 0 -81 20.5t-40 46.5q-14 31 -16 70zM137 684q0 -20 8 -35q6 -14 20.5 -24.5t41.5 -10.5q25 0 39 10.5t20 24.5q8 14 8 35q0 18 -8 33q-6 12 -20.5 23.5t-38.5 11.5q-27 0 -41 -11.5t-21 -23.5q-8 -14 -8 -33z" />
<glyph unicode="&#xe12;" horiz-adv-x="958" d="M70 2v682q0 51 20.5 79t46.5 40q31 14 70 16q25 0 49 -8q20 -6 44 -18.5t42 -34.5q18 23 42 35t46 18q25 8 49 8q37 -2 68 -16q27 -12 48 -40t21 -79v-547q0 -20 9 -35q6 -12 19 -22t40 -10q51 0 80 20.5t41 46.5q14 29 16 68v614h68v-614q-4 -57 -27 -103 q-20 -39 -60 -69.5t-118 -30.5q-39 0 -62.5 12.5t-39.5 28.5q-16 -16 -40 -29.5t-63 -13.5q-53 0 -80.5 20.5t-40.5 47.5q-14 31 -16 69q2 37 16 68q12 27 40 48t81 21q41 0 68 -16v426q0 25 -11.5 39t-23.5 20q-14 8 -33 9q-29 -2 -51 -13q-20 -10 -35.5 -30.5t-15.5 -59.5 h-68q0 39 -16.5 59.5t-34.5 30.5q-23 10 -51 13q-20 0 -35 -9q-14 -6 -24.5 -20t-10.5 -39v-426q18 20 42 37.5t57 28.5q-10 14 -15.5 29.5t-9.5 27.5q-4 14 -4 29q2 37 16 67q12 27 40 48.5t79 21.5t80 -21.5t41 -48.5q14 -31 16 -67q-2 -39 -16 -68q-12 -27 -41 -47.5 t-80 -20.5q-72 0 -113 -28.5t-60 -64.5t-25.5 -68.5t-6.5 -40.5v-70h-67zM274 410q0 -20 9 -35q6 -12 19 -22.5t40 -10.5t41 10t20 23q8 14 9 35q0 18 -9 34q-6 12 -20 23.5t-41 11.5t-40 -11t-19 -24q-8 -16 -9 -34zM412 137q0 -20 8 -35q6 -12 19 -22t40 -10q25 0 39 10 t21 22q8 14 8 35q0 18 -8 33q-6 12 -20.5 23.5t-39.5 11.5q-27 0 -40 -11.5t-19 -23.5q-8 -14 -8 -33z" />
<glyph unicode="&#xe13;" horiz-adv-x="1093" d="M70 137v135q0 25 8 50q6 23 18.5 46t34.5 42q-23 18 -35 40.5t-18 45.5q-8 23 -8 49q4 76 34 137q27 51 81.5 94t156.5 43q100 0 155.5 -43t82.5 -94q31 -61 34 -137v-340q2 -39 17 -70q12 -27 39.5 -47t81.5 -20q25 0 39 10t20 24q8 14 8 35v682h68v-561q14 6 30 10 t39 4q51 0 79 -21.5t40 -45.5q14 -31 17 -68q-2 -39 -17 -69q-12 -27 -39.5 -47.5t-79.5 -20.5q-39 0 -62.5 12.5t-39.5 30.5q-16 -18 -41 -30.5t-61 -12.5q-78 0 -120 31.5t-61 70.5q-23 45 -24 103v340q-4 57 -27 102q-20 39 -60 71t-118 32t-120 -32t-60 -71 q-23 -45 -25 -102q2 -29 13 -51q10 -18 30.5 -34t59.5 -16v-69q-39 0 -59.5 -16.5t-30.5 -34.5q-10 -23 -13 -52v-14q14 6 29.5 10t38.5 4q51 0 79.5 -21.5t41.5 -45.5q14 -31 16 -68q-2 -39 -16 -69q-12 -27 -41 -47.5t-80 -20.5t-79 20.5t-40 47.5q-14 31 -16 69zM137 137 q0 -20 8 -35q6 -14 19.5 -24t40.5 -10t41 10t20 24q8 14 8 35q0 18 -8 33q-6 12 -20 23.5t-41 11.5t-40 -11.5t-20 -23.5q-8 -14 -8 -33zM887 137q0 -20 8 -35q6 -14 20 -24t41 -10q25 0 39.5 10t20.5 24q8 14 8 35q0 18 -8 33q-6 12 -20.5 23.5t-39.5 11.5q-27 0 -41 -11.5 t-20 -23.5q-8 -14 -8 -33z" />
<glyph unicode="&#xe14;" horiz-adv-x="684" d="M70 0v547q4 76 34 135q27 51 81.5 94t156.5 43q100 0 155.5 -43t82.5 -94q31 -59 34 -135v-547h-67v547q-4 57 -27 102q-20 39 -60 71t-118 32t-120 -32t-60 -71q-23 -45 -25 -102v-477q104 0 159.5 43t80.5 96q-20 -4 -35 -4q-53 0 -81 20.5t-40 46.5q-14 31 -16 70 q2 37 16 68q12 27 40 48t81 21q51 0 80 -21.5t41 -47.5q14 -31 16 -68q-6 -96 -43 -172q-16 -33 -40.5 -63.5t-60.5 -54t-85 -38t-113 -14.5h-67zM274 342q0 -20 9 -35q6 -12 19 -22.5t40 -10.5q25 0 39 10.5t20 22.5q8 14 9 35q0 18 -9 33q-6 12 -20 23.5t-39 11.5 q-27 0 -40 -11.5t-19 -23.5q-9 -15 -9 -33z" />
<glyph unicode="&#xe15;" horiz-adv-x="684" d="M70 0v684q0 51 20.5 79t46.5 40q29 14 68 16q25 0 49 -8q23 -6 46.5 -18.5t41.5 -34.5q18 23 41 35t45 18q24 8 51 8q37 -2 68 -16q25 -12 46 -40t21 -79v-684h-67v684q0 25 -11.5 39t-23.5 20q-14 8 -33 9q-29 -2 -51 -13q-20 -10 -35.5 -30.5t-15.5 -59.5h-70 q0 39 -16.5 59.5t-34.5 30.5q-23 10 -51 13q-20 0 -35 -9q-12 -6 -22.5 -20t-10.5 -39v-614q104 0 159.5 43t80.5 96q-20 -4 -35 -4q-53 0 -81 20.5t-40 46.5q-14 31 -16 70q2 37 16 68q12 27 40 48t81 21q51 0 80 -21.5t41 -47.5q14 -31 16 -68v-2q0 -4 -3 -30.5t-13 -64.5 t-30.5 -81t-58.5 -80t-96.5 -60.5t-140.5 -23.5h-67zM274 342q0 -20 9 -35q6 -12 19 -22.5t40 -10.5q25 0 39 10.5t20 22.5q8 14 9 35q0 18 -9 33q-6 12 -20 23.5t-39 11.5q-27 0 -40 -11.5t-19 -23.5q-9 -15 -9 -33z" />
<glyph unicode="&#xe16;" horiz-adv-x="684" d="M70 137v137q0 25 8 50q6 20 18.5 43.5t34.5 42.5q-23 18 -35 41.5t-18 46.5q-8 25 -8 49q4 76 34 135q27 51 81.5 94t156.5 43q100 0 155.5 -43t82.5 -94q31 -59 34 -135v-547h-67v547q-4 57 -27 102q-20 39 -60 71t-118 32t-120 -32t-60 -71q-23 -45 -25 -102 q2 -29 13 -51q10 -20 30.5 -36t59.5 -16v-67q-39 0 -59.5 -16.5t-30.5 -34.5q-10 -23 -13 -52v-16q29 16 68 16q51 0 79.5 -21.5t41.5 -47.5q14 -31 16 -68q-2 -39 -16 -69q-12 -27 -41 -47.5t-80 -20.5t-79 20.5t-40 47.5q-14 31 -16 69zM137 137q0 -20 8 -35 q6 -12 19.5 -22t40.5 -10t41 10t20 22q8 14 8 35q0 18 -8 33q-6 12 -20 23.5t-41 11.5t-40 -11.5t-20 -23.5q-8 -14 -8 -33z" />
<glyph unicode="&#xe17;" horiz-adv-x="753" d="M70 684q0 51 20.5 79t46.5 40q31 14 70 16q37 -2 67 -16q27 -12 48.5 -40t21.5 -79v-137q0 -51 -21.5 -86t-47 -63.5t-47 -56.5t-21.5 -67v-137q0 -20 8 -35q6 -12 19.5 -22t39.5 -10h68q27 0 41 10t20 22q8 14 9 35v547q2 37 16 68q12 25 40 46t79 21t79.5 -21.5 t41.5 -45.5q14 -31 16 -68v-684h-68v684q0 18 -8 33q-6 12 -20.5 23.5t-40.5 11.5q-27 0 -40 -11.5t-20 -23.5q-8 -14 -8 -33v-547q-2 -39 -16 -69q-12 -27 -41 -47.5t-80 -20.5h-68q-51 0 -78.5 20.5t-39.5 47.5q-14 31 -17 69v137q0 51 21.5 85t46 64t46 57.5t21.5 66.5 v16q-12 -6 -24 -9t-23 -5q-10 -2 -20 -2q-39 2 -70 16q-27 12 -47 40t-20 81zM137 684q0 -27 10.5 -41t24.5 -20q15 -9 35 -9q18 0 33 9q12 6 23 20t11 41q0 25 -11 39t-23 20q-14 8 -33 9q-20 0 -35 -9q-14 -6 -24.5 -20t-10.5 -39z" />
<glyph unicode="&#xe18;" horiz-adv-x="616" d="M2 547q4 76 35 135q27 51 81 94t156 43q76 0 125.5 -24.5t79.5 -59.5v84h68v-272h-68q-4 57 -26 102q-20 39 -60.5 71t-118.5 32t-119.5 -32t-60.5 -71q-23 -45 -24 -102q0 -37 18 -57.5t49 -30.5v88h70v-103q53 -6 112.5 -9t110.5 -16t84 -46t33 -99v-137 q-2 -39 -17 -69q-12 -27 -39.5 -47.5t-78.5 -20.5h-138q-53 0 -80.5 20.5t-39.5 47.5q-14 31 -17 69v260q-57 12 -96 45t-39 105zM207 137q0 -20 8 -35q6 -12 19.5 -22t39.5 -10h138q25 0 39 10t20 22q8 14 8 35v137q0 41 -24.5 62.5t-63.5 31t-87 12.5t-97 7v-250z" />
<glyph unicode="&#xe19;" horiz-adv-x="823" d="M2 684q2 37 16 68q12 25 40 46t81 21q51 0 79 -21.5t40 -45.5q14 -31 16 -68v-479q2 -39 17 -68q12 -27 39.5 -47t81.5 -20q47 0 73.5 9t41 20.5t18.5 22.5t4 15v682h67v-561q29 16 68 16q51 0 80 -21.5t41 -47.5q14 -31 16 -68q-2 -39 -16 -69q-12 -27 -41 -47.5 t-80 -20.5q-43 0 -68.5 15.5t-40.5 37.5q-23 -23 -60.5 -38t-102.5 -15q-78 0 -120 31.5t-61 70.5q-23 45 -24 103v356q-33 -14 -68 -14q-53 0 -80.5 20.5t-40.5 46.5q-14 31 -16 70zM70 684q0 -20 8 -35q6 -14 20 -24.5t41 -10.5q25 0 39.5 10.5t20.5 24.5q8 14 8 35 q0 18 -8 33q-6 12 -20.5 23.5t-39.5 11.5q-27 0 -41 -11.5t-20 -23.5q-8 -14 -8 -33zM616 135q0 -2 2.5 -12t8.5 -22.5t19 -21.5t38 -9t39 10t20 22q8 14 9 35q0 18 -9 33q-6 12 -20 23.5t-39 11.5q-23 0 -36 -8.5t-20 -19.5t-9.5 -22.5t-2.5 -15.5v-4z" />
<glyph unicode="&#xe1a;" horiz-adv-x="686" d="M70 274q0 51 15 90t37.5 70t50.5 57.5t50 55.5h-16q-53 0 -81 20.5t-40 46.5q-14 31 -16 70q2 37 16 68q12 25 40 46t81 21q51 0 78.5 -21.5t40.5 -45.5q14 -31 16 -68v-12q-2 -74 -35 -121t-70.5 -88t-68.5 -84t-31 -105l3 -32q3 -33 22.5 -72t60.5 -69.5t119 -30.5 t119 31.5t61 70.5q23 45 27 102v545h67v-545q-4 -78 -34 -137q-27 -53 -82.5 -95t-157.5 -42q-68 0 -114 20.5t-76.5 50t-47 65.5t-24.5 66.5t-9 51.5zM139 684q0 -20 8 -35q6 -14 19.5 -24.5t40.5 -10.5q20 0 33.5 8.5t20.5 18.5t10 20.5t3 16.5v6q0 18 -8 33 q-6 12 -20.5 23.5t-38.5 11.5q-27 0 -40 -11.5t-20 -23.5q-8 -14 -8 -33z" />
<glyph unicode="&#xe1b;" horiz-adv-x="686" d="M70 274q0 51 15 90t37.5 70t50.5 58.5t50 56.5q-6 -2 -16 -2q-53 0 -81 20.5t-40 46.5q-14 31 -16 70q2 37 16 68q12 27 40 48t81 21q51 0 79.5 -21.5t41.5 -47.5q14 -31 16 -68v-10q-4 -74 -36 -122t-69.5 -89t-68.5 -83t-31 -106q2 -57 25 -102q18 -39 60 -71.5 t120 -30.5q78 0 118 31.5t60 70.5q23 45 27 102v887h67v-887q-4 -78 -34 -137q-27 -53 -81.5 -95t-156.5 -42t-157.5 42t-82.5 95q-31 59 -34 137zM139 684q0 -20 8 -35q6 -12 19.5 -22.5t40.5 -10.5q43 0 55 26t12 38l2 4q0 18 -8 33q-6 12 -20.5 23.5t-40.5 11.5 q-27 0 -40 -11.5t-20 -23.5q-8 -14 -8 -33z" />
<glyph unicode="&#xe1c;" horiz-adv-x="686" d="M70 137v547q2 37 16 68q12 25 40 46t81 21q51 0 78.5 -21.5t40.5 -45.5q14 -31 16 -68q-2 -39 -16 -70q-12 -27 -40 -47t-79 -20q-23 0 -39 4t-31 10v-424q0 -27 10.5 -40t24.5 -19q14 -8 35 -8q29 2 51 12q18 10 34.5 30.5t16.5 59.5h68q0 -39 15.5 -59.5t35.5 -30.5 q23 -10 51 -12q18 0 33 8q12 6 23.5 19.5t11.5 39.5v682h69v-682q0 -53 -21.5 -80.5t-47.5 -40.5q-31 -14 -68 -16q-25 0 -49 8q-23 6 -46.5 18.5t-41.5 36.5q-18 -25 -42 -37t-44 -18q-25 -8 -49 -8q-39 2 -70 16q-27 12 -47 40t-20 81zM137 684q0 -20 8 -35 q6 -14 20.5 -24.5t41.5 -10.5q25 0 39 10.5t20 24.5q8 14 8 35q0 18 -8 33q-6 12 -20 23.5t-39 11.5q-27 0 -41 -11.5t-21 -23.5q-8 -14 -8 -33z" />
<glyph unicode="&#xe1d;" horiz-adv-x="684" d="M70 137v547q2 37 16 68q12 25 40 46t79 21t79.5 -21.5t41.5 -45.5q14 -31 16 -68q-2 -39 -16 -70q-12 -27 -41 -47t-80 -20q-39 0 -68 16v-426q0 -27 10.5 -40t22.5 -19q14 -8 35 -8q29 2 51 12q18 10 34.5 30.5t16.5 59.5h70q0 -39 15.5 -59.5t35.5 -30.5q23 -10 51 -12 q18 0 33 8q12 6 23.5 19.5t11.5 39.5v1024h67v-1024q0 -53 -21.5 -80.5t-45.5 -40.5q-31 -14 -68 -16q-27 0 -51 8q-23 6 -45.5 19.5t-40.5 35.5q-18 -23 -42 -36t-46 -19q-25 -8 -49 -8q-39 2 -68 16q-27 12 -47 40t-20 81zM137 684q0 -20 8 -35q6 -14 19.5 -24.5 t40.5 -10.5t41 10.5t20 24.5q8 14 8 35q0 18 -8 33q-6 12 -20 23.5t-41 11.5t-40 -11.5t-20 -23.5q-8 -14 -8 -33z" />
<glyph unicode="&#xe1e;" horiz-adv-x="686" d="M70 137v137q0 51 15 90t37.5 70t50.5 57.5t50 55.5h-16q-53 0 -81 20.5t-40 46.5q-14 31 -16 70q2 37 16 68q12 25 40 46t81 21q51 0 78.5 -21.5t40.5 -45.5q14 -31 16 -68v-8q-2 -74 -34 -123t-69.5 -90t-69.5 -83t-32 -106v-137q0 -27 10.5 -40t24.5 -19q14 -8 35 -8 q29 2 51 12q18 10 34.5 30.5t16.5 59.5v272h68v-272q0 -39 15.5 -59.5t35.5 -30.5q23 -10 51 -12q18 0 33 8q12 6 23.5 19.5t11.5 39.5v682h69v-682q0 -53 -21.5 -80.5t-47.5 -40.5q-31 -14 -68 -16q-25 0 -49 8q-23 6 -46.5 18.5t-41.5 36.5q-18 -25 -42 -37t-44 -18 q-25 -8 -49 -8q-39 2 -70 16q-27 12 -47 40t-20 81zM137 684q0 -20 8 -35q6 -14 20.5 -24.5t41.5 -10.5q20 0 33.5 8.5t20.5 18.5t10 20.5t3 16.5v6q0 18 -8 33q-6 12 -20.5 23.5t-38.5 11.5q-27 0 -41 -11.5t-21 -23.5q-8 -14 -8 -33z" />
<glyph unicode="&#xe1f;" horiz-adv-x="684" d="M70 137v137q0 51 15 90t37.5 70t49.5 58.5t49 56.5q-6 -2 -16 -2q-51 0 -79 20.5t-40 46.5q-14 31 -16 70q2 37 16 68q12 25 40 46t79 21t79.5 -21.5t41.5 -45.5q14 -31 16 -68v-8q-2 -74 -35 -123t-70.5 -90t-68.5 -83t-31 -106v-137q0 -27 10.5 -40t22.5 -19 q14 -8 35 -8q29 2 51 12q18 10 34.5 30.5t16.5 59.5v272h70v-272q0 -39 15.5 -59.5t35.5 -30.5q23 -10 51 -12q18 0 33 8q12 6 23.5 19.5t11.5 39.5v1024h67v-1024q0 -53 -21.5 -80.5t-45.5 -40.5q-31 -14 -68 -16q-27 0 -51 8q-23 6 -45.5 19.5t-40.5 35.5q-18 -23 -42 -36 t-46 -19q-25 -8 -49 -8q-39 2 -68 16q-27 12 -47 40t-20 81zM137 684q0 -20 8 -35q6 -14 19.5 -24.5t40.5 -10.5q20 0 33.5 8.5t21.5 18.5t10 20.5t2 16.5q2 2 2 6q0 18 -8 33q-6 12 -20.5 23.5t-40.5 11.5q-27 0 -40 -11.5t-20 -23.5q-8 -14 -8 -33z" />
<glyph unicode="&#xe20;" horiz-adv-x="686" d="M70 135q2 37 16 68q12 27 40 48t81 21q41 0 67 -16v84q0 23 -16 31q-8 4 -16 4q-66 0 -101 25.5t-51 58.5q-20 37 -20 86q4 76 34 137q27 51 82.5 94t157.5 43q100 0 155.5 -43t82.5 -94q31 -61 34 -137v-545h-67v545q-4 57 -27 102q-20 39 -60 71t-118 32t-120 -32 t-60 -71q-23 -45 -25 -102q2 -29 13 -51q10 -20 30.5 -36t59.5 -16q29 -2 51 -12q18 -10 34.5 -30.5t16.5 -59.5v-205q-2 -39 -16 -67q-12 -27 -41 -47.5t-80 -20.5q-53 0 -81 20.5t-40 47.5q-14 29 -16 67zM139 135q0 -20 8 -35q6 -12 19.5 -22t40.5 -10q25 0 39 10t20 22 q8 14 8 35v2q0 2 -2 13.5t-8 23.5t-19.5 21.5t-37.5 9.5q-27 0 -40 -11.5t-20 -23.5q-8 -16 -8 -35z" />
<glyph unicode="&#xe21;" horiz-adv-x="753" d="M70 137q2 37 16 68q12 27 40 48t81 21q41 0 67 -16v303q-29 -14 -67 -14q-53 0 -81 20.5t-40 46.5q-14 31 -16 70q2 37 16 68q12 25 40 46t81 21q51 0 79.5 -21.5t41.5 -45.5q14 -31 16 -68v-547q0 -4 3 -14t16.5 -22.5t41 -21.5t74.5 -9q51 0 80 20.5t41 46.5 q14 29 16 68v614h68v-614q-4 -57 -27 -103q-20 -39 -60 -70.5t-118 -31.5q-63 0 -102 15.5t-62 35.5q-14 -20 -39.5 -35.5t-68.5 -15.5q-53 0 -81 20.5t-40 47.5q-14 31 -16 69zM139 137q0 -20 8 -35q6 -12 19.5 -22t40.5 -10q25 0 39 10t20 22q8 14 8 35q0 18 -8 33 q-6 12 -20.5 23.5t-38.5 11.5q-27 0 -40 -11.5t-20 -23.5q-8 -14 -8 -33zM139 684q0 -20 8 -35q6 -14 19.5 -24.5t40.5 -10.5q25 0 39 10.5t20 24.5q8 14 8 35q0 18 -8 33q-6 12 -20.5 23.5t-38.5 11.5q-27 0 -40 -11.5t-20 -23.5q-8 -14 -8 -33z" />
<glyph unicode="&#xe22;" horiz-adv-x="684" d="M70 205q0 102 41 156.5t92 80.5q-47 27 -74 65t-40 74.5t-16 65.5t-3 33v2q2 37 16 68q12 27 40 48t79 21t79.5 -21.5t41.5 -47.5q14 -31 16 -68q-2 -39 -16 -68q-12 -27 -41 -47t-80 -20h-21q23 -29 61 -49.5t97 -20.5v-67q-4 0 -36 -4.5t-69.5 -24t-68.5 -60 t-31 -116.5q2 -39 17 -70q12 -27 39.5 -47t80.5 -20h136q51 0 79.5 20.5t40.5 46.5q14 31 17 70v614h67v-614q-4 -57 -26 -103q-20 -39 -60.5 -70.5t-117.5 -31.5h-136q-78 0 -119.5 31.5t-60.5 70.5q-23 45 -24 103zM137 682q0 -20 8 -35q6 -12 19.5 -22.5t40.5 -10.5 t41 10.5t20 22.5q8 14 8 35q0 18 -8 35q-6 12 -20 23.5t-41 11.5t-40 -11.5t-20 -23.5q-8 -16 -8 -35z" />
<glyph unicode="&#xe23;" horiz-adv-x="616" d="M2 547q4 76 35 135q27 51 81 94t156 43q76 0 125.5 -24.5t79.5 -61.5v86h68v-272h-68q-4 57 -26 102q-20 39 -60.5 71t-118.5 32t-119.5 -32t-60.5 -71q-23 -45 -24 -102q0 -51 35.5 -72.5t88 -29t115 -9.5t114.5 -15t88 -47t36 -102v-135q-2 -39 -17 -69 q-12 -27 -39.5 -47.5t-78.5 -20.5q-53 0 -81 20.5t-40 47.5q-14 31 -17 69q2 37 17 68q12 25 39.5 46t81.5 21q35 0 67 -14v14q0 51 -35.5 73t-88 29t-115 9t-114.5 15.5t-88 46t-36 102.5zM342 137q0 -20 8 -35q6 -14 20.5 -24t41.5 -10q25 0 39 10t20 24q8 14 8 35 q0 18 -8 33q-6 12 -20.5 23.5t-38.5 11.5q-27 0 -41.5 -11.5t-20.5 -23.5q-8 -14 -8 -33z" />
<glyph unicode="&#xe24;" horiz-adv-x="684" d="M70 137v137q0 25 8 50q6 20 18.5 43.5t34.5 42.5q-23 18 -35 41.5t-18 46.5q-8 25 -8 49q4 76 34 135q27 51 81.5 94t156.5 43q100 0 155.5 -43t82.5 -94q31 -59 34 -135v-889h-67v889q-4 57 -27 102q-20 39 -60 71t-118 32t-120 -32t-60 -71q-23 -45 -25 -102 q2 -29 13 -51q10 -20 30.5 -36t59.5 -16v-67q-39 0 -59.5 -16.5t-30.5 -34.5q-10 -23 -13 -52v-16q29 16 68 16q51 0 79.5 -21.5t41.5 -47.5q14 -31 16 -68q-2 -39 -16 -69q-12 -27 -41 -47.5t-80 -20.5t-79 20.5t-40 47.5q-14 31 -16 69zM137 137q0 -20 8 -35 q6 -12 19.5 -22t40.5 -10t41 10t20 22q8 14 8 35q0 18 -8 33q-6 12 -20 23.5t-41 11.5t-40 -11.5t-20 -23.5q-8 -14 -8 -33z" />
<glyph unicode="&#xe25;" horiz-adv-x="684" d="M70 137v135q2 57 24 103q18 39 60.5 70.5t119.5 31.5q78 0 118 -31.5t61 -70.5q23 -45 26 -103v-170q0 -10 4 -18q8 -16 29 -16q23 0 31 16q4 8 4 18v445q-4 55 -27 100q-20 39 -60 71t-118 32t-120 -32t-60 -71q-23 -45 -25 -100h-67q4 76 34 135q27 51 81.5 94 t156.5 43q100 0 155.5 -43t82.5 -94q31 -59 34 -135v-445q-2 -29 -12 -51q-10 -20 -30.5 -35.5t-59.5 -15.5t-59.5 15.5t-30.5 35.5q-10 23 -12 51v170q-2 37 -17 68q-12 27 -39.5 48.5t-79.5 21.5q-53 0 -80.5 -21.5t-39.5 -48.5q-14 -31 -17 -68v-14q33 14 68 14 q51 0 79.5 -21.5t41.5 -45.5q14 -31 16 -68q-2 -39 -16 -69q-12 -27 -41 -47.5t-80 -20.5t-79 20.5t-40 47.5q-14 31 -16 69zM137 137q0 -20 8 -35q6 -14 19.5 -24t40.5 -10t41 10t20 24q8 14 8 35q0 18 -8 33q-6 12 -20 23.5t-41 11.5t-40 -11.5t-20 -23.5q-8 -14 -8 -33z " />
<glyph unicode="&#xe26;" horiz-adv-x="686" d="M70 135q2 37 16 68q12 27 40 48t81 21q41 0 67 -16v84q0 23 -16 31q-8 4 -16 4q-66 0 -101 25.5t-51 58.5q-20 37 -20 86q4 76 34 137q27 51 82.5 94t157.5 43q100 0 155.5 -43t82.5 -94q31 -61 34 -137v-887h-67v887q-4 57 -27 102q-20 39 -60 71t-118 32t-120 -32 t-60 -71q-23 -45 -25 -102q2 -29 13 -51q10 -20 30.5 -36t59.5 -16q29 -2 51 -12q18 -10 34.5 -30.5t16.5 -59.5v-205q-2 -39 -16 -67q-12 -27 -41 -47.5t-80 -20.5q-53 0 -81 20.5t-40 47.5q-14 29 -16 67zM139 135q0 -20 8 -35q6 -12 19.5 -22t40.5 -10q25 0 39 10t20 22 q8 14 8 35v2q0 2 -2 13.5t-8 23.5t-19.5 21.5t-37.5 9.5q-27 0 -40 -11.5t-20 -23.5q-8 -16 -8 -35z" />
<glyph unicode="&#xe27;" horiz-adv-x="616" d="M2 547q4 76 35 135q27 51 81 94t156 43q100 0 155.5 -43t82.5 -94q31 -59 35 -135v-410q-2 -39 -17 -69q-12 -27 -39.5 -47.5t-78.5 -20.5q-53 0 -81 20.5t-40 47.5q-14 31 -17 69q2 37 17 68q12 25 39.5 46t81.5 21q35 0 67 -14v289q-4 57 -26 102q-20 39 -60.5 71 t-118.5 32t-119.5 -32t-60.5 -71q-23 -45 -24 -102h-68zM342 137q0 -20 8 -35q6 -14 20.5 -24t41.5 -10q25 0 39 10t20 24q8 14 8 35q0 18 -8 33q-6 12 -20.5 23.5t-38.5 11.5q-27 0 -41.5 -11.5t-20.5 -23.5q-8 -14 -8 -33z" />
<glyph unicode="&#xe28;" horiz-adv-x="684" d="M70 0v547q4 76 34 135q27 51 81.5 94t156.5 43q66 0 113 -19.5t75 -49.5q16 29 17 69h67q0 -43 -11 -73.5t-28 -53.5q29 -55 35 -100q4 -23 4 -45v-547h-67v547q-2 14 -4 31q-4 14 -7.5 31.5t-13.5 35.5q-20 -12 -39.5 -17t-36.5 -10q-20 -4 -36 -4v68q10 0 22 2 q10 2 22.5 5t26.5 11q-23 23 -56.5 37.5t-82.5 14.5q-78 0 -120 -32t-60 -71q-23 -45 -25 -102v-84q29 31 62.5 47t63.5 24.5t51.5 10.5t25.5 2h2q37 -2 68 -17q27 -12 48 -40.5t21 -79.5q0 -53 -21.5 -81t-47.5 -40q-31 -14 -68 -17q-39 2 -70 17q-27 12 -47 39.5t-20 81.5 q0 14 2 20q-29 -23 -49.5 -60.5t-20.5 -97.5v-272h-67zM272 410q0 -27 10.5 -40.5t24.5 -19.5q14 -8 35 -8q18 0 33 8q12 6 23.5 19.5t11.5 40.5q0 25 -11.5 39t-23.5 20q-15 8 -33 8q-20 0 -35 -8q-14 -6 -24.5 -20.5t-10.5 -38.5z" />
<glyph unicode="&#xe29;" horiz-adv-x="755" d="M70 272q0 51 15 90t37.5 71t50.5 58.5t50 55.5h-16q-53 0 -81 20.5t-40 46.5q-14 29 -16 68q2 37 16 68q12 27 40 48t81 21q51 0 79.5 -21.5t41.5 -47.5q14 -31 16 -68v-2q0 -2 -1 -3t-1 -3q-2 -74 -34 -122t-69.5 -89t-68.5 -84t-31 -107q2 -57 25 -102q18 -39 60 -70.5 t120 -31.5t118 31.5t60 70.5q23 45 27 102v9q-23 -6 -45 -7q-6 0 -12.5 -1t-12.5 -1q-51 0 -78.5 20.5t-40.5 47.5q-14 31 -16 70q2 37 16 67q12 25 40 46.5t79 21.5q23 0 39.5 -4t30.5 -11v289h67v-432q25 23 39.5 50.5t20.5 51.5q8 27 8 56h70q-4 -49 -19 -94 q-14 -39 -40.5 -80t-78.5 -68v-31q-4 -78 -34 -137q-27 -51 -81.5 -93t-156.5 -42t-157.5 42t-82.5 93q-31 59 -34 137zM139 682q0 -20 8 -35q6 -12 19.5 -22.5t40.5 -10.5q20 0 33.5 8.5t20.5 18.5t10 20.5t3 16.5v4q0 18 -8 35q-6 12 -20.5 23.5t-38.5 11.5 q-27 0 -40 -11.5t-20 -23.5q-8 -16 -8 -35zM412 410q0 -20 8 -35q6 -12 19.5 -22.5t39.5 -10.5q27 0 41.5 10t20.5 23q8 14 8 35q0 18 -8 32q-6 12 -20.5 23.5t-41.5 11.5t-40 -11t-19 -24q-8 -14 -8 -32z" />
<glyph unicode="&#xe2a;" horiz-adv-x="684" d="M70 137v135q2 57 24 103q18 39 60.5 70.5t119.5 31.5q78 0 118 -31.5t61 -70.5q23 -45 26 -103v-170q0 -10 4 -18q8 -16 29 -16q23 0 31 16q4 8 4 18v445q-2 14 -4 31q-4 14 -7.5 31.5t-13.5 35.5q-20 -12 -39.5 -17t-36.5 -10q-20 -4 -36 -4v68q10 0 22 2q10 2 22.5 5 t26.5 11q-23 23 -56.5 36.5t-82.5 13.5q-78 0 -120 -32t-60 -71q-23 -45 -25 -100h-67q4 76 34 135q27 51 81.5 94t156.5 43q66 0 113 -19.5t75 -49.5q16 29 17 69h67q0 -43 -11 -73.5t-28 -53.5q29 -55 35 -100q4 -23 4 -45v-445q-2 -29 -12 -51q-10 -20 -30.5 -35.5 t-59.5 -15.5t-59.5 15.5t-30.5 35.5q-10 23 -12 51v170q-2 37 -17 68q-12 27 -39.5 48.5t-79.5 21.5q-53 0 -80.5 -21.5t-39.5 -48.5q-14 -31 -17 -68v-14q33 14 68 14q51 0 79.5 -21.5t41.5 -45.5q14 -31 16 -68q-2 -39 -16 -69q-12 -27 -41 -47.5t-80 -20.5t-79 20.5 t-40 47.5q-14 31 -16 69zM137 137q0 -20 8 -35q6 -14 19.5 -24t40.5 -10t41 10t20 24q8 14 8 35q0 18 -8 33q-6 12 -20 23.5t-41 11.5t-40 -11.5t-20 -23.5q-8 -14 -8 -33z" />
<glyph unicode="&#xe2b;" horiz-adv-x="753" d="M70 682q0 51 20.5 80t46.5 41q31 14 70 16q37 -2 67 -16q27 -12 48.5 -41t21.5 -80v-137q0 -51 -21.5 -85t-47 -63.5t-47 -57.5t-21.5 -67v-135q0 -20 8 -35q6 -14 19.5 -24t39.5 -10h68q27 0 41 10t20 24q8 14 9 35v340q-2 18 4 37q6 35 37 66q-16 16 -24.5 32.5 t-12.5 32.5q-6 18 -4 37q2 37 16 68q12 27 40 48t79 21t79.5 -21.5t41.5 -47.5q14 -31 16 -68q0 -18 -6 -37q-4 -16 -12.5 -32.5t-24.5 -32.5q16 -16 24.5 -33t12.5 -33q6 -18 6 -37v-477h-68v477q0 18 -8 35q-6 12 -20.5 23.5t-40.5 11.5q-27 0 -40 -11.5t-20 -23.5 q-8 -16 -8 -35v-340q-2 -39 -16 -69q-12 -27 -41 -47.5t-80 -20.5h-68q-51 0 -78.5 20.5t-39.5 47.5q-14 31 -17 69v135q0 51 21.5 86t46 64t46 57.5t21.5 65.5v18q-12 -8 -24 -11t-23 -5q-10 -2 -20 -2q-39 2 -70 16q-27 12 -47 40t-20 81zM137 682q0 -27 10.5 -40 t24.5 -19q15 -9 35 -9q18 0 33 9q12 6 23 19t11 40t-11 40t-23 19q-14 8 -33 9q-20 0 -35 -9q-14 -6 -24.5 -20t-10.5 -39zM479 682q0 -20 8 -35q6 -12 19.5 -22.5t40.5 -10.5t41 10.5t20 22.5q8 14 8 35q0 18 -8 35q-6 12 -20 23.5t-41 11.5t-40 -11.5t-20 -23.5 q-8 -16 -8 -35z" />
<glyph unicode="&#xe2c;" horiz-adv-x="686" d="M70 137v137q0 51 15 90t37.5 70t50.5 58.5t50 56.5q-6 -2 -16 -2q-53 0 -81 20.5t-40 46.5q-14 31 -16 70q2 37 16 68q12 25 40 46t81 21q51 0 79.5 -21.5t41.5 -45.5q14 -31 16 -68v-2q0 -4 -2 -6q-2 -74 -34 -123t-69.5 -90t-68.5 -83t-31 -106v-137q0 -27 10.5 -40 t22.5 -19q14 -8 35 -8q29 2 51 12q18 10 34.5 30.5t16.5 59.5v272h68v-272q0 -39 15.5 -59.5t35.5 -30.5q23 -10 51 -12q18 0 35 8q12 6 23.5 19.5t11.5 39.5v758q-35 -6 -70 -6q-51 0 -78.5 20.5t-40.5 46.5q-14 29 -16 68q2 37 16 68q12 27 40 48t79 21t80 -21.5t41 -47.5 q14 -31 16 -68v-20q25 23 39.5 49t20.5 51q8 29 8 57h70q-4 -49 -19 -94q-14 -39 -40.5 -80t-78.5 -67v-783q0 -53 -21.5 -80.5t-47.5 -40.5q-31 -14 -68 -16q-27 0 -49 8q-23 6 -45.5 19.5t-40.5 35.5q-20 -23 -42.5 -36t-45.5 -19q-25 -8 -49 -8q-39 2 -70 16 q-27 12 -47 40t-20 81zM139 684q0 -20 8 -35q6 -14 19.5 -24.5t40.5 -10.5q20 0 33.5 8.5t20.5 18.5t10 20.5t3 16.5v6q0 18 -8 33q-6 12 -20.5 23.5t-38.5 11.5q-27 0 -40 -11.5t-20 -23.5q-8 -14 -8 -33zM412 1024q0 -20 8 -35q6 -12 19.5 -22.5t39.5 -10.5q20 0 36.5 2.5 t33.5 6.5v59q0 18 -8 35q-6 12 -20.5 23.5t-41.5 11.5t-40 -11.5t-19 -23.5q-8 -16 -8 -35z" />
<glyph unicode="&#xe2d;" horiz-adv-x="684" d="M70 205v137q2 37 16 68q12 25 40 46t79 21t79.5 -21.5t41.5 -45.5q14 -31 16 -68q-2 -39 -16 -70q-12 -27 -41 -47t-80 -20q-39 0 -68 16v-16q2 -39 17 -70q12 -27 39.5 -47t80.5 -20h136q51 0 79.5 20.5t40.5 46.5q14 31 17 70v342q-4 57 -27 102q-20 39 -60 71t-118 32 t-120 -32t-60 -71q-23 -45 -25 -102h-67q4 76 34 135q27 51 81.5 94t156.5 43q100 0 155.5 -43t82.5 -94q31 -59 34 -135v-342q-4 -57 -26 -103q-20 -39 -60.5 -70.5t-117.5 -31.5h-136q-78 0 -119.5 31.5t-60.5 70.5q-23 45 -24 103zM137 342q0 -20 8 -35q6 -14 19.5 -24.5 t40.5 -10.5t41 10.5t20 24.5q8 14 8 35q0 18 -8 33q-6 12 -20 23.5t-41 11.5t-40 -11.5t-20 -23.5q-8 -14 -8 -33z" />
<glyph unicode="&#xe2e;" horiz-adv-x="684" d="M70 205v137q2 37 16 68q12 25 40 46t79 21t79.5 -21.5t41.5 -45.5q14 -31 16 -68q-2 -39 -16 -70q-12 -27 -41 -47t-80 -20q-39 0 -68 16v-16q2 -39 17 -70q12 -27 39.5 -47t80.5 -20h136q51 0 79.5 20.5t40.5 46.5q14 31 17 70v342q-2 14 -4 31q-4 14 -7.5 31.5 t-13.5 35.5q-20 -12 -39.5 -17t-36.5 -10q-20 -4 -36 -4v68q10 0 22 2q10 2 22.5 5t26.5 11q-23 23 -56.5 37.5t-82.5 14.5q-78 0 -120 -32t-60 -71q-23 -45 -25 -102h-67q4 76 34 135q27 51 81.5 94t156.5 43q66 0 113 -19.5t75 -49.5q16 29 17 69h67q0 -43 -11 -73.5 t-28 -53.5q29 -55 35 -100q4 -23 4 -45v-342q-4 -57 -26 -103q-20 -39 -60.5 -70.5t-117.5 -31.5h-136q-78 0 -119.5 31.5t-60.5 70.5q-23 45 -24 103zM137 342q0 -20 8 -35q6 -14 19.5 -24.5t40.5 -10.5t41 10.5t20 24.5q8 14 8 35q0 18 -8 33q-6 12 -20 23.5t-41 11.5 t-40 -11.5t-20 -23.5q-8 -14 -8 -33z" />
<glyph unicode="&#xe2f;" horiz-adv-x="1095" d="M2 680v2q2 37 16 68q12 27 40 48t81 21q51 0 79 -21.5t40 -47.5q14 -31 16 -68q-2 -39 -16 -70q-12 -27 -40 -47t-79 -20q-2 0 -3 1t-3 1q18 -16 45 -25.5t64 -9.5q63 0 98 25.5t51 58.5q18 37 21 86v137h67v-819h-67v508q-27 -29 -68 -47.5t-102 -18.5q-86 0 -135.5 35 t-72 78t-27.5 81t-5 44zM70 682q2 -20 10 -35q6 -12 19.5 -22.5t39.5 -10.5q25 0 39.5 10.5t20.5 22.5q8 14 8 35q0 18 -8 33q-6 12 -20.5 23.5t-39.5 11.5q-27 0 -40 -11.5t-19 -23.5q-8 -14 -10 -33z" />
<glyph unicode="&#xe30;" horiz-adv-x="548" d="M70 240q2 37 16 67q12 25 40 46.5t81 21.5q51 0 79.5 -21.5t41.5 -46.5q14 -31 16 -67v-7q0 -6 -4 -18q27 23 42 50.5t21 51.5q8 29 9 58h67q-4 -78 -35 -137q-27 -51 -81 -93.5t-156 -42.5q-53 0 -81 20.5t-40 47.5q-14 31 -16 70zM70 580q2 37 16 67q12 27 40 48.5 t81 21.5q51 0 79.5 -21.5t41.5 -48.5q14 -31 16 -67v-7q0 -6 -4 -18q27 23 42 51.5t21 52.5q8 29 9 58h67q-4 -78 -35 -137q-27 -51 -81 -93.5t-156 -42.5q-53 0 -81 20.5t-40 47.5q-14 29 -16 68zM139 240q0 -20 8 -35q6 -14 19.5 -24.5t40.5 -10.5q25 0 39 10t20 25 q8 14 8 35q0 18 -8 32q-6 12 -20.5 23.5t-38.5 11.5q-27 0 -40 -11t-20 -24q-8 -14 -8 -32zM139 580q0 -20 8 -35q6 -12 19.5 -22.5t40.5 -10.5q25 0 39 10t20 23q8 14 8 35q0 18 -8 34q-6 12 -20 23.5t-39 11.5q-27 0 -40 -11t-20 -24q-8 -16 -8 -34z" />
<glyph unicode="&#xe31;" d="M-479 1024q2 37 16 68q12 25 40 46t81 21q51 0 80 -21.5t41 -45.5q14 -31 16 -68v-6q0 -6 -4 -19q27 23 42 50.5t22 52.5q8 29 8 57h67q-4 -78 -34 -137q-27 -51 -81.5 -93t-156.5 -42q-53 0 -81 20.5t-40 46.5q-14 31 -16 70zM-410 1024q0 -20 9 -35q6 -14 19 -24.5 t40 -10.5q25 0 39 10.5t20 24.5q8 14 9 35q0 18 -9 33q-6 12 -20 23.5t-39 11.5q-27 0 -40 -11.5t-19 -23.5q-9 -15 -9 -33z" />
<glyph unicode="&#xe32;" horiz-adv-x="618" d="M2 547q4 76 35 135q27 51 81 94t156 43t157.5 -43t82.5 -94q31 -59 35 -135v-547h-70v547q-4 57 -26 102q-20 39 -60.5 71t-118.5 32t-119.5 -32t-60.5 -71q-23 -45 -24 -102h-68z" />
<glyph unicode="&#xe33;" horiz-adv-x="618" d="M-342 1024q2 37 16 68q12 25 40 46t79 21t80 -21.5t41 -45.5q14 -31 16 -68q-2 -39 -16 -70q-12 -27 -41 -47t-80 -20t-78.5 20.5t-40.5 46.5q-14 31 -16 70zM-274 1024q0 -20 8 -35q6 -14 19 -24.5t40 -10.5t41 10.5t21 24.5q8 14 8 35q0 18 -8 33q-6 12 -20.5 23.5 t-41.5 11.5t-40 -11.5t-19 -23.5q-8 -14 -8 -33zM2 547q4 76 35 135q27 51 81 94t156 43t157.5 -43t82.5 -94q31 -59 35 -135v-547h-70v547q-4 57 -26 102q-20 39 -60.5 71t-118.5 32t-119.5 -32t-60.5 -71q-23 -45 -24 -102h-68z" />
<glyph unicode="&#xe34;" d="M-479 887v67q2 57 24 103q18 39 60.5 70.5t120.5 31.5t117.5 -31.5t60.5 -70.5q23 -45 26 -103v-67h-409zM-412 954h273q-2 37 -17 68q-12 27 -39.5 48.5t-78.5 21.5q-53 0 -81 -21.5t-40 -48.5q-14 -31 -17 -68z" />
<glyph unicode="&#xe35;" d="M-479 887v67q2 57 24 103q18 39 60.5 70.5t120.5 31.5q47 0 79.5 -12t55.5 -33v45h69v-272h-409zM-412 954h273l-2 22q-2 21 -14.5 47t-40 47.5t-78.5 21.5q-53 0 -81 -21.5t-40 -48.5q-14 -31 -17 -68z" />
<glyph unicode="&#xe36;" d="M-479 887v67q2 57 24 103q18 39 60.5 70.5t120.5 31.5q70 0 114 -29q16 12 37.5 20.5t52.5 8.5q51 0 80 -21.5t41 -45.5q14 -31 17 -68q-2 -39 -17 -70q-12 -27 -40.5 -47t-80.5 -20h-10h-399zM-410 954h222q4 -8 16 -24q-12 14 -18.5 30.5t-10.5 30.5q-4 16 -4 33 q0 12 2 24.5t6 22.5q-31 20 -77 21q-51 0 -79 -21.5t-40 -48.5q-14 -31 -17 -68zM-172 930q10 -12 31 -27q-21 15 -31 27zM-141 903q4 -2 9 -4t11 -4q-12 4 -20 8zM-137 1024q0 -20 8 -35q6 -14 19 -24.5t40 -10.5t41.5 10.5t20.5 24.5q8 14 8 35q0 18 -8 33 q-6 12 -20.5 23.5t-41.5 11.5t-40 -11.5t-19 -23.5q-8 -14 -8 -33z" />
<glyph unicode="&#xe37;" d="M-582 887v67q2 57 25 103q18 39 60 70.5t120 31.5q47 0 80 -12t55 -33v45h70v-272h-410zM-514 954h272l-2 22q-2 21 -14 47t-40 47.5t-79 21.5q-53 0 -80.5 -21.5t-40.5 -48.5q-14 -31 -16 -68zM-137 887v272h67v-272h-67z" />
<glyph unicode="&#xe38;" d="M-342 -207q2 37 16 68q12 27 40 48t79 21t80 -21.5t41 -47.5q14 -31 16 -68v-272h-67v151q-14 -6 -30.5 -10t-39.5 -4q-51 0 -78.5 20.5t-40.5 47.5q-14 29 -16 67zM-274 -207q0 -20 8 -35q6 -12 19 -22t40 -10t41 10t21 22q8 14 8 35q0 18 -8 35q-6 12 -20.5 23.5 t-41.5 11.5t-40 -11.5t-19 -23.5q-8 -16 -8 -35z" />
<glyph unicode="&#xe39;" d="M-547 -207q2 37 17 68q12 27 39.5 48t78.5 21t80 -21.5t41 -47.5q14 -31 17 -68v-135q0 -20 8 -35q6 -14 19.5 -24.5t39.5 -10.5q27 0 41 10.5t21 24.5q8 14 8 35v272h67v-272q-2 -39 -16 -70q-12 -27 -41 -47t-80 -20t-78.5 20.5t-40.5 46.5q-14 31 -16 70v14 q-14 -6 -30.5 -10t-39.5 -4q-51 0 -78.5 20.5t-39.5 47.5q-14 29 -17 67zM-479 -207q0 -20 8 -35q6 -12 19 -22t40 -10t41.5 10t20.5 22q8 14 8 35q0 18 -8 35q-6 12 -20.5 23.5t-41.5 11.5t-40 -11.5t-19 -23.5q-8 -16 -8 -35z" />
<glyph unicode="&#xe3a;" d="M-207 -137q0 18 8 33q6 12 19.5 23t40.5 11t41 -11t20 -23q8 -14 8 -33q0 -20 -8 -35q-6 -12 -20.5 -22.5t-40.5 -10.5q-27 0 -40.5 10.5t-19.5 22.5q-8 14 -8 35z" />
<glyph unicode="&#xe3f;" horiz-adv-x="686" d="M70 0v1159h237v70h70v-78q33 -8 75 -25.5t78.5 -51.5t61 -88t24.5 -134q0 -123 -39.5 -190.5t-89.5 -102.5q33 -12 68 -31.5t63.5 -53.5t47 -83t18.5 -119q0 -102 -43 -156.5t-94 -80.5q-59 -31 -135 -35h-35v-70h-70v70h-237zM139 68h168v444h-168v-444zM139 580h168 v512h-168v-512zM377 68h35q57 2 102 24q39 18 70.5 60.5t31.5 119.5q0 90 -37.5 138.5t-82.5 70.5q-53 27 -119 31v-444zM377 584q20 4 50 17t56.5 43t45 80t18.5 128q0 57 -16.5 98t-42 67.5t-55.5 41t-56 22.5v-497z" />
<glyph unicode="&#xe40;" horiz-adv-x="346" d="M70 135v684h69v-561q29 14 68 14q51 0 79.5 -21.5t41.5 -47.5q14 -31 16 -68q-2 -39 -16 -67q-12 -27 -41 -47.5t-80 -20.5q-53 0 -81 20.5t-40 47.5q-14 29 -16 67zM139 135q0 -20 8 -35q6 -12 19.5 -22t40.5 -10q25 0 39 10t20 22q8 14 8 35q0 18 -8 35q-6 12 -20 23.5 t-39 11.5q-27 0 -40 -11.5t-20 -23.5q-8 -16 -8 -35z" />
<glyph unicode="&#xe41;" horiz-adv-x="655" d="M70 135v684h69v-561q29 14 68 14q51 0 79.5 -21.5t41.5 -47.5q14 -31 16 -68q-2 -39 -16 -67q-12 -27 -41 -47.5t-80 -20.5q-53 0 -81 20.5t-40 47.5q-14 29 -16 67zM139 135q0 -20 8 -35q6 -12 19.5 -22t40.5 -10q25 0 39 10t20 22q8 14 8 35q0 18 -8 35q-6 12 -20 23.5 t-39 11.5q-27 0 -40 -11.5t-20 -23.5q-8 -16 -8 -35zM379 135v684h70v-561q29 14 67 14q51 0 80 -21.5t41 -47.5q14 -31 16 -68q-2 -39 -16 -67q-12 -27 -41 -47.5t-80 -20.5q-53 0 -80.5 20.5t-40.5 47.5q-14 29 -16 67zM449 135q0 -20 8 -35q6 -12 19 -22t40 -10 q25 0 39 10t20 22q8 14 9 35q0 18 -9 35q-6 12 -20 23.5t-39 11.5q-27 0 -40 -11.5t-19 -23.5q-8 -16 -8 -35z" />
<glyph unicode="&#xe42;" horiz-adv-x="581" d="M-35 1026v68q4 76 35 135q27 51 82 94t158 43h340v-68h-340q-78 0 -120 -31.5t-61 -70.5q-23 -45 -24 -102h272v-836q29 16 68 16q51 0 79.5 -21.5t41.5 -47.5q14 -31 16 -68q-2 -39 -16 -69q-12 -27 -41 -47.5t-80 -20.5t-79 20.5t-40 47.5q-14 31 -16 69v889h-275z M307 137q0 -20 8 -35q6 -12 19.5 -22t40.5 -10t41 10t20 22q8 14 8 35q0 18 -8 33q-6 12 -20.5 23.5t-40.5 11.5q-23 0 -36 -8.5t-20.5 -19.5t-9.5 -21.5t-2 -14.5v-4z" />
<glyph unicode="&#xe43;" horiz-adv-x="548" d="M-35 1126v4q0 6 2 13v12q4 25 15.5 60.5t37 69.5t69.5 57.5t116 23.5q37 -2 67 -16q27 -12 48.5 -41t21.5 -80l-2 -973q25 12 47 16q11 2 23 2q37 -2 67 -16q27 -12 48.5 -41t21.5 -80q0 -53 -21.5 -80.5t-48.5 -40.5q-31 -14 -67 -16q-39 2 -70 16q-27 12 -47.5 40 t-20.5 81v1092q0 27 -11 41t-23 20q-14 8 -33 8v-2q-37 0 -63.5 -9t-45.5 -23h6q37 -2 68 -17q27 -12 48.5 -40.5t21.5 -80.5q0 -53 -21.5 -80.5t-48.5 -39.5q-31 -14 -68 -17q-39 2 -69 17q-27 12 -47.5 39.5t-20.5 80.5zM35 1126q0 -27 10 -40t23 -19q14 -8 34 -8 q18 0 33 8q12 6 23.5 19t11.5 40q0 25 -11.5 39.5t-23.5 20.5q-14 8 -33 8q-20 0 -34 -8q-12 -6 -22.5 -20.5t-10.5 -39.5zM340 137q0 -27 10 -40t25 -19q15 -8 35 -8q18 0 32 8q12 6 23.5 19.5t11.5 39.5q0 25 -11 39t-24 21q-14 8 -32 8q-20 0 -35 -8q-14 -6 -24.5 -20.5 t-10.5 -39.5z" />
<glyph unicode="&#xe44;" horiz-adv-x="514" d="M-35 991v375h70v-375q0 -10 4 -18q8 -16 29 -17q23 0 30 17q4 8 4 18v273q2 29 13 51q10 18 30.5 34.5t59.5 16.5t59.5 -16.5t30.5 -34.5q10 -23 12 -51v-1006q29 16 68 16q51 0 79.5 -21.5t41.5 -47.5q14 -31 16 -68q-2 -39 -16 -69q-12 -27 -41 -47.5t-80 -20.5 t-79 20.5t-40 47.5q-14 31 -16 69v1127q0 8 -4 16q-4 6 -11.5 12t-19.5 6q-14 0 -20.5 -6t-10.5 -12q-4 -8 -4 -16v-273q-2 -29 -12 -51q-10 -20 -31 -35.5t-59 -15.5q-39 0 -59.5 15.5t-31.5 35.5q-10 23 -12 51zM307 137q0 -20 8 -35q6 -12 19.5 -22t40.5 -10t41 10t20 22 q8 14 8 35q0 18 -8 33q-6 12 -20.5 23.5t-40.5 11.5q-23 0 -36 -8.5t-19.5 -19.5t-9.5 -21.5t-3 -14.5v-4z" />
<glyph unicode="&#xe45;" horiz-adv-x="618" d="M2 547q4 76 35 135q27 51 81 94t156 43t157.5 -43t82.5 -94q31 -59 35 -135v-889h-70v889q-4 57 -26 102q-20 39 -60.5 71t-118.5 32t-119.5 -32t-60.5 -71q-23 -45 -24 -102h-68z" />
<glyph unicode="&#xe46;" horiz-adv-x="1097" d="M2 682q0 51 20.5 80t47.5 41q31 14 69 16q18 -2 37 -6q16 -4 33.5 -11t34.5 -24q14 16 38.5 28.5t61.5 12.5q51 0 80 -21.5t41 -47.5q14 -31 16 -68v-1024h-67v1024q0 18 -8 35q-6 12 -20.5 23.5t-41.5 11.5t-40 -11.5t-19 -23.5q-8 -16 -9 -35q0 -51 -21.5 -79 t-47.5 -40q-31 -14 -68 -16q-39 2 -69 16q-27 12 -47.5 40t-20.5 79zM72 682q0 -27 10 -40t22 -19q15 -9 35 -9q18 0 35 9q12 6 23.5 19t11.5 40t-11.5 41t-23.5 20q-16 8 -35 9q-20 0 -35 -9q-12 -6 -22 -20t-10 -41z" />
<glyph unicode="&#xe47;" d="M-547 1024v68q2 57 25 102q18 39 60 70.5t120 31.5h340v-67h-340q-53 0 -81 -21.5t-40 -48.5q-14 -31 -16 -67v-68q0 -20 8 -35q6 -14 19.5 -24.5t39.5 -10.5q25 0 39.5 9.5t20.5 21.5t8 23.5t2 13.5v2q2 37 16 68q12 25 40 46t79 21t80 -21.5t41 -45.5q14 -31 16 -68 q-2 -39 -16 -70q-12 -27 -41 -47t-80 -20q-37 0 -61.5 12t-40.5 31q-14 -18 -39 -30.5t-64 -12.5q-51 0 -78.5 20.5t-39.5 46.5q-14 31 -17 70zM-274 1024q0 -20 8 -35q6 -14 19.5 -24.5t39.5 -10.5q27 0 41 10.5t21 24.5q8 14 8 35q0 18 -8 33q-6 12 -20.5 23.5t-41.5 11.5 t-40 -11.5t-19 -23.5q-8 -14 -8 -33z" />
<glyph unicode="&#xe48;" d="M-137 1229v272h67v-272h-67z" />
<glyph unicode="&#xe49;" d="M-342 1229v67h16.5t16.5 2h4q45 6 73.5 24.5t47.5 43.5q-6 -2 -23 -2q-51 0 -78.5 20.5t-40.5 47.5q-14 31 -16 69q2 37 16 68q12 27 40 48t79 21t80 -21.5t41 -47.5q14 -31 16 -68v-2q0 -6 -5 -45t-27 -86q55 37 95 101.5t40 168.5h67q0 -121 -44 -197.5t-105.5 -120.5 t-127 -62.5t-110.5 -24.5q-6 -2 -18 -2q-10 -2 -16.5 -2h-10.5h-10zM-274 1501q0 -20 8 -35q6 -12 19 -22t40 -10t41 10t21 22q8 14 8 35q0 18 -8 33q-6 12 -20.5 23.5t-41.5 11.5t-40 -11.5t-19 -23.5q-8 -14 -8 -33z" />
<glyph unicode="&#xe4a;" d="M-549 1364v137q2 37 17 68q12 27 39.5 48t80.5 21q39 0 62.5 -13t40.5 -30q16 16 39.5 29.5t62.5 13.5q51 0 80 -21.5t41 -47.5q14 -31 16 -68v-67q0 -12 -2 -27q-2 -23 -16 -59q59 33 106.5 101.5t47.5 188.5h69q0 -125 -44 -201.5t-103.5 -121.5t-122 -62.5 t-101.5 -21.5q-8 0 -12 -2h-26v67q14 0 20 2h4q41 4 63.5 27t32.5 47q12 29 15 62v67q0 18 -8 33q-6 12 -20.5 23.5t-39.5 11.5q-27 0 -40 -11.5t-19 -23.5q-8 -14 -8 -33h-70v2q0 2 -1 12.5t-8 22.5t-20.5 21.5t-38.5 9.5q-27 0 -40 -11.5t-19 -23.5q-8 -14 -8 -33v-16 q27 16 67 16q51 0 80 -21.5t41 -47.5q14 -31 17 -68q-2 -39 -17 -68q-12 -27 -40.5 -47t-80.5 -20q-53 0 -80.5 20.5t-39.5 46.5q-14 29 -17 68zM-479 1364q0 -20 8 -35q6 -12 19.5 -22.5t39.5 -10.5q25 0 39.5 10.5t20.5 22.5q8 14 8 35q0 18 -8 35q-6 12 -20.5 23.5 t-39.5 11.5t-38 -9.5t-20 -21.5t-8 -23.5t-1 -13.5v-2z" />
<glyph unicode="&#xe4b;" d="M-274 1366v68h137v137h67v-137h138v-68h-138v-137h-67v137h-137z" />
<glyph unicode="&#xe4c;" d="M-344 1366q0 51 20.5 80t47.5 41q31 14 69 16h135q27 0 41.5 10.5t20.5 22.5q8 14 8 35h68q-2 -39 -17 -70q-12 -27 -40.5 -47t-80.5 -20h-14q16 -27 16 -68q0 -53 -21.5 -81t-47.5 -40q-31 -14 -68 -16q-39 2 -69 16q-27 12 -47.5 40t-20.5 81zM-276 1366q0 -27 10 -40 t24 -19q14 -8 35 -9q18 0 33 9q12 6 23.5 19t11.5 40q0 20 -7.5 33.5t-18.5 20.5t-21.5 10.5t-16.5 3.5h-4l-11 -1t-24.5 -7.5t-23.5 -20.5t-10 -39z" />
<glyph unicode="&#xe4d;" d="M-342 1024q2 37 16 68q12 25 40 46t79 21t80 -21.5t41 -45.5q14 -31 16 -68q-2 -39 -16 -70q-12 -27 -41 -47t-80 -20t-78.5 20.5t-40.5 46.5q-14 31 -16 70zM-274 1024q0 -20 8 -35q6 -14 19.5 -24.5t39.5 -10.5q27 0 41 10.5t21 24.5q8 15 8 35q0 18 -8 33 q-6 12 -20.5 23.5t-41.5 11.5t-40 -11.5t-19 -23.5q-8 -14 -8 -33z" />
<glyph unicode="&#xe4e;" d="M-379 989q0 27 8.5 40t24.5 28q-16 16 -24.5 29.5t-8.5 39.5q0 39 15.5 59.5t35.5 31.5q23 10 52 12h135v-70h-135q-10 0 -19 -4q-16 -8 -16 -29q0 -23 16 -30q8 -4 19 -4h32v-68h-32q-4 0 -19.5 -4t-15.5 -31q0 -23 16 -31q8 -4 19 -4h67v-67h-67q-29 2 -52 12 q-20 10 -35.5 30.5t-15.5 59.5z" />
<glyph unicode="&#xe4f;" horiz-adv-x="643" d="M49 410q4 76 35 135q27 51 81.5 94t156.5 43q100 0 155 -43t82 -94q31 -59 35 -135q-4 -78 -35 -138q-27 -51 -81 -93t-156 -42t-156.5 42t-81.5 93q-31 59 -35 138zM117 410q2 -57 24 -103q18 -39 60.5 -70.5t120.5 -31.5t117.5 31.5t60.5 70.5q23 45 26 103 q-4 57 -26 102q-20 39 -60.5 70.5t-117.5 31.5q-78 0 -120 -31.5t-61 -70.5q-23 -45 -24 -102zM184 410q2 37 17 67q12 27 40 48.5t81 21.5q51 0 79.5 -21.5t40.5 -48.5q14 -31 17 -67q-2 -39 -17 -70q-12 -27 -40.5 -47.5t-79.5 -20.5q-53 0 -81 20.5t-40 47.5 q-14 31 -17 70z" />
<glyph unicode="&#xe50;" horiz-adv-x="780" d="M49 342q6 94 43 170q16 31 41 61.5t60.5 55t83.5 39t114 14.5q63 0 111.5 -14.5t84.5 -39t60.5 -55t40.5 -61.5q37 -76 43 -170q-6 -96 -43 -172q-16 -33 -40.5 -63.5t-60.5 -54t-84 -38t-112 -14.5q-66 0 -114 14.5t-83.5 38t-60 54t-41.5 63.5q-37 76 -43 172zM117 342 q4 -78 35 -137q27 -53 82 -95t157 -42t156.5 42t81.5 95q31 59 35 137q-4 76 -35 135q-27 51 -82 94t-156 43q-102 0 -157.5 -43t-81.5 -94q-31 -59 -35 -135z" />
<glyph unicode="&#xe51;" horiz-adv-x="780" d="M49 342q6 94 43 170q16 31 41 61.5t60.5 55t83.5 39t114 14.5q63 0 111.5 -14.5t84.5 -39t60.5 -55t40.5 -61.5q37 -76 43 -170q-6 -96 -43 -172q-16 -33 -40.5 -63.5t-60.5 -54t-84 -38t-112 -14.5v68q102 0 156.5 42t81.5 95q31 59 35 137q-4 76 -35 135q-27 51 -82 94 t-156 43q-102 0 -157.5 -43t-81.5 -94q-31 -59 -35 -135q0 -49 20 -86q16 -33 51 -59.5t101 -26.5q16 0 35 4q16 4 34.5 10t36.5 21h-4q-53 0 -80.5 20.5t-40.5 46.5q-14 31 -16 70q2 37 16 68q12 25 40 46t81 21q51 0 79 -21.5t40 -45.5q14 -31 16 -68v-10q-4 -86 -42 -132 t-81 -69q-53 -25 -114 -29q-90 0 -138.5 37t-70.5 82q-27 53 -31 121zM322 342q0 -20 8 -35q6 -14 20.5 -24.5t40.5 -10.5q20 0 33.5 7.5t21 18.5t10.5 21.5t3 16.5v6q0 18 -8 33q-6 12 -20.5 23.5t-39.5 11.5q-27 0 -41 -11.5t-20 -23.5q-8 -15 -8 -33z" />
<glyph unicode="&#xe52;" horiz-adv-x="712" d="M-18 752v67q37 -2 67 -16q27 -12 48.5 -41t21.5 -80l2 -512q2 -29 12 -51q10 -20 28.5 -35.5t57.5 -15.5h275q39 0 59 15t31 36q10 23 12 51v377q0 18 -8 33q-6 12 -20.5 23t-41.5 11t-40 -11t-19 -23q-8 -14 -8 -33h-68l-1 11t-8 23.5t-21.5 22.5t-38.5 10 q-27 0 -40.5 -11t-19.5 -23q-8 -14 -8 -33v-84q33 14 68 14q51 0 79.5 -21.5t40.5 -45.5q14 -31 17 -68q-2 -39 -17 -70q-12 -27 -40.5 -47t-79.5 -20t-79 21.5t-40.5 47t-14.5 46.5l-2 22v205q2 37 17 67q12 25 39.5 46.5t79.5 21.5q39 0 63.5 -12.5t38.5 -28.5 q16 16 40.5 28.5t61.5 12.5q51 0 80 -21.5t41 -46.5q14 -31 17 -67v-377q-2 -49 -21 -86q-16 -33 -51 -58.5t-98 -25.5h-275q-66 0 -98.5 25.5t-48.5 58.5q-18 37 -21 86l-2 512q0 27 -11 41t-24 20q-14 8 -32 9zM254 342q0 -20 8 -35q6 -14 19.5 -24.5t40.5 -10.5t41 10.5 t20 24.5q8 14 8 35q0 18 -8 33q-6 12 -20 23.5t-41 11.5t-40.5 -11.5t-19.5 -23.5q-8 -14 -8 -33z" />
<glyph unicode="&#xe53;" horiz-adv-x="710" d="M49 137v375q2 47 21 84q16 33 50 59.5t99 26.5q53 0 86 -18.5t49 -45.5q18 27 51 45.5t87 18.5q63 0 98 -26.5t50 -58.5t18 -59l4 -26v-512h-68v512q-2 29 -12 51q-10 18 -31 34.5t-59 16.5q-39 0 -59.5 -16t-31.5 -35q-10 -23 -12 -51v-205h-67v205q-2 29 -13 51 q-10 18 -30.5 34.5t-59.5 16.5t-59.5 -16t-30.5 -35q-10 -23 -12 -51v-254q14 6 29.5 10t37.5 4q51 0 80 -21.5t41 -45.5q14 -31 17 -68q-2 -39 -17 -69q-12 -27 -40.5 -47.5t-80.5 -20.5q-51 0 -78.5 21.5t-40 47t-14.5 47.5zM117 137q0 -20 8 -35q6 -14 19.5 -24t39.5 -10 q27 0 41.5 10t20.5 24q8 14 8 35q0 18 -8 33q-6 12 -20.5 23.5t-41.5 11.5t-40 -11.5t-19 -23.5q-8 -14 -8 -33z" />
<glyph unicode="&#xe54;" horiz-adv-x="677" d="M49 170v342q0 63 25.5 98t58.5 52q37 18 86 20h342q39 0 59.5 15.5t30.5 35.5q10 23 13 51h67q-2 -49 -20 -86q-16 -33 -51 -58.5t-99 -25.5h-342q-29 -2 -51 -12q-20 -10 -35.5 -30.5t-15.5 -59.5v-342q0 -39 15 -59.5t36 -30.5q23 -10 51 -12h119q-35 29 -58.5 77 t-25.5 119v8q2 37 16 68q12 27 40 48.5t79 21.5t80 -21.5t41 -48.5q14 -31 16 -68q-2 -39 -16 -67q-12 -27 -41 -47.5t-80 -20.5h-22q23 -27 50 -41t52 -20q29 -8 57 -8h103v-68h-410q-49 2 -86 20q-33 16 -58.5 50t-25.5 100zM322 268q0 -6 3 -16t10 -20.5t19.5 -18.5 t34.5 -8q27 0 41 10t21 23q8 14 8 34q0 18 -8 35q-6 12 -20.5 23.5t-41.5 11.5t-40 -11.5t-19 -23.5q-8 -16 -8 -35v-4z" />
<glyph unicode="&#xe55;" horiz-adv-x="677" d="M49 170v342q0 63 25.5 98t58.5 52q37 18 86 20h51q-6 12 -9 24.5t-5 22.5t-2 23q2 37 16 67q12 27 40 48.5t79 21.5t80 -21.5t41 -48.5q14 -31 16 -67q-2 -12 -4 -23q-4 -27 -14 -47h53q39 0 59.5 15.5t30.5 35.5q10 23 13 51h67q-2 -49 -20 -86q-16 -33 -51 -58.5 t-99 -25.5h-162h-10h-10h-160q-29 -2 -51 -12q-20 -10 -35.5 -30.5t-15.5 -59.5v-342q0 -39 15 -59.5t36 -30.5q23 -10 51 -12h119q-35 29 -58.5 77t-25.5 119v8q2 37 16 68q12 27 40 48.5t79 21.5t80 -21.5t41 -48.5q14 -31 16 -68q-2 -39 -16 -67q-12 -27 -41 -47.5 t-80 -20.5h-22q23 -27 50 -41t52 -20q29 -8 57 -8h103v-68h-410q-49 2 -86 20q-33 16 -58.5 50t-25.5 100zM322 268q0 -6 3 -16t10 -20.5t19.5 -18.5t34.5 -8q27 0 41 10t21 23q8 14 8 34q0 18 -8 35q-6 12 -20.5 23.5t-41.5 11.5t-40 -11.5t-19 -23.5q-8 -16 -8 -35v-4z M322 752q0 -20 8 -35q6 -12 19 -22.5t40 -10.5t41 10.5t21 22.5q8 14 8 35q0 18 -8 32q-6 12 -20.5 23.5t-41.5 11.5t-40 -11t-19 -24q-8 -14 -8 -32z" />
<glyph unicode="&#xe56;" horiz-adv-x="610" d="M-121 784h68q2 -29 12 -51q10 -20 30.5 -35.5t59.5 -15.5h172q94 -6 170 -43q31 -16 61.5 -41t55 -60.5t39 -83.5t14.5 -112q-6 -96 -43 -172q-16 -33 -40.5 -63.5t-60.5 -54t-85 -38t-113 -14.5q-57 2 -102 25q-39 18 -70 60t-31 120q0 51 20.5 79.5t47.5 41.5 q29 14 68 16q37 -2 67 -16q27 -12 48.5 -41t21.5 -80q0 -35 -10.5 -58.5t-25.5 -39t-33.5 -23.5t-33.5 -10q12 -6 23 -6h10q102 0 157.5 42t82.5 95q31 59 35 137q0 100 -43 155.5t-95 82.5q-59 31 -135 34h-172q-66 0 -99.5 26t-49.5 58q-18 37 -21 86zM84 205 q0 -27 10 -40t23 -20q14 -8 35 -8q18 0 34 8q12 6 23.5 19.5t11.5 40.5q0 25 -11 39t-24 20q-16 8 -34 8q-20 0 -35 -8q-12 -6 -22.5 -20.5t-10.5 -38.5z" />
<glyph unicode="&#xe57;" horiz-adv-x="780" d="M49 137v375q2 47 21 84q16 33 50 59.5t99 26.5q39 0 62.5 -15.5t40.5 -37.5q16 23 39.5 38t62.5 15q63 0 98 -26.5t51.5 -58.5t19.5 -59l3 -26v-444q25 0 39 10t20 24q8 14 9 35v647h67v-647q-2 -39 -16 -69q-12 -27 -40 -47.5t-79 -20.5h-70v512q-2 29 -12 51 q-10 18 -30.5 34.5t-59.5 16.5q-27 0 -40 -16t-19 -35q-8 -23 -9 -51v-170h-67l-2 170q0 29 -8 51q-6 18 -19.5 34.5t-40.5 16.5q-39 0 -59.5 -16t-30.5 -35q-10 -23 -12 -51v-254q33 14 67 14q51 0 80 -21.5t41 -45.5q14 -31 17 -68q-2 -39 -17 -69q-12 -27 -40.5 -47.5 t-80.5 -20.5q-51 0 -78.5 21.5t-40 47t-14.5 47.5zM117 137q0 -20 8 -35q6 -14 19.5 -24t39.5 -10q27 0 41.5 10t20.5 24q8 14 8 35q0 18 -8 33q-6 12 -20.5 23.5t-41.5 11.5t-40 -11.5t-19 -23.5q-8 -14 -8 -33z" />
<glyph unicode="&#xe58;" horiz-adv-x="712" d="M49 170v342q0 63 25.5 98t58.5 52q37 18 86 20h342q39 0 59.5 15.5t30.5 35.5q10 23 13 51h67q-2 -49 -20 -86q-16 -33 -51 -58.5t-99 -25.5h-342q-29 -2 -51 -12q-20 -10 -35.5 -30.5t-15.5 -59.5v-342q0 -39 15 -59.5t36 -30.5q23 -10 51 -12h35v204h68q0 -59 21.5 -97 t49.5 -60q-2 6 -2 16v6q2 37 17 68q12 25 39.5 46t78.5 21t80 -21.5t41 -45.5q14 -31 17 -68q-2 -39 -17 -69q-12 -27 -40.5 -47.5t-80.5 -20.5h-16q-4 2 -10 2q-31 4 -83 20.5t-95 61.5v-84h-103q-49 2 -86 20q-33 16 -58.5 50t-25.5 100zM459 137q0 -20 8 -35 q6 -14 19.5 -24t39.5 -10q25 0 39.5 10t20.5 24q8 14 8 35q0 18 -8 33q-6 12 -19.5 23.5t-40.5 11.5t-40 -11.5t-19 -23.5q-8 -15 -8 -33z" />
<glyph unicode="&#xe59;" horiz-adv-x="712" d="M49 137v375q2 47 21 84q16 33 50 59.5t99 26.5q53 0 86 -18.5t51 -45.5q18 27 50 45.5t86 18.5h69q39 0 59.5 15.5t30.5 35.5q10 23 13 51h67q-2 -49 -20 -86q-16 -33 -51 -58.5t-99 -25.5h-69q-39 0 -59.5 -16t-31.5 -35q-10 -23 -12 -51q0 -84 11.5 -147.5t31 -110.5 t44 -79t50.5 -52q59 -49 138 -55v-68q-96 8 -172 63q-33 25 -64 62t-54.5 91t-37.5 127t-14 169q0 2 -2.5 18.5t-11.5 35t-30.5 33.5t-58.5 15q-39 0 -59.5 -16t-30.5 -35q-10 -23 -12 -51v-254q33 14 67 14q51 0 80 -21.5t41 -45.5q14 -31 17 -68q-2 -39 -17 -69 q-12 -27 -40.5 -47.5t-80.5 -20.5q-51 0 -78.5 21.5t-40 47t-14.5 47.5zM117 137q0 -20 8 -35q6 -14 19.5 -24t39.5 -10q27 0 41.5 10t20.5 24q8 14 8 35q0 18 -8 33q-6 12 -20.5 23.5t-41.5 11.5t-40 -11.5t-19 -23.5q-8 -14 -8 -33z" />
<glyph unicode="&#xe5a;" horiz-adv-x="751" d="M70 680v2q2 37 16 68q12 27 40 48t81 21q51 0 78.5 -21.5t40.5 -47.5q14 -31 16 -68q-2 -39 -16 -70q-12 -27 -40 -47t-79 -20q-2 0 -3 1t-3 1q18 -16 44.5 -25.5t63.5 -9.5q63 0 98 25.5t52 58.5q18 37 20 86v137h68v-819h-68v508q-27 -29 -67.5 -47.5t-102.5 -18.5 q-86 0 -135 35t-71.5 78t-27.5 81t-5 44zM137 682q2 -20 10 -35q6 -12 19.5 -22.5t40.5 -10.5q25 0 39 10.5t20 22.5q8 14 8 35q0 18 -8 33q-6 12 -20 23.5t-39 11.5q-27 0 -40 -11.5t-20 -23.5q-8 -14 -10 -33zM614 0v819h68v-819h-68z" />
<glyph unicode="&#xe5b;" horiz-adv-x="1572" d="M70 410q0 76 14 135t37.5 102t54.5 73t64 48q74 45 170 51q94 -6 170 -51q33 -18 63.5 -48t55 -73t39 -102.5t14.5 -134.5q-4 -78 -35 -138q-27 -53 -81 -95t-157 -42v70q78 0 118 31.5t60 70.5q23 45 27 103q0 127 -43 195.5t-94 101.5q-61 37 -137 43q-78 -6 -138 -43 q-51 -33 -93 -101.5t-42 -195.5q0 -66 14.5 -114t38 -84t54 -60.5t63.5 -40.5q76 -37 172 -43q94 6 170 43q31 16 61.5 40.5t55.5 60.5t39 84t14 114v32h70v-32q0 -20 8 -35q6 -14 19.5 -24.5t39.5 -10.5q25 0 38.5 10t20.5 22.5t8 23t1 12.5v34h70v-32l1 -12q1 -11 7 -24.5 t20.5 -23.5t38.5 -10q25 0 39 10t21 25q8 14 8 35v32h69v-32q0 -20 9 -35q6 -14 19 -24.5t40 -10.5h137v-68h-137q-39 0 -62.5 12.5t-39.5 30.5q-16 -18 -40 -30.5t-63 -12.5t-62.5 12.5t-39.5 30.5q-16 -18 -40 -30.5t-63 -12.5q-47 0 -82 25q-27 -113 -91 -173.5 t-132 -86.5q-80 -33 -172 -37q-115 6 -205 51q-39 18 -75.5 48t-65.5 73t-46 101.5t-17 136.5z" />
<glyph unicode="&#xe81;" horiz-adv-x="686" d="M70 135q2 37 16 68q12 27 40 48t81 21q41 0 67 -16v84q0 23 -16 31q-8 4 -16 4q-66 0 -101 25.5t-51 58.5q-20 37 -20 86q4 76 34 137q27 51 82.5 94t157.5 43q100 0 155.5 -43t82.5 -94q31 -61 34 -137v-545h-67v545q-4 57 -27 102q-20 39 -60 71t-118 32t-120 -32 t-60 -71q-23 -45 -25 -102q2 -29 13 -51q10 -20 30.5 -36t59.5 -16q29 -2 51 -12q18 -10 34.5 -30.5t16.5 -59.5v-205q-2 -39 -16 -67q-12 -27 -41 -47.5t-80 -20.5q-53 0 -81 20.5t-40 47.5q-14 29 -16 67zM139 135q0 -20 8 -35q6 -12 19.5 -22t40.5 -10q25 0 39 10t20 22 q8 14 8 35v2q0 2 -2 13.5t-8 23.5t-19.5 21.5t-37.5 9.5q-27 0 -40 -11.5t-20 -23.5q-8 -16 -8 -35z" />
<glyph unicode="&#xe82;" horiz-adv-x="684" d="M70 205q0 68 35.5 100.5t88 48t115 21.5t114.5 21.5t88 48t36 100.5q-4 57 -27 102q-20 39 -60 71t-118 32q-59 0 -97 -20.5t-61 -49.5q8 2 23 2q51 0 78.5 -21.5t40.5 -48.5q14 -31 16 -67q-2 -39 -16 -68q-12 -27 -40 -47t-79 -20q-53 0 -81 20.5t-40 46.5 q-14 29 -16 68q4 76 34 135q27 51 81.5 94t156.5 43q100 0 155.5 -43t82.5 -94q31 -59 34 -135q0 -84 -34.5 -128t-88 -65.5t-115 -28t-114.5 -15.5t-88 -30.5t-35 -72.5q2 -39 25 -68q18 -27 59 -47t119 -20t118 30.5t60 69.5q23 45 27 102h67v-272h-67v86 q-29 -35 -78 -60.5t-127 -25.5q-104 0 -157.5 31.5t-80.5 70.5q-31 45 -34 103zM139 545q0 -20 8 -35q6 -12 19.5 -22.5t40.5 -10.5q25 0 39 10.5t20 22.5q8 15 8 35q0 18 -8 35q-6 12 -20.5 23t-38.5 11q-27 0 -40 -11t-20 -23q-8 -16 -8 -35z" />
<glyph unicode="&#xe84;" horiz-adv-x="684" d="M70 137v137q0 25 8 50q6 20 18.5 43.5t34.5 42.5q-23 18 -35 41.5t-18 46.5q-8 25 -8 49q4 76 34 135q27 51 81.5 94t156.5 43q100 0 155.5 -43t82.5 -94q31 -59 34 -135v-547h-67v547q-4 57 -27 102q-20 39 -60 71t-118 32t-120 -32t-60 -71q-23 -45 -25 -102 q2 -29 13 -51q10 -20 30.5 -36t59.5 -16v-67q-39 0 -59.5 -16.5t-30.5 -34.5q-10 -23 -13 -52v-16q29 16 68 16q51 0 79.5 -21.5t41.5 -47.5q14 -31 16 -68q-2 -39 -16 -69q-12 -27 -41 -47.5t-80 -20.5t-79 20.5t-40 47.5q-14 31 -16 69zM137 137q0 -20 8 -35 q6 -12 19.5 -22t40.5 -10t41 10t20 22q8 14 8 35q0 18 -8 33q-6 12 -20 23.5t-41 11.5t-40 -11.5t-20 -23.5q-8 -14 -8 -33z" />
<glyph unicode="&#xe87;" horiz-adv-x="618" d="M2 614q0 10 4 27q10 66 52 102.5t92 53.5q54 20 126 22q76 -4 136 -35q51 -27 94 -82t43 -155v-617q0 -102 -43 -156.5t-94 -80.5q-59 -31 -136 -35h-137v68h137q57 2 103 24q39 18 70.5 60.5t31.5 119.5v617q0 78 -31.5 119t-70.5 59q-45 23 -103 25q-12 0 -24 -2 q-10 -2 -25.5 -3.5t-31.5 -5.5q29 -10 55 -37.5t26 -87.5q0 -53 -21.5 -80.5t-47.5 -39.5q-31 -14 -68 -17q-39 2 -69 17q-27 12 -47.5 39.5t-20.5 80.5zM72 614q0 -27 10 -41t22 -20q15 -8 35 -8q18 0 35 8q12 6 23.5 20.5t11.5 40.5q0 25 -11.5 39.5t-23.5 20.5 q-16 8 -35 8q-20 0 -35 -8q-12 -6 -22 -20.5t-10 -39.5z" />
<glyph unicode="&#xe88;" horiz-adv-x="616" d="M2 547q4 76 35 135q27 51 81 94t156 43q100 0 155.5 -43t82.5 -94q31 -59 35 -135v-547h-68v272q0 59 -20.5 97.5t-48.5 60.5q0 -4 1 -9t1 -11q0 -53 -21.5 -81t-48.5 -40q-31 -14 -68 -17q-39 2 -69 17q-27 12 -47.5 39.5t-20.5 81.5q0 51 20.5 79.5t47.5 40.5 q31 14 69 17h2q4 0 26 -2t51.5 -10.5t63.5 -24.5t62 -47v84q-4 57 -26 102q-20 39 -60.5 71t-118.5 32t-119.5 -32t-60.5 -71q-23 -45 -24 -102h-68zM207 410q0 -27 10 -40.5t23 -19.5q14 -8 34 -8q18 0 33 8q12 6 23.5 19.5t11.5 40.5q0 25 -11.5 39t-23.5 20q-15 8 -33 8 q-20 0 -34 -8q-12 -6 -22.5 -20.5t-10.5 -38.5z" />
<glyph unicode="&#xe8a;" horiz-adv-x="684" d="M70 205q0 68 35.5 100.5t88 48t115 21.5t114.5 21.5t88 48t36 100.5q-4 57 -27 102q-20 39 -60 71t-118 32q-59 0 -97 -20.5t-61 -49.5q8 2 23 2q51 0 78.5 -21.5t40.5 -48.5q14 -31 16 -67q-2 -39 -16 -68q-12 -27 -40 -47t-79 -20q-53 0 -81 20.5t-40 46.5 q-14 29 -16 68q4 76 34 135q27 51 81.5 94t156.5 43q100 0 155.5 -43t82.5 -94q31 -59 34 -135q0 -84 -34.5 -128t-88 -65.5t-115 -28t-114.5 -15.5t-88 -30.5t-35 -72.5q2 -39 25 -68q18 -27 59 -47t119 -20t118 30.5t60 69.5q23 45 27 102h67v-614h-67v428 q-29 -35 -78 -60.5t-127 -25.5q-104 0 -157.5 31.5t-80.5 70.5q-31 45 -34 103zM139 545q0 -20 8 -35q6 -12 19.5 -22.5t40.5 -10.5q25 0 39 10.5t20 22.5q8 15 8 35q0 18 -8 35q-6 12 -20.5 23t-38.5 11q-27 0 -40 -11t-20 -23q-8 -16 -8 -35z" />
<glyph unicode="&#xe8d;" horiz-adv-x="684" d="M70 205q0 102 41 156.5t92 80.5q-47 27 -74 65t-40 74.5t-16 65.5t-3 33v2q2 37 16 68q12 27 40 48t79 21t79.5 -21.5t41.5 -47.5q14 -31 16 -68q-2 -39 -16 -68q-12 -27 -41 -47t-80 -20h-21q23 -29 61 -49.5t97 -20.5v-67q-4 0 -36 -4.5t-69.5 -24t-68.5 -60 t-31 -116.5q2 -39 17 -70q12 -27 39.5 -47t80.5 -20h136q51 0 79.5 20.5t40.5 46.5q14 31 17 70v614h67v-614q-4 -57 -26 -103q-20 -39 -60.5 -70.5t-117.5 -31.5h-136q-78 0 -119.5 31.5t-60.5 70.5q-23 45 -24 103zM137 682q0 -20 8 -35q6 -12 19.5 -22.5t40.5 -10.5 t41 10.5t20 22.5q8 14 8 35q0 18 -8 35q-6 12 -20 23.5t-41 11.5t-40 -11.5t-20 -23.5q-8 -16 -8 -35z" />
<glyph unicode="&#xe94;" horiz-adv-x="686" d="M70 205v342q4 76 34 135q27 51 82.5 94t157.5 43q100 0 155.5 -43t82.5 -94q31 -59 34 -135v-547h-67v547q-4 57 -27 102q-20 39 -60 71t-118 32t-120 -32t-60 -71q-23 -45 -25 -102v-342q2 -39 17 -70q12 -27 39.5 -47t78.5 -20t80 20.5t41 46.5q14 31 17 70v14 q-33 -14 -68 -14q-53 0 -80.5 20.5t-40.5 46.5q-14 31 -16 70q2 37 16 68q12 25 40 46t81 21q51 0 79 -21.5t40 -45.5q14 -31 16 -68v-137q-4 -57 -26 -103q-20 -39 -60.5 -70.5t-118.5 -31.5t-119.5 31.5t-60.5 70.5q-23 45 -24 103zM274 342q0 -20 9 -35q6 -14 20 -24.5 t41 -10.5q25 0 39 10.5t20 24.5q8 14 9 35q0 18 -9 33q-6 12 -20 23.5t-39 11.5q-27 0 -41 -11.5t-20 -23.5q-8 -14 -9 -33z" />
<glyph unicode="&#xe95;" horiz-adv-x="686" d="M70 205v477q0 51 20.5 80t46.5 41q31 14 70 16q25 0 49 -8q23 -6 45.5 -19.5t42.5 -35.5q18 23 41 36t45 19q22 8 49 8q37 -2 68 -16q27 -12 48 -41t21 -80v-682h-67v682q0 27 -11.5 41t-23.5 20q-16 8 -35 9q-29 -2 -51 -13q-20 -10 -35.5 -30.5t-15.5 -59.5h-68 q0 39 -16.5 59.5t-34.5 30.5q-23 10 -51 13q-20 0 -35 -9q-12 -6 -22.5 -20t-10.5 -41v-477q2 -39 17 -70q12 -27 39.5 -47t78.5 -20t80 20.5t41 46.5q14 31 17 70v14q-14 -6 -29.5 -10t-38.5 -4q-53 0 -80.5 20.5t-40.5 46.5q-14 31 -16 70q2 37 16 68q12 25 40 46t81 21 q51 0 79 -21.5t40 -45.5q14 -31 16 -68v-137q-4 -57 -26 -103q-20 -39 -60.5 -70.5t-118.5 -31.5t-119.5 31.5t-60.5 70.5q-23 45 -24 103zM274 342q0 -20 9 -35q6 -14 20 -24.5t41 -10.5q23 0 36 8.5t19.5 19.5t9.5 22.5t3 15.5v4q0 18 -9 33q-6 12 -20 23.5t-39 11.5 q-27 0 -41 -11.5t-20 -23.5q-8 -14 -9 -33z" />
<glyph unicode="&#xe96;" horiz-adv-x="753" d="M2 682q0 51 20.5 80t47.5 41q31 14 69 16q27 -2 49 -10q20 -8 42 -23.5t34 -44.5q27 33 70 54.5t112 21.5q90 0 137.5 -37t69.5 -82q25 -53 31 -118v-922h-68v922q-4 47 -22 84q-16 33 -50 59.5t-98 26.5q-55 0 -87.5 -20.5t-51 -48.5t-25 -54.5t-6.5 -38.5v-332 q12 6 23.5 9t22.5 5q10 2 22 2q37 -2 68 -16q27 -12 48 -40t21 -79q0 -53 -21.5 -80.5t-47.5 -40.5q-31 -14 -68 -16q-39 2 -70 16q-27 12 -47 40t-20 81v424q-12 -6 -24.5 -9t-22.5 -5t-21 -2q-39 2 -69 16q-27 12 -47.5 40t-20.5 81zM70 682q0 -27 10 -40t24 -19 q15 -9 35 -9q18 0 33 9q12 6 23.5 19t11.5 40q0 25 -11.5 39t-23.5 20q-14 8 -33 9q-20 0 -35 -9q-14 -6 -24 -20t-10 -39zM276 137q0 -27 10.5 -41t22.5 -20q14 -8 35 -8q18 0 33 8q12 6 23.5 20.5t11.5 40.5q0 25 -11.5 39t-23.5 21q-15 8 -33 8q-20 0 -35 -8 q-12 -6 -22.5 -20.5t-10.5 -39.5z" />
<glyph unicode="&#xe97;" horiz-adv-x="753" d="M70 205q0 55 17 100t42 87t53.5 80t50.5 77q-6 -2 -13 -2h-13q-53 0 -81 20.5t-40 46.5q-14 29 -16 68q2 37 16 68q12 27 40 48t81 21q51 0 78.5 -21.5t40.5 -47.5q14 -31 16 -68v-10q-2 -74 -35 -132.5t-70.5 -111.5t-68.5 -106.5t-31 -116.5q2 -39 17 -70 q12 -27 39.5 -47t80.5 -20q51 0 80 20.5t41 46.5q14 31 17 70v477q2 37 16 68q12 27 40 48t79 21t79.5 -21.5t41.5 -47.5q14 -31 16 -68v-682h-68v682q0 18 -8 33q-6 12 -20.5 23.5t-40.5 11.5q-27 0 -40 -11.5t-20 -23.5q-8 -14 -8 -33v-477q-4 -57 -26 -103 q-20 -39 -60.5 -70.5t-118.5 -31.5t-119.5 31.5t-60.5 70.5q-23 45 -24 103zM137 682q0 -20 8 -35q6 -12 20.5 -22.5t41.5 -10.5q20 0 33.5 8.5t20.5 18.5t10 20.5t3 16.5v4q0 18 -8 33q-6 12 -20.5 23.5t-38.5 11.5q-27 0 -41 -11.5t-21 -23.5q-8 -14 -8 -33z" />
<glyph unicode="&#xe99;" horiz-adv-x="616" d="M2 682q0 51 20.5 80t47.5 41q29 14 67 16q37 -2 68 -16q27 -12 48 -41t21 -80v-137q0 -51 -21.5 -85t-46 -63.5t-46 -57.5t-21.5 -67v-43q0 -12 6.5 -39.5t24.5 -54t51 -47t88 -20.5q63 0 98 26.5t52 59.5q18 37 20 86v579h68v-579q-6 -68 -31 -121q-23 -45 -70 -82 t-137 -37q-61 0 -102 18.5t-70 47.5v-66h-67v274q0 51 21.5 85t47 64t47 57.5t21.5 66.5v16q-14 -8 -25.5 -11t-21.5 -5t-23 -2q-39 2 -67 16q-27 12 -47.5 40t-20.5 81zM70 682q0 -27 10 -40t22 -19q15 -9 35 -9q18 0 35 9q12 6 23.5 19t11.5 40t-11.5 41t-23.5 20 q-16 8 -35 9q-20 0 -35 -9q-12 -6 -22 -20t-10 -41z" />
<glyph unicode="&#xe9a;" horiz-adv-x="686" d="M70 274q0 51 15 90t37.5 70t50.5 57.5t50 55.5h-16q-53 0 -81 20.5t-40 46.5q-14 31 -16 70q2 37 16 68q12 25 40 46t81 21q51 0 78.5 -21.5t40.5 -45.5q14 -31 16 -68v-12q-2 -74 -35 -121t-70.5 -88t-68.5 -84t-31 -105l3 -32q3 -33 22.5 -72t60.5 -69.5t119 -30.5 t119 31.5t61 70.5q23 45 27 102v545h67v-545q-4 -78 -34 -137q-27 -53 -82.5 -95t-157.5 -42q-68 0 -114 20.5t-76.5 50t-47 65.5t-24.5 66.5t-9 51.5zM139 684q0 -20 8 -35q6 -14 19.5 -24.5t40.5 -10.5q20 0 33.5 8.5t20.5 18.5t10 20.5t3 16.5v6q0 18 -8 33 q-6 12 -20.5 23.5t-38.5 11.5q-27 0 -40 -11.5t-20 -23.5q-8 -14 -8 -33z" />
<glyph unicode="&#xe9b;" horiz-adv-x="686" d="M70 274q0 51 15 90t37.5 70t50.5 58.5t50 56.5q-6 -2 -16 -2q-53 0 -81 20.5t-40 46.5q-14 31 -16 70q2 37 16 68q12 27 40 48t81 21q51 0 79.5 -21.5t41.5 -47.5q14 -31 16 -68v-10q-4 -74 -36 -122t-69.5 -89t-68.5 -83t-31 -106q2 -57 25 -102q18 -39 60 -71.5 t120 -30.5q78 0 118 31.5t60 70.5q23 45 27 102v887h67v-887q-4 -78 -34 -137q-27 -53 -81.5 -95t-156.5 -42t-157.5 42t-82.5 95q-31 59 -34 137zM139 684q0 -20 8 -35q6 -12 19.5 -22.5t40.5 -10.5q43 0 55 26t12 38l2 4q0 18 -8 33q-6 12 -20.5 23.5t-40.5 11.5 q-27 0 -40 -11.5t-20 -23.5q-8 -14 -8 -33z" />
<glyph unicode="&#xe9c;" horiz-adv-x="686" d="M70 137v545q2 37 16 68q12 27 40 48t81 21q51 0 78.5 -21.5t40.5 -47.5q14 -31 16 -68q-2 -39 -16 -70q-12 -27 -40 -47t-79 -20q-41 0 -70 16v-424q0 -27 10.5 -41t24.5 -20q14 -8 35 -8q29 2 51 12q18 10 34.5 30.5t16.5 59.5h68q0 -39 15.5 -59.5t35.5 -30.5 q23 -10 51 -12q18 0 33 8q12 6 23.5 20.5t11.5 40.5v545q0 25 -11.5 39t-23.5 20q-14 8 -33 9v69h205v-69h-84q16 -27 16 -68v-545q0 -53 -21.5 -80.5t-47.5 -40.5q-31 -14 -68 -16q-25 0 -49 8q-23 6 -46.5 18.5t-41.5 36.5q-18 -25 -42 -37t-44 -18q-25 -8 -49 -8 q-39 2 -70 16q-27 12 -47 40t-20 81zM137 682q0 -20 8 -35q6 -12 20.5 -22.5t41.5 -10.5q25 0 39 10.5t20 22.5q8 14 8 35q0 18 -8 33q-6 12 -20 23.5t-39 11.5q-27 0 -41 -11.5t-21 -23.5q-8 -14 -8 -33z" />
<glyph unicode="&#xe9d;" horiz-adv-x="684" d="M70 137v547q2 37 16 68q12 25 40 46t79 21t79.5 -21.5t41.5 -45.5q14 -31 16 -68q-2 -39 -16 -70q-12 -27 -41 -47t-80 -20q-39 0 -68 16v-426q0 -27 10.5 -40t22.5 -19q14 -8 35 -8q29 2 51 12q18 10 34.5 30.5t16.5 59.5h70q0 -39 15.5 -59.5t35.5 -30.5q23 -10 51 -12 q18 0 33 8q12 6 23.5 19.5t11.5 39.5v1024h67v-1024q0 -53 -21.5 -80.5t-45.5 -40.5q-31 -14 -68 -16q-27 0 -51 8q-23 6 -45.5 19.5t-40.5 35.5q-18 -23 -42 -36t-46 -19q-25 -8 -49 -8q-39 2 -68 16q-27 12 -47 40t-20 81zM137 684q0 -20 8 -35q6 -14 19.5 -24.5 t40.5 -10.5t41 10.5t20 24.5q8 14 8 35q0 18 -8 33q-6 12 -20 23.5t-41 11.5t-40 -11.5t-20 -23.5q-8 -14 -8 -33z" />
<glyph unicode="&#xe9e;" horiz-adv-x="686" d="M70 137v137q0 51 15 90t37.5 70t50.5 57.5t50 55.5h-16q-53 0 -81 20.5t-40 46.5q-14 31 -16 70q2 37 16 68q12 25 40 46t81 21q51 0 78.5 -21.5t40.5 -45.5q14 -31 16 -68v-8q-2 -74 -34 -123t-69.5 -90t-69.5 -83t-32 -106v-137q0 -27 10.5 -40t24.5 -19q14 -8 35 -8 q29 2 51 12q18 10 34.5 30.5t16.5 59.5v272h68v-272q0 -39 15.5 -59.5t35.5 -30.5q23 -10 51 -12q18 0 33 8q12 6 23.5 19.5t11.5 39.5v682h69v-682q0 -53 -21.5 -80.5t-47.5 -40.5q-31 -14 -68 -16q-25 0 -49 8q-23 6 -46.5 18.5t-41.5 36.5q-18 -25 -42 -37t-44 -18 q-25 -8 -49 -8q-39 2 -70 16q-27 12 -47 40t-20 81zM137 684q0 -20 8 -35q6 -14 20.5 -24.5t41.5 -10.5q20 0 33.5 8.5t20.5 18.5t10 20.5t3 16.5v6q0 18 -8 33q-6 12 -20.5 23.5t-38.5 11.5q-27 0 -41 -11.5t-21 -23.5q-8 -14 -8 -33z" />
<glyph unicode="&#xe9f;" horiz-adv-x="684" d="M70 137v137q0 51 15 90t37.5 70t49.5 58.5t49 56.5q-6 -2 -16 -2q-51 0 -79 20.5t-40 46.5q-14 31 -16 70q2 37 16 68q12 25 40 46t79 21t79.5 -21.5t41.5 -45.5q14 -31 16 -68v-8q-2 -74 -35 -123t-70.5 -90t-68.5 -83t-31 -106v-137q0 -27 10.5 -40t22.5 -19 q14 -8 35 -8q29 2 51 12q18 10 34.5 30.5t16.5 59.5v272h70v-272q0 -39 15.5 -59.5t35.5 -30.5q23 -10 51 -12q18 0 33 8q12 6 23.5 19.5t11.5 39.5v1024h67v-1024q0 -53 -21.5 -80.5t-45.5 -40.5q-31 -14 -68 -16q-27 0 -51 8q-23 6 -45.5 19.5t-40.5 35.5q-18 -23 -42 -36 t-46 -19q-25 -8 -49 -8q-39 2 -68 16q-27 12 -47 40t-20 81zM137 684q0 -20 8 -35q6 -14 19.5 -24.5t40.5 -10.5q20 0 33.5 8.5t21.5 18.5t10 20.5t2 16.5q2 2 2 6q0 18 -8 33q-6 12 -20.5 23.5t-40.5 11.5q-27 0 -40 -11.5t-20 -23.5q-8 -14 -8 -33z" />
<glyph unicode="&#xea1;" horiz-adv-x="686" d="M2 137q2 37 16 68q12 25 40 46t81 21q23 0 38.5 -4t29.5 -10v561h67v-614q2 -39 17 -70q12 -27 39.5 -47t81.5 -20q51 0 79.5 20.5t40.5 46.5q14 31 17 70v614h67v-614q-4 -57 -26 -103q-20 -39 -60.5 -70.5t-117.5 -31.5q-59 0 -96 18.5t-60 47.5q-12 -25 -40 -45.5 t-77 -20.5q-53 0 -80.5 20.5t-40.5 47.5q-14 31 -16 69zM70 137q0 -20 8 -35q6 -14 20 -24t41 -10q25 0 39.5 10t20.5 24q8 14 8 35q0 18 -8 33q-6 12 -20.5 23.5t-39.5 11.5q-27 0 -41 -11.5t-20 -23.5q-8 -14 -8 -33z" />
<glyph unicode="&#xea2;" horiz-adv-x="684" d="M70 205q0 102 41 156.5t92 80.5q-47 27 -74 65t-40 74.5t-16 65.5t-3 33v2q2 37 16 68q12 27 40 48t79 21t79.5 -21.5t41.5 -47.5q14 -31 16 -68q-2 -39 -16 -68q-12 -27 -41 -47t-80 -20h-21q23 -29 61 -49.5t97 -20.5v-67q-4 0 -36 -4.5t-69.5 -24t-68.5 -60 t-31 -116.5q2 -39 17 -70q12 -27 39.5 -47t80.5 -20h136q51 0 79.5 20.5t40.5 46.5q14 31 17 70v954h67v-954q-4 -57 -26 -103q-20 -39 -60.5 -70.5t-117.5 -31.5h-136q-78 0 -119.5 31.5t-60.5 70.5q-23 45 -24 103zM137 682q0 -20 8 -35q6 -12 19.5 -22.5t40.5 -10.5 t41 10.5t20 22.5q8 14 8 35q0 18 -8 35q-6 12 -20 23.5t-41 11.5t-40 -11.5t-20 -23.5q-8 -16 -8 -35z" />
<glyph unicode="&#xea3;" horiz-adv-x="684" d="M70 197v8q2 37 16 67q12 27 40 48.5t79 21.5t79.5 -21.5t41.5 -48.5q14 -31 16 -67q-2 -27 -10 -51q-8 -23 -24.5 -44.5t-47.5 -31.5q37 -10 82 -10q78 0 118 31.5t60 70.5q23 45 27 102q0 51 -36 73t-88 29t-114.5 9t-115 15.5t-88 46t-35.5 102.5q4 76 34 135 q27 51 81.5 94t156.5 43q100 0 155.5 -43t82.5 -94q31 -59 34 -135h-67q-4 55 -27 100q-20 39 -60 71t-118 32t-120 -32t-60 -71q-23 -45 -25 -100q0 -51 36 -72.5t88 -29t114.5 -9.5t115 -15t88 -47t35.5 -102q-4 -78 -34 -137q-27 -51 -81.5 -93t-156.5 -42 q-72 0 -120 17.5t-78.5 42t-46 52t-21.5 50.5q-6 20 -6 35zM137 201q0 -4 2 -6q2 -16 14.5 -37t51.5 -21q27 0 41 10.5t20 22.5q8 14 8 35q0 18 -8 33q-6 12 -20 23t-41 11t-40 -11t-20 -23q-8 -14 -8 -33v-4z" />
<glyph unicode="&#xea5;" horiz-adv-x="684" d="M70 137v135q2 57 24 103q18 39 60.5 70.5t119.5 31.5q78 0 118 -31.5t61 -70.5q23 -45 26 -103v-170q0 -10 4 -18q8 -16 29 -16q23 0 31 16q4 8 4 18v445q-4 55 -27 100q-20 39 -60 71t-118 32t-120 -32t-60 -71q-23 -45 -25 -100h-67q4 76 34 135q27 51 81.5 94 t156.5 43q100 0 155.5 -43t82.5 -94q31 -59 34 -135v-445q-2 -29 -12 -51q-10 -20 -30.5 -35.5t-59.5 -15.5t-59.5 15.5t-30.5 35.5q-10 23 -12 51v170q-2 37 -17 68q-12 27 -39.5 48.5t-79.5 21.5q-53 0 -80.5 -21.5t-39.5 -48.5q-14 -31 -17 -68v-14q33 14 68 14 q51 0 79.5 -21.5t41.5 -45.5q14 -31 16 -68q-2 -39 -16 -69q-12 -27 -41 -47.5t-80 -20.5t-79 20.5t-40 47.5q-14 31 -16 69zM137 137q0 -20 8 -35q6 -14 19.5 -24t40.5 -10t41 10t20 24q8 14 8 35q0 18 -8 33q-6 12 -20 23.5t-41 11.5t-40 -11.5t-20 -23.5q-8 -14 -8 -33z " />
<glyph unicode="&#xea7;" horiz-adv-x="618" d="M2 545q0 102 42 157.5t93 81.5q59 31 137 35q76 -4 138 -35q51 -27 94 -82t43 -157v-273q-4 -78 -35 -137q-27 -51 -81 -93t-157 -42q-53 0 -80.5 20.5t-39.5 47.5q-14 31 -17 69q2 37 17 68q12 25 39.5 46t80.5 21q51 0 79 -21.5t40 -45.5q14 -31 17 -68v-6q0 -4 -1 -9 t-1 -9q27 23 42 50t21 52q8 29 8 57v273q0 78 -32.5 119t-71.5 61q-45 23 -103 27q-57 -4 -102 -27q-39 -20 -70.5 -61t-31.5 -119h-68zM207 137q0 -20 8 -35q6 -14 20.5 -24t40.5 -10q25 0 39.5 10t20.5 24q8 14 8 35q0 18 -8 33q-6 12 -20.5 23.5t-39.5 11.5 q-27 0 -41 -11.5t-20 -23.5q-8 -15 -8 -33z" />
<glyph unicode="&#xeaa;" horiz-adv-x="684" d="M70 137v135q2 57 24 103q18 39 60.5 70.5t119.5 31.5q78 0 118 -31.5t61 -70.5q23 -45 26 -103v-170q0 -10 4 -18q8 -16 29 -16q23 0 31 16q4 8 4 18v445q-2 14 -4 31q-4 14 -7.5 31.5t-13.5 35.5q-20 -12 -39.5 -17t-36.5 -10q-20 -4 -36 -4v68q10 0 22 2q10 2 22.5 5 t26.5 11q-23 23 -56.5 36.5t-82.5 13.5q-78 0 -120 -32t-60 -71q-23 -45 -25 -100h-67q4 76 34 135q27 51 81.5 94t156.5 43q66 0 113 -19.5t75 -49.5q16 29 17 69h67q0 -43 -11 -73.5t-28 -53.5q29 -55 35 -100q4 -23 4 -45v-445q-2 -29 -12 -51q-10 -20 -30.5 -35.5 t-59.5 -15.5t-59.5 15.5t-30.5 35.5q-10 23 -12 51v170q-2 37 -17 68q-12 27 -39.5 48.5t-79.5 21.5q-53 0 -80.5 -21.5t-39.5 -48.5q-14 -31 -17 -68v-14q33 14 68 14q51 0 79.5 -21.5t41.5 -45.5q14 -31 16 -68q-2 -39 -16 -69q-12 -27 -41 -47.5t-80 -20.5t-79 20.5 t-40 47.5q-14 31 -16 69zM137 137q0 -20 8 -35q6 -14 19.5 -24t40.5 -10t41 10t20 24q8 14 8 35q0 18 -8 33q-6 12 -20 23.5t-41 11.5t-40 -11.5t-20 -23.5q-8 -14 -8 -33z" />
<glyph unicode="&#xeab;" horiz-adv-x="890" d="M2 682q0 51 20.5 80t47.5 41q31 14 69 16q37 -2 68 -16q25 -12 46 -41t21 -80v-614q74 0 122 51t78 124.5t45.5 158.5t21.5 153q-18 -8 -62 -8q-39 2 -67 16q-27 12 -47.5 40t-20.5 79t20.5 80t47.5 41q29 14 67 16q16 0 35 -4q35 -6 66 -35q14 16 37.5 27.5t66.5 11.5 q37 -2 68 -16q27 -12 48 -41t21 -80v-682h-67v682q0 27 -11.5 41t-23.5 20q-16 8 -35 9q-35 0 -49 -17.5t-19 -40.5v-12q-6 -193 -43 -342q-16 -63 -40.5 -124.5t-60.5 -109t-85 -77t-113 -29.5h-67v563q-14 -6 -25.5 -9t-21.5 -5t-21 -2q-39 2 -69 16q-27 12 -47.5 40 t-20.5 79zM70 682q0 -27 10 -40t24 -19q15 -9 35 -9q18 0 33 9q12 6 23.5 19t11.5 40t-11.5 41t-23.5 20q-14 8 -33 9q-20 0 -35 -9q-14 -6 -24 -20t-10 -41zM412 682q0 -27 10 -40t22 -19q15 -9 35 -9q35 0 49.5 15.5t20.5 38.5v14q0 27 -11.5 41t-23.5 20q-16 8 -35 9 q-20 0 -35 -9q-12 -6 -22 -20t-10 -41z" />
<glyph unicode="&#xead;" horiz-adv-x="686" d="M70 205q0 51 20.5 79.5t46.5 41.5q29 14 68 16q37 -2 67 -16q27 -12 48.5 -41t21.5 -80q0 -59 -26.5 -87t-55.5 -38q16 -4 31.5 -6t25.5 -4q12 -2 25 -2q57 2 102 24q39 18 71 60.5t32 119.5v201q-31 -27 -80 -45t-125 -18q-104 0 -157.5 31.5t-80.5 70.5q-31 45 -34 102 q0 78 42 118t93 61q59 23 137 26q76 -4 135 -26q51 -20 94 -61.5t43 -119.5v-100.5v-47.5v-21.5v-20.5v-48v-102q0 -102 -43 -156.5t-94 -80.5q-59 -31 -135 -35q-72 2 -127 23q-49 16 -91 52t-52 101q-2 8 -2 29zM137 205q0 -27 10.5 -40t22.5 -20q15 -8 35 -8q18 0 35 8 q12 6 23 19.5t11 40.5q0 25 -11 39t-23 20q-16 8 -35 8q-20 0 -35 -8q-12 -6 -22.5 -20.5t-10.5 -38.5zM137 614q2 -39 25 -69q18 -27 60 -47.5t120 -20.5t118 20.5t60 47.5q23 29 27 67q0 51 -32 79t-71 42q-45 16 -102 19q-57 -2 -102 -17q-39 -12 -71 -40.5t-32 -80.5z " />
<glyph unicode="&#xeae;" horiz-adv-x="618" d="M2 547q4 76 35 135q27 51 81 94t156 43q78 0 127.5 -24.5t77.5 -59.5v84h70v-272h-70q-4 57 -26 102q-20 39 -60.5 71t-118.5 32t-119.5 -32t-60.5 -71q-23 -45 -24 -102q0 -51 35.5 -72.5t89 -29t115 -9.5t114.5 -15t89 -47t36 -102q-4 -78 -35 -137q-27 -51 -82 -93 t-158 -42q-51 0 -78.5 20.5t-39.5 47.5q-14 31 -17 69q2 37 17 68q12 25 39.5 46t78.5 21t80 -21.5t41 -45.5q14 -31 17 -68v-6q0 -4 -1 -9t-1 -9q27 23 41 50t20 52q8 29 8 57q0 51 -35.5 73t-88 29t-115 9t-114.5 15.5t-88 46t-36 102.5zM207 137q0 -20 8 -35 q6 -14 19.5 -24t39.5 -10q27 0 41.5 10t20.5 24q8 14 8 35q0 18 -8 33q-6 12 -20.5 23.5t-41.5 11.5t-40 -11.5t-19 -23.5q-8 -15 -8 -33z" />
<glyph unicode="&#xeaf;" horiz-adv-x="548" d="M2 680v2q2 37 16 68q12 27 40 48t81 21q51 0 79 -21.5t40 -47.5q14 -31 16 -68q-2 -39 -16 -70q-12 -27 -40 -47t-79 -20q-2 0 -3 1t-3 1q18 -16 45 -25.5t64 -9.5q63 0 98 25.5t51 58.5q18 37 21 86v137h67v-819h-67v508q-27 -29 -68 -47.5t-102 -18.5q-86 0 -135.5 35 t-72 78t-27.5 81t-5 44zM70 682q2 -20 10 -35q6 -12 19.5 -22.5t39.5 -10.5q25 0 39.5 10.5t20.5 22.5q8 14 8 35q0 18 -8 33q-6 12 -20.5 23.5t-39.5 11.5q-27 0 -40 -11.5t-19 -23.5q-8 -14 -10 -33z" />
<glyph unicode="&#xeb0;" horiz-adv-x="548" d="M70 240q2 37 16 67q12 25 40 46.5t81 21.5q51 0 79.5 -21.5t41.5 -46.5q14 -31 16 -67v-7q0 -6 -4 -18q27 23 42 50.5t21 51.5q8 29 9 58h67q-4 -78 -35 -137q-27 -51 -81 -93.5t-156 -42.5q-53 0 -81 20.5t-40 47.5q-14 31 -16 70zM70 580q2 37 16 67q12 27 40 48.5 t81 21.5q51 0 79.5 -21.5t41.5 -48.5q14 -31 16 -67v-7q0 -6 -4 -18q27 23 42 51.5t21 52.5q8 29 9 58h67q-4 -78 -35 -137q-27 -51 -81 -93.5t-156 -42.5q-53 0 -81 20.5t-40 47.5q-14 29 -16 68zM139 240q0 -20 8 -35q6 -14 19.5 -24.5t40.5 -10.5q25 0 39 10t20 25 q8 14 8 35q0 18 -8 32q-6 12 -20.5 23.5t-38.5 11.5q-27 0 -40 -11t-20 -24q-8 -14 -8 -32zM139 580q0 -20 8 -35q6 -12 19.5 -22.5t40.5 -10.5q25 0 39 10t20 23q8 14 8 35q0 18 -8 34q-6 12 -20 23.5t-39 11.5q-27 0 -40 -11t-20 -24q-8 -16 -8 -34z" />
<glyph unicode="&#xeb1;" d="M-551 1024q2 37 16 68q12 25 40 46t81 21q51 0 80 -21.5t41 -45.5q14 -31 17 -68v-6q0 -6 -5 -19q27 23 42.5 50.5t21.5 52.5q8 29 8 57h68q-4 -78 -35 -137q-27 -51 -81 -93t-157 -42q-53 0 -80.5 20.5t-40.5 46.5q-14 31 -16 70zM-481 1024q0 -20 8 -35 q6 -14 19.5 -24.5t39.5 -10.5q25 0 39.5 10.5t20.5 24.5q8 14 8 35q0 18 -8 33q-6 12 -20.5 23.5t-39.5 11.5q-27 0 -40 -11.5t-19 -23.5q-8 -15 -8 -33z" />
<glyph unicode="&#xeb2;" horiz-adv-x="618" d="M2 545v2q0 8 7 52t34 93t81 88t152 39q100 0 155.5 -43t82.5 -94q31 -61 35 -137v-545h-70l2 545q-4 57 -26 102q-20 39 -60.5 71t-118.5 32q-59 0 -97 -20.5t-60 -49.5q6 2 20 2q51 0 80 -21.5t41 -48.5q14 -31 16 -67q-2 -39 -16 -68q-12 -27 -41 -47t-80 -20 q-53 0 -80.5 20.5t-40.5 46.5q-14 29 -16 68zM72 545q0 -20 8 -35q6 -12 19.5 -22.5t39.5 -10.5q25 0 39.5 10.5t20.5 22.5q8 14 8 35q0 18 -8 35q-6 12 -20.5 23t-39.5 11t-38 -9t-19 -21.5t-8 -23.5t-2 -13v-2z" />
<glyph unicode="&#xeb3;" horiz-adv-x="618" d="M-481 1024q2 37 16 68q12 25 40 46t79 21t79.5 -21.5t41.5 -45.5q14 -31 16 -68q-2 -39 -16 -70q-12 -27 -41 -47t-80 -20t-79 20.5t-40 46.5q-14 31 -16 70zM-414 1024q0 -20 8 -35q6 -14 19.5 -24.5t40.5 -10.5t41 10.5t20 24.5q8 14 9 35q0 18 -9 33q-6 12 -20 23.5 t-41 11.5t-40 -11.5t-20 -23.5q-8 -14 -8 -33zM2 545v2q0 8 7 52t34 93t81 88t152 39q100 0 155.5 -43t82.5 -94q31 -61 35 -137v-545h-70l2 545q-4 57 -26 102q-20 39 -60.5 71t-118.5 32q-59 0 -97 -20.5t-60 -49.5q6 2 20 2q51 0 80 -21.5t41 -48.5q14 -31 16 -67 q-2 -39 -16 -68q-12 -27 -41 -47t-80 -20q-53 0 -80.5 20.5t-40.5 46.5q-14 29 -16 68zM72 545q0 -20 8 -35q6 -12 19.5 -22.5t39.5 -10.5q25 0 39.5 10.5t20.5 22.5q8 14 8 35q0 18 -8 35q-6 12 -20.5 23t-39.5 11t-38 -9t-19 -21.5t-8 -23.5t-2 -13v-2z" />
<glyph unicode="&#xeb4;" d="M-551 1024q0 51 20.5 80t47.5 41q31 14 69 16h138q37 -2 67 -16q25 -12 46.5 -41t21.5 -80q0 -53 -21.5 -81t-46.5 -40q-31 -14 -67 -16v69q18 0 32 9q12 6 23.5 19t11.5 40q0 25 -11 39t-24 20q-14 8 -32 9h-138q-20 0 -35 -9q-12 -6 -22 -20t-10 -39q0 -27 10 -40 t22 -19q14 -8 35 -9v-69q-39 2 -69 16q-27 12 -47.5 40t-20.5 81z" />
<glyph unicode="&#xeb5;" d="M-618 1024q0 51 20 80t47 41q29 14 68 16h137q37 -2 67 -16q27 -12 48.5 -41t21.5 -80q0 -41 -16 -68h84v-69h-205v69q18 0 33 9q12 6 23 19t11 40q0 25 -11 39t-23 20q-14 8 -33 9h-137q-20 0 -35 -9q-12 -6 -22.5 -20t-10.5 -39q0 -27 10.5 -40t22.5 -19q14 -8 35 -9 v-69q-39 2 -68 16q-27 12 -47 40t-20 81z" />
<glyph unicode="&#xeb6;" d="M-586 1024q0 51 20.5 80t47.5 41q31 14 69 16h138q37 -2 67 -16q25 -12 46.5 -41t21.5 -80q0 -53 -21.5 -81t-46.5 -40q-31 -14 -67 -16v69q18 0 32 9q12 6 23.5 19t11.5 40q0 25 -11 39t-24 20q-14 8 -32 9h-138q-20 0 -34 -9q-12 -6 -22.5 -20t-10.5 -39q0 -27 10 -40 t23 -19q14 -8 34 -9v-69q-39 2 -69 16q-27 12 -47.5 40t-20.5 81zM-430 1024q0 18 7 29.5t17 15.5q11 6 27 6q14 0 25 -6q10 -4 18 -15.5t8 -29.5q0 -20 -8 -30.5t-18 -14.5q-10 -6 -25 -6q-16 0 -27 6q-10 4 -17 14.5t-7 30.5z" />
<glyph unicode="&#xeb7;" d="M-618 1024q0 51 20 80t47 41q29 14 68 16h137q37 -2 67 -16q27 -12 48.5 -41t21.5 -80q0 -41 -16 -68h84v-69h-205v69q18 0 33 9q12 6 23 19t11 40q0 25 -11 39t-23 20q-14 8 -33 9h-137q-20 0 -35 -9q-12 -6 -22.5 -20t-10.5 -39q0 -27 10.5 -40t22.5 -19q14 -8 35 -9 v-69q-39 2 -68 16q-27 12 -47 40t-20 81zM-465 1024q0 18 7 29.5t18 15.5q10 6 26 6q14 0 25 -6q10 -4 18.5 -15.5t8.5 -29.5q0 -20 -8.5 -30.5t-18.5 -14.5q-10 -6 -25 -6q-16 0 -26 6q-10 4 -17.5 14.5t-7.5 30.5z" />
<glyph unicode="&#xeb8;" d="M-414 -549q2 37 17 68q12 27 39.5 48t78.5 21t80 -21.5t41 -47.5q14 -31 17 -68v-272h-68v151q-14 -6 -30.5 -10t-39.5 -4q-51 0 -78.5 20.5t-39.5 47.5q-14 29 -17 67zM-346 -549q0 -20 8 -35q6 -12 19 -22t40 -10t41.5 10t20.5 22q8 14 8 35q0 18 -8 35 q-6 12 -20.5 23.5t-41.5 11.5t-40 -11.5t-19 -23.5q-8 -16 -8 -35z" />
<glyph unicode="&#xeb9;" d="M-547 -549q2 37 17 68q12 27 39.5 48t78.5 21t80 -21.5t41 -47.5q14 -31 17 -68v-135q0 -20 8 -35q6 -14 19.5 -24.5t39.5 -10.5q27 0 41 10.5t21 24.5q8 14 8 35v272h67v-272q-2 -39 -16 -70q-12 -27 -41 -47t-80 -20t-78.5 20.5t-40.5 46.5q-14 31 -16 70v14 q-14 -6 -30.5 -10t-39.5 -4q-51 0 -78.5 20.5t-39.5 47.5q-14 29 -17 67zM-479 -549q0 -20 8 -35q6 -12 19 -22t40 -10t41.5 10t20.5 22q8 14 8 35q0 18 -8 35q-6 12 -20.5 23.5t-41.5 11.5t-40 -11.5t-19 -23.5q-8 -16 -8 -35z" />
<glyph unicode="&#xebb;" d="M-551 1022q2 37 16 68q12 27 40 48t81 21q100 0 155.5 -43t82.5 -94q31 -59 35 -135h-68q0 29 -8 57q-6 25 -21.5 52.5t-42.5 50.5q4 -16 5 -19v-6q-2 -39 -17 -68q-12 -27 -40.5 -47t-80.5 -20q-53 0 -80.5 20.5t-40.5 46.5q-14 29 -16 68zM-481 1022q0 -20 8 -35 q6 -12 19.5 -22.5t39.5 -10.5q25 0 39.5 10.5t20.5 22.5q8 14 8 35q0 18 -8 35q-6 12 -20.5 23.5t-39.5 11.5q-27 0 -40 -11.5t-19 -23.5q-8 -17 -8 -35z" />
<glyph unicode="&#xebc;" d="M-549 -207q2 37 17 68q12 27 39.5 48t80.5 21h138q23 0 45 -6q45 -10 90 -43v49h69v-204h-69q0 51 -21.5 78.5t-46.5 39.5q-31 14 -67 17h-19q12 -27 17 -47q2 -10 2 -21q-2 -39 -17 -69q-12 -27 -40.5 -47.5t-80.5 -20.5q-53 0 -80.5 20.5t-39.5 47.5q-14 31 -17 69z M-479 -207q0 -20 8 -35q6 -12 19.5 -22t39.5 -10q25 0 39.5 10t20.5 22q8 15 8 35q0 18 -8 33q-6 12 -20.5 23.5t-39.5 11.5q-27 0 -40 -11.5t-19 -23.5q-8 -14 -8 -33z" />
<glyph unicode="&#xebd;" horiz-adv-x="618" d="M2 -205q0 51 20.5 80t47.5 41q31 14 69 16q37 -2 68 -16q27 -12 48 -41t21 -80q0 -35 -11 -58.5t-26.5 -38.5t-35 -23.5t-33.5 -12.5q10 -2 18.5 -3t18.5 -1q78 0 118 31.5t60 70.5q23 45 27 103v614q-4 76 -35 137q-27 51 -82 94.5t-156 43.5v67h477v-67h-262 q47 -39 72 -86.5t37 -87.5q14 -49 16 -101v-614q-4 -78 -35 -137q-27 -51 -81 -93.5t-156 -42.5q-57 0 -95 19.5t-60.5 46.5t-33 56.5t-12.5 51.5q-2 4 -2 17q-2 4 -2 10v4zM70 -205q0 -27 10 -40t24 -19q14 -8 35 -8q18 0 33 8q12 6 23.5 19.5t11.5 39.5q0 25 -11.5 39 t-23.5 21q-15 8 -33 8q-20 0 -35 -8q-14 -6 -24 -20.5t-10 -39.5z" />
<glyph unicode="&#xec0;" horiz-adv-x="325" d="M49 135v684h70v-561q29 14 67 14q51 0 80 -21.5t41 -47.5q14 -31 17 -68q-2 -39 -17 -67q-12 -27 -41 -47.5t-80 -20.5q-53 0 -80.5 20.5t-39.5 47.5q-14 29 -17 67zM119 135q0 -20 8 -35q6 -12 19.5 -22t39.5 -10q25 0 39.5 10t20.5 22q8 14 8 35q0 18 -8 35 q-6 12 -20.5 23.5t-39.5 11.5q-27 0 -40 -11.5t-19 -23.5q-8 -16 -8 -35z" />
<glyph unicode="&#xec1;" horiz-adv-x="634" d="M49 135v684h70v-561q29 14 67 14q51 0 80 -21.5t41 -47.5q14 -31 17 -68q-2 -39 -17 -67q-12 -27 -41 -47.5t-80 -20.5q-53 0 -80.5 20.5t-39.5 47.5q-14 29 -17 67zM119 135q0 -20 8 -35q6 -12 19.5 -22t39.5 -10q25 0 39.5 10t20.5 22q8 14 8 35q0 18 -8 35 q-6 12 -20.5 23.5t-39.5 11.5q-27 0 -40 -11.5t-19 -23.5q-8 -16 -8 -35zM358 135v684h70v-561q29 14 68 14q51 0 79.5 -21.5t40.5 -47.5q14 -31 17 -68q-2 -39 -17 -67q-12 -27 -40.5 -47.5t-79.5 -20.5q-53 0 -81 20.5t-40 47.5q-14 29 -17 67zM428 135q0 -20 8 -35 q6 -12 19.5 -22t40.5 -10q25 0 39 10t20 22q8 14 8 35q0 18 -8 35q-6 12 -20 23.5t-39 11.5q-27 0 -40.5 -11.5t-19.5 -23.5q-8 -16 -8 -35z" />
<glyph unicode="&#xec2;" horiz-adv-x="581" d="M-35 1026v68q4 76 35 135q27 51 82 94t158 43h340v-68h-340q-78 0 -120 -31.5t-61 -70.5q-23 -45 -24 -102h272v-836q29 16 68 16q51 0 79.5 -21.5t41.5 -47.5q14 -31 16 -68q-2 -39 -16 -69q-12 -27 -41 -47.5t-80 -20.5t-79 20.5t-40 47.5q-14 31 -16 69v889h-275z M307 137q0 -20 8 -35q6 -12 19.5 -22t40.5 -10t41 10t20 22q8 14 8 35q0 18 -8 33q-6 12 -20.5 23.5t-40.5 11.5q-23 0 -36 -8.5t-20.5 -19.5t-9.5 -21.5t-2 -14.5v-4z" />
<glyph unicode="&#xec3;" horiz-adv-x="548" d="M-35 1126v4q0 6 2 13v12q4 25 15.5 60.5t37 69.5t69.5 57.5t116 23.5q37 -2 67 -16q27 -12 48.5 -41t21.5 -80l-2 -973q25 12 47 16q11 2 23 2q37 -2 67 -16q27 -12 48.5 -41t21.5 -80q0 -53 -21.5 -80.5t-48.5 -40.5q-31 -14 -67 -16q-39 2 -70 16q-27 12 -47.5 40 t-20.5 81v1092q0 27 -11 41t-23 20q-14 8 -33 8v-2q-37 0 -63.5 -9t-45.5 -23h6q37 -2 68 -17q27 -12 48.5 -40.5t21.5 -80.5q0 -53 -21.5 -80.5t-48.5 -39.5q-31 -14 -68 -17q-39 2 -69 17q-27 12 -47.5 39.5t-20.5 80.5zM35 1126q0 -27 10 -40t23 -19q14 -8 34 -8 q18 0 33 8q12 6 23.5 19t11.5 40q0 25 -11.5 39.5t-23.5 20.5q-14 8 -33 8q-20 0 -34 -8q-12 -6 -22.5 -20.5t-10.5 -39.5zM340 137q0 -27 10 -40t25 -19q15 -8 35 -8q18 0 32 8q12 6 23.5 19.5t11.5 39.5q0 25 -11 39t-24 21q-14 8 -32 8q-20 0 -35 -8q-14 -6 -24.5 -20.5 t-10.5 -39.5z" />
<glyph unicode="&#xec4;" horiz-adv-x="514" d="M-35 991v375h70v-375q0 -10 4 -18q8 -16 29 -17q23 0 30 17q4 8 4 18v273q2 29 13 51q10 18 30.5 34.5t59.5 16.5t59.5 -16.5t30.5 -34.5q10 -23 12 -51v-1006q29 16 68 16q51 0 79.5 -21.5t41.5 -47.5q14 -31 16 -68q-2 -39 -16 -69q-12 -27 -41 -47.5t-80 -20.5 t-79 20.5t-40 47.5q-14 31 -16 69v1127q0 8 -4 16q-4 6 -11.5 12t-19.5 6q-14 0 -20.5 -6t-10.5 -12q-4 -8 -4 -16v-273q-2 -29 -12 -51q-10 -20 -31 -35.5t-59 -15.5q-39 0 -59.5 15.5t-31.5 35.5q-10 23 -12 51zM307 137q0 -20 8 -35q6 -12 19.5 -22t40.5 -10t41 10t20 22 q8 14 8 35q0 18 -8 33q-6 12 -20.5 23.5t-40.5 11.5q-23 0 -36 -8.5t-19.5 -19.5t-9.5 -21.5t-3 -14.5v-4z" />
<glyph unicode="&#xec6;" horiz-adv-x="550" d="M2 682q0 51 20.5 80t47.5 41q31 14 69 16q18 -2 37 -6q16 -4 33.5 -11t34.5 -24q14 16 38.5 28.5t61.5 12.5q51 0 80 -21.5t41 -47.5q14 -31 16 -68v-1024h-67v1024q0 18 -8 35q-6 12 -20.5 23.5t-41.5 11.5t-40 -11.5t-19 -23.5q-8 -16 -9 -35q0 -51 -21.5 -79 t-47.5 -40q-31 -14 -68 -16q-39 2 -69 16q-27 12 -47.5 40t-20.5 79zM72 682q0 -27 10 -40t22 -19q15 -9 35 -9q18 0 35 9q12 6 23.5 19t11.5 40t-11.5 41t-23.5 20q-16 8 -35 9q-20 0 -35 -9q-12 -6 -22 -20t-10 -41z" />
<glyph unicode="&#xec8;" d="M-276 1229v272h67v-272h-67z" />
<glyph unicode="&#xec9;" d="M-481 1229v67h16t16 2h5q45 6 73.5 24.5t46.5 43.5q-6 -2 -22 -2q-51 0 -79 20.5t-40 47.5q-14 31 -16 69q2 37 16 68q12 27 40 48t79 21t79.5 -21.5t41.5 -47.5q14 -31 16 -68v-2q0 -6 -5 -45t-28 -86q55 37 95.5 101.5t40.5 168.5h67q0 -121 -44 -197.5t-105.5 -120.5 t-127 -62.5t-110.5 -24.5q-6 -2 -18 -2q-10 -2 -16.5 -2h-10.5h-10zM-414 1501q0 -20 8 -35q6 -12 19.5 -22t40.5 -10t41 10t20 22q8 14 9 35q0 18 -9 33q-6 12 -20 23.5t-41 11.5t-40 -11.5t-20 -23.5q-8 -14 -8 -33z" />
<glyph unicode="&#xeca;" d="M-653 1364v137q2 37 16 68q12 27 40 48t81 21q39 0 62.5 -13t39.5 -30q16 16 40 29.5t63 13.5q51 0 79.5 -21.5t41.5 -47.5q14 -31 16 -68v-67q0 -12 -2 -27q-2 -23 -17 -59q59 33 106.5 101.5t47.5 188.5h70q0 -125 -44 -201.5t-103.5 -121.5t-122 -62.5t-101.5 -21.5 q-8 0 -12 -2h-27v67q14 0 21 2h4q41 4 63.5 27t32.5 47q12 29 14 62v67q0 18 -8 33q-6 12 -20.5 23.5t-38.5 11.5q-27 0 -40.5 -11.5t-19.5 -23.5q-8 -14 -8 -33h-70v2q0 2 -1 12.5t-8 22.5t-20.5 21.5t-37.5 9.5q-27 0 -40 -11.5t-19 -23.5q-8 -14 -9 -33v-16q27 16 68 16 q51 0 79.5 -21.5t41.5 -47.5q14 -31 16 -68q-2 -39 -16 -68q-12 -27 -41 -47t-80 -20q-53 0 -81 20.5t-40 46.5q-14 29 -16 68zM-584 1364q0 -20 9 -35q6 -12 19 -22.5t40 -10.5q25 0 39 10.5t20 22.5q8 14 8 35q0 18 -8 35q-6 12 -20 23.5t-39 11.5t-38 -9.5t-20.5 -21.5 t-8.5 -23.5t-1 -13.5v-2z" />
<glyph unicode="&#xecb;" d="M-483 1366v68h137v137h67v-137h138v-68h-138v-137h-67v137h-137z" />
<glyph unicode="&#xecc;" d="M-551 1366q0 51 20.5 80t47.5 41q31 14 69 16h135q27 0 41.5 10.5t20.5 22.5q8 14 8 35h68q-2 -39 -17 -70q-12 -27 -40.5 -47t-80.5 -20h-14q16 -27 17 -68q0 -53 -21.5 -81t-48.5 -40q-31 -14 -68 -16q-39 2 -69 16q-27 12 -47.5 40t-20.5 81zM-483 1366q0 -27 10 -40 t24 -19q14 -8 35 -9q18 0 33 9q12 6 23.5 19t11.5 40q0 20 -7 33.5t-18.5 20.5t-21.5 10.5t-17 3.5h-4l-11 -1t-24.5 -7.5t-23.5 -20.5t-10 -39z" />
<glyph unicode="&#xecd;" d="M-481 1024q2 37 16 68q12 25 40 46t79 21t79.5 -21.5t41.5 -45.5q14 -31 16 -68q-2 -39 -16 -70q-12 -27 -41 -47t-80 -20t-79 20.5t-40 46.5q-14 31 -16 70zM-414 1024q0 -20 8 -35q6 -14 19.5 -24.5t40.5 -10.5t41 10.5t20 24.5q9 15 9 35q0 18 -9 33q-6 12 -20 23.5 t-41 11.5t-40 -11.5t-20 -23.5q-8 -14 -8 -33z" />
<glyph unicode="&#xed0;" horiz-adv-x="753" d="M70 307v205q4 86 39 154q29 57 91 105t177 48t177 -48t91 -105q35 -68 39 -154v-205q-4 -86 -39 -153q-29 -59 -91 -106.5t-177 -47.5t-177.5 47t-90.5 107q-35 68 -39 153zM139 307q2 -66 29 -119q23 -45 71 -81.5t138 -36.5t138 36.5t71 81.5q27 53 30 119v205 q-4 66 -30 119q-23 45 -71 83t-138 38t-138.5 -38t-70.5 -83q-27 -53 -29 -119v-205z" />
<glyph unicode="&#xed1;" horiz-adv-x="753" d="M70 512l1 24q1 23 10 57t27.5 74t52.5 73.5t86 56t130 22.5q115 0 177 -48t91 -105q35 -68 39 -154v-205q-4 -86 -39 -153q-29 -59 -91 -106.5t-177 -47.5h-238v70h238q90 0 138 36.5t71 81.5q27 53 30 119v205q-4 66 -30 119q-23 45 -71 83t-138 38t-138.5 -38 t-70.5 -83q-27 -53 -29 -119q0 -59 20.5 -97t49.5 -61q-2 6 -2 17v6q2 37 16 67q12 25 40 46.5t81 21.5q51 0 79 -21.5t40 -46.5q14 -31 16 -67q-2 -39 -16 -70q-12 -27 -40 -47t-79 -20h-6q-8 0 -14 2h-7q-25 2 -66.5 14t-81.5 41t-69.5 80t-29.5 135zM274 377q0 -20 9 -35 q6 -14 20 -24.5t41 -10.5q25 0 39 10.5t20 24.5q8 14 9 35q0 18 -9 33q-6 12 -20 23t-39 11q-27 0 -41 -11t-20 -23q-9 -15 -9 -33z" />
<glyph unicode="&#xed2;" horiz-adv-x="753" d="M70 307v205q4 86 39 154q29 57 91 105t177 48h137q39 0 59.5 15.5t30.5 35.5q10 23 12 52h68q-2 -49 -20 -86q-16 -33 -51 -58.5t-99 -25.5h-137q-90 0 -138.5 -38t-70.5 -83q-27 -53 -29 -119v-205q2 -66 29 -119q23 -45 71 -81.5t138 -36.5h76q-16 14 -24.5 31.5 t-12.5 33.5q-6 18 -4 37q2 37 16 68q12 25 40 46t79 21t79.5 -21.5t41.5 -45.5q14 -31 16 -68v-2q0 -6 -4 -33.5t-20.5 -57.5t-50.5 -54.5t-95 -24.5h-137q-115 0 -177.5 47t-90.5 107q-35 68 -39 153zM479 172q0 -20 8 -35q6 -14 19.5 -24.5t40.5 -10.5q39 0 52 21.5 t15 36.5q0 2 1 4t1 4v4q0 18 -8 33q-6 12 -20 23.5t-41 11.5t-40 -11.5t-20 -23.5q-8 -14 -8 -33z" />
<glyph unicode="&#xed3;" horiz-adv-x="753" d="M70 137q2 37 16 68q12 25 40 46t81 21q41 0 67 -14v289h68v-342q2 -39 16 -70q12 -27 40 -47t81 -20q51 0 80 20.5t41 46.5q14 31 16 70v342q0 18 -8 35q-6 12 -20.5 23t-38.5 11h-375q-29 2 -51 13q-20 10 -35.5 30.5t-15.5 59.5t15 59.5t36 30.5q23 10 51 12h340 q39 0 59.5 15.5t30.5 35.5q10 23 12 52h68q-2 -49 -20 -86q-16 -33 -51 -59.5t-99 -26.5h-340q-10 0 -18 -4q-16 -8 -17 -29q0 -23 17 -31q8 -4 18 -4h375q51 0 78.5 -21.5t40.5 -48.5q14 -31 16 -67v-342q-4 -57 -27 -103q-20 -39 -60 -70.5t-118 -31.5q-59 0 -96 18.5 t-59 47.5q-12 -25 -40 -45.5t-77 -20.5q-53 0 -81 20.5t-40 47.5q-14 31 -16 69zM137 137q0 -20 8 -35q6 -14 20.5 -24t41.5 -10q25 0 39 10t20 24q8 14 8 35q0 18 -8 33q-6 12 -20.5 23.5t-38.5 11.5q-27 0 -41 -11.5t-21 -23.5q-8 -14 -8 -33z" />
<glyph unicode="&#xed4;" horiz-adv-x="753" d="M70 172v477q0 63 26.5 98t59.5 52q37 18 86 20h272q39 0 59.5 15.5t30.5 35.5q10 23 12 52h68q-2 -49 -20 -86q-16 -33 -51 -58.5t-99 -25.5h-272q-29 -2 -52 -13q-20 -10 -35.5 -30.5t-15.5 -59.5v-477q0 -39 15.5 -59.5t35.5 -30.5q23 -10 52 -12h118q-35 29 -60.5 78 t-25.5 126v68q2 37 17 68q12 27 39.5 48t81.5 21q51 0 79.5 -21.5t40.5 -47.5q14 -31 17 -68q-2 -39 -17 -70q-12 -27 -40.5 -47t-79.5 -20q-18 0 -34 4t-28 8q12 -55 44 -85t67 -44q39 -16 86 -18h102v-70h-407q-49 0 -86 20q-33 16 -59.5 51t-26.5 101zM344 342 q0 -20 8 -35q6 -12 19.5 -22.5t40.5 -10.5q25 0 39 10.5t20 22.5q8 14 8 35q0 18 -8 33q-6 12 -20 23.5t-39 11.5q-27 0 -40.5 -11.5t-19.5 -23.5q-8 -14 -8 -33z" />
<glyph unicode="&#xed5;" horiz-adv-x="753" d="M70 172v477q0 63 26.5 98t59.5 52q37 18 86 20h49q-16 29 -17 68q0 51 20.5 79.5t47.5 41.5q31 14 70 16q37 -2 67 -16q25 -12 46.5 -41t21.5 -80q0 -39 -12 -66q29 4 46 21.5t25 34.5q8 20 10 45h68q-2 -49 -20 -86q-16 -33 -51 -58.5t-99 -25.5h-272q-29 -2 -52 -13 q-20 -10 -35.5 -30.5t-15.5 -59.5v-477q0 -39 15.5 -59.5t35.5 -30.5q23 -10 52 -12h118q-35 29 -60.5 78t-25.5 126v68q2 37 17 68q12 27 39.5 48t81.5 21q51 0 79.5 -21.5t40.5 -47.5q14 -31 17 -68q-2 -39 -17 -70q-12 -27 -40.5 -47t-79.5 -20q-18 0 -34 4t-28 8 q12 -55 44 -85t67 -44q39 -16 86 -18h102v-70h-407q-49 0 -86 20q-33 16 -59.5 51t-26.5 101zM344 342q0 -20 8 -35q6 -12 19.5 -22.5t40.5 -10.5q25 0 39 10.5t20 22.5q8 14 8 35q0 18 -8 33q-6 12 -20 23.5t-39 11.5q-27 0 -40.5 -11.5t-19.5 -23.5q-8 -14 -8 -33z M344 887q0 -27 10.5 -40t22.5 -20q14 -8 35 -8q18 0 32 8q12 6 23.5 19.5t11.5 40.5t-11 41t-24 20q-14 8 -32 8q-20 0 -35 -8q-12 -6 -22.5 -20.5t-10.5 -40.5z" />
<glyph unicode="&#xed6;" horiz-adv-x="686" d="M70 137v273l2 22q2 21 15 46.5t41 47t79 21.5t78.5 -21.5t40.5 -48.5q14 -31 16 -67q-2 -39 -16 -68q-12 -27 -40 -47.5t-79 -20.5q-23 0 -39 4.5t-31 10.5v-152q0 -27 10.5 -40t22.5 -19q14 -8 35 -8q29 2 51 12q18 10 34.5 30.5t16.5 59.5h70q0 -39 15.5 -59.5 t35.5 -30.5q23 -10 51 -12q18 0 33 8q12 6 23.5 19.5t11.5 39.5v410q0 18 -8 33q-6 12 -20.5 23t-39.5 11h-307q-29 2 -51 13q-20 10 -35.5 30.5t-15.5 59.5t15 59.5t36 30.5q23 10 51 12h272q39 0 59.5 15.5t31.5 35.5q10 23 12 52h69q-2 -49 -22 -86q-16 -33 -51 -58.5 t-99 -25.5h-272q-10 0 -18 -4q-16 -8 -17 -31q0 -20 17 -29q8 -4 18 -4l307 -2q51 0 79 -21.5t40 -46.5q14 -31 16 -67v-410q0 -53 -21.5 -80.5t-45.5 -40.5q-31 -14 -68 -16q-27 0 -51 8q-23 6 -45.5 19.5t-40.5 35.5q-18 -23 -42 -36t-46 -19q-25 -8 -49 -8q-39 2 -68 16 q-27 12 -47 40t-20 81zM137 410q0 -20 8 -35q6 -12 20.5 -22.5t41.5 -10.5q25 0 39 10t20 23q8 14 8 35q0 18 -8 34q-6 12 -20 23.5t-39 11.5q-27 0 -41 -11t-21 -24q-8 -16 -8 -34z" />
<glyph unicode="&#xed7;" horiz-adv-x="753" d="M70 135q0 51 20.5 80t46.5 41q31 14 70 16q10 0 20 -2t22.5 -5t24.5 -9v307q-12 -8 -24 -11t-23 -5q-10 -2 -20 -2q-39 2 -70 16q-27 12 -47 40t-20 81q0 51 20.5 80t46.5 41q31 14 70 16q23 0 45 -8q18 -6 38.5 -19.5t35.5 -37.5q23 29 59.5 47t93.5 18q78 0 118 -31.5 t60 -70.5q23 -45 27 -103v-716q-2 -49 -20 -86q-16 -33 -51 -58.5t-99 -25.5v67q39 0 59.5 15.5t30.5 35.5q10 23 12 52v716q-2 37 -16 68q-12 25 -41 46.5t-80 21.5t-78.5 -21.5t-40.5 -46.5q-14 -31 -16 -68v-479q0 -51 -21.5 -78.5t-48.5 -40.5q-31 -14 -67 -16 q-39 2 -70 16q-27 12 -47 40t-20 79zM137 135q0 -27 10.5 -40t24.5 -19q15 -8 35 -8q18 0 33 8q12 6 23 19.5t11 39.5q0 27 -11 41t-23 21q-14 8 -33 8q-20 0 -35 -8q-14 -6 -24.5 -20.5t-10.5 -41.5zM137 682q0 -27 10.5 -40t24.5 -19q15 -9 35 -9q18 0 33 9q12 6 23 19 t11 40q0 25 -11 39t-23 20q-14 8 -33 9q-20 0 -35 -9q-14 -6 -24.5 -20t-10.5 -39z" />
<glyph unicode="&#xed8;" horiz-adv-x="753" d="M70 35q0 39 15 59.5t36 30.5q23 10 51 12h375v-69h-375q-10 0 -18 -5q-16 -8 -17 -28q0 -23 17 -31q8 -4 18 -4h375q27 0 41 10t20 23q8 14 8 35v579l-2 17q-2 16 -11 35.5t-29.5 35t-59.5 15.5t-59.5 -16.5t-30.5 -35.5q-10 -23 -12 -51h-68q-2 29 -12 51 q-10 18 -30.5 35t-59.5 17t-59.5 -16.5t-30.5 -35.5q-10 -23 -13 -51v-184q29 14 68 14q51 0 78.5 -21.5t40.5 -45.5q14 -31 16 -68q-2 -39 -16 -70q-12 -27 -40 -47t-79 -20t-79 21.5t-41 47t-15 46.5l-2 22v305l3 27q3 28 19.5 60t51 58.5t98.5 26.5q53 0 85.5 -19.5 t49.5 -45.5q18 27 51 46t86 19q63 0 98 -26.5t50.5 -58.5t18.5 -60l3 -27v-579q-4 -31 -12 -56q-10 -23 -26.5 -43t-51.5 -30q8 -14 13 -27.5t7 -24.5q2 -12 2 -24q-2 -39 -16 -68q-12 -27 -41 -47t-80 -20q-53 0 -80.5 20.5t-40.5 46.5q-14 29 -16 68q0 12 2 22t5 21.5 t11 25.5h-188q-29 2 -51 13q-20 10 -35.5 30.5t-15.5 59.5zM137 342q0 -20 8 -35q6 -14 20.5 -24.5t41.5 -10.5q25 0 39 10.5t20 24.5q8 14 8 35q0 18 -8 33q-6 12 -20 23.5t-39 11.5q-27 0 -41 -11.5t-21 -23.5q-8 -14 -8 -33zM412 -137q0 -20 8 -35q6 -12 19 -22.5 t40 -10.5q25 0 39 10.5t21 22.5q8 14 8 35q0 18 -8 35q-6 12 -20.5 23t-39.5 11q-27 0 -40 -11t-19 -23q-8 -16 -8 -35z" />
<glyph unicode="&#xed9;" horiz-adv-x="821" d="M70 135v479q2 57 24 103q18 39 60.5 70.5t119.5 31.5q76 0 117 -31.5t62 -70.5q23 -45 26 -103v-446h-2q4 -29 15 -51q10 -20 29.5 -35.5t58.5 -15.5t59 15t31 36q10 23 12 51v651h70v-651q-4 -49 -23 -86q-16 -33 -50 -58.5t-99 -25.5q-66 0 -100 25.5t-50 58.5 q-18 37 -20 86v446q-2 37 -17 68q-12 25 -39.5 46.5t-79.5 21.5q-53 0 -80.5 -21.5t-39.5 -46.5q-14 -31 -17 -68v-358q14 6 29.5 10t38.5 4q51 0 79.5 -21.5t41.5 -45.5q14 -31 16 -68q-2 -39 -16 -69q-12 -27 -41 -47.5t-80 -20.5t-79 21.5t-40 47t-14 47.5zM137 135 q0 -20 8 -35q6 -14 19.5 -24t40.5 -10t41 10t20 24q8 14 8 35q0 18 -8 33q-6 12 -20 23.5t-41 11.5t-40 -11.5t-20 -23.5q-8 -14 -8 -33z" />
<glyph unicode="&#xedc;" horiz-adv-x="1163" d="M2 682q0 51 20.5 80t47.5 41q29 14 67 16q37 -2 68 -16q27 -12 48 -41t21 -80v-614q72 0 120 51t79 124.5t46.5 158.5t21.5 153q-23 -8 -62 -8q-39 2 -69 16q-27 12 -47.5 40t-20.5 79t20.5 80t47.5 41q31 14 69 16q16 0 35 -4q35 -6 66 -35q12 16 36.5 27.5t67.5 11.5 q37 -2 68 -16q27 -12 48 -41t21 -80v-137q0 -51 -21.5 -85t-46 -63.5t-46 -57.5t-21.5 -67v-32q2 -49 21 -86q16 -33 50 -59.5t99 -26.5q63 0 98 26.5t52 59.5q18 37 20 86v577h68v-577q-6 -68 -31 -121q-23 -45 -70 -82t-137 -37q-61 0 -102 18.5t-70 47.5v-66h-68v272 q0 51 21.5 86t47.5 64t47.5 56.5t21.5 66.5l-2 137q0 27 -11.5 41t-23.5 20q-14 8 -33 9q-35 0 -49 -16.5t-21 -41.5q2 -4 2 -12q-6 -193 -43 -342q-16 -63 -40.5 -124.5t-60.5 -109t-85 -77t-113 -29.5h-67v563q-14 -6 -25.5 -9t-21.5 -5t-23 -2q-39 2 -67 16 q-27 12 -47.5 40t-20.5 79zM70 682q0 -27 10 -40t22 -19q15 -9 35 -9q18 0 35 9q12 6 23.5 19t11.5 40t-11.5 41t-23.5 20q-16 8 -35 9q-20 0 -35 -9q-12 -6 -22 -20t-10 -41zM412 682q0 -27 10 -40t22 -19q14 -8 35 -9q35 0 49.5 15.5t18.5 38.5v14q0 27 -11.5 41t-23.5 20 q-14 8 -33 9q-20 0 -35 -9q-12 -6 -22 -20t-10 -41z" />
<glyph unicode="&#xedd;" horiz-adv-x="1230" d="M2 682q0 51 20.5 80t47.5 41q29 14 67 16q37 -2 68 -16q27 -12 48 -41t21 -80v-614q72 0 120 51t79 124.5t46.5 158.5t21.5 153q-23 -8 -62 -8q-39 2 -69 16q-27 12 -47.5 40t-20.5 79t20.5 80t47.5 41q31 14 69 16q16 0 35 -4q35 -6 66 -35q12 16 36.5 27.5t67.5 11.5 q37 -2 68 -16q27 -12 48 -41t21 -80v-477q2 -39 17 -70q12 -27 39.5 -47t78.5 -20t80 20.5t41 46.5q14 31 17 70v614h67v-614q-4 -57 -26 -103q-20 -39 -60.5 -70.5t-118.5 -31.5q-57 0 -94 18.5t-59 47.5q-14 -25 -42 -45.5t-77 -20.5q-53 0 -81 20.5t-40 47.5 q-14 31 -16 69q2 37 16 68q12 25 40 46t81 21q39 0 68 -14v424q0 27 -11.5 41t-23.5 20q-14 8 -33 9q-35 0 -49 -17.5t-21 -40.5q0 -4 1 -6t1 -6q-6 -193 -43 -342q-16 -63 -40.5 -124.5t-60.5 -109t-85 -77t-113 -29.5h-67v563q-14 -6 -25.5 -9t-21.5 -5t-23 -2 q-39 2 -67 16q-27 12 -47.5 40t-20.5 79zM70 682q0 -27 10 -40t22 -19q15 -9 35 -9q18 0 35 9q12 6 23.5 19t11.5 40t-11.5 41t-23.5 20q-16 8 -35 9q-20 0 -35 -9q-12 -6 -22 -20t-10 -41zM412 682q0 -27 10 -40t22 -19q15 -9 35 -9q35 0 49.5 15.5t18.5 38.5v14 q0 27 -11.5 41t-23.5 20q-14 8 -33 9q-20 0 -35 -9q-12 -6 -22 -20t-10 -41zM616 137q0 -20 9 -35q6 -14 19 -24t40 -10q25 0 39 10t20 24q8 14 9 35q0 18 -9 33q-6 12 -20 23.5t-39 11.5q-27 0 -40 -11.5t-19 -23.5q-8 -14 -9 -33z" />
<glyph unicode="&#x1e9e;" horiz-adv-x="753" d="M70 0v852q4 86 39 154q29 57 91 105t177 48t177 -48t91 -105q35 -68 39 -154q0 -25 -38 -66t-82 -82.5t-82 -76.5t-38 -47q0 -20 9 -35q6 -12 20 -22.5t41 -10.5q88 0 136 -38t71 -83q25 -53 31 -119q-4 -78 -35 -137q-27 -51 -81 -93t-157 -42q-102 0 -156.5 42 t-80.5 93q-31 59 -35 137h67q2 -57 25 -102q18 -39 60 -70.5t120 -31.5t118 31.5t60 70.5q23 45 27 102q-2 49 -20 86q-16 33 -51 59.5t-99 26.5q-53 0 -80.5 20.5t-40.5 47.5q-14 29 -16 68q0 25 37 66.5t82 82.5t81.5 76t36.5 47q-6 66 -30 119q-23 45 -71 83t-136 38 q-90 0 -138.5 -38t-70.5 -83q-27 -53 -31 -119v-852h-67z" />
<glyph unicode="&#x2000;" horiz-adv-x="819" />
<glyph unicode="&#x2001;" horiz-adv-x="1638" />
<glyph unicode="&#x2002;" horiz-adv-x="819" />
<glyph unicode="&#x2003;" horiz-adv-x="1638" />
<glyph unicode="&#x2004;" horiz-adv-x="546" />
<glyph unicode="&#x2005;" horiz-adv-x="409" />
<glyph unicode="&#x2006;" horiz-adv-x="273" />
<glyph unicode="&#x2007;" horiz-adv-x="273" />
<glyph unicode="&#x2008;" horiz-adv-x="204" />
<glyph unicode="&#x2009;" horiz-adv-x="327" />
<glyph unicode="&#x200a;" horiz-adv-x="91" />
<glyph unicode="&#x200b;" />
<glyph unicode="&#x2010;" horiz-adv-x="614" d="M35 444v68h545v-68h-545z" />
<glyph unicode="&#x2011;" horiz-adv-x="614" d="M35 444v68h545v-68h-545z" />
<glyph unicode="&#x2012;" horiz-adv-x="614" d="M35 444v68h545v-68h-545z" />
<glyph unicode="&#x2013;" horiz-adv-x="823" d="M70 444v68h684v-68h-684z" />
<glyph unicode="&#x2014;" horiz-adv-x="1032" d="M70 444v68h893v-68h-893z" />
<glyph unicode="&#x2018;" horiz-adv-x="274" d="M35 954l170 138l35 -35l-138 -170z" />
<glyph unicode="&#x2019;" horiz-adv-x="274" d="M35 922l137 170l68 -68l-170 -137z" />
<glyph unicode="&#x201a;" horiz-adv-x="274" d="M35 -70l137 170l68 -67l-170 -137z" />
<glyph unicode="&#x201c;" horiz-adv-x="444" d="M35 954l170 138l35 -35l-138 -170zM205 954l170 138l35 -35l-138 -170z" />
<glyph unicode="&#x201d;" horiz-adv-x="444" d="M35 922l137 170l68 -68l-170 -137zM205 922l137 170l68 -68l-170 -137z" />
<glyph unicode="&#x201e;" horiz-adv-x="411" d="M35 -70l137 170l68 -67l-170 -137zM172 -70l137 170l68 -67l-170 -137z" />
<glyph unicode="&#x2020;" horiz-adv-x="411" d="M35 852v68h137v307h68v-307h137v-68h-137v-922h-68v922h-137z" />
<glyph unicode="&#x2021;" horiz-adv-x="411" d="M35 238v67h137v547h-137v68h137v307h68v-307h137v-68h-137v-547h137v-67h-137v-308h-68v308h-137z" />
<glyph unicode="&#x2022;" horiz-adv-x="413" d="M70 580q2 37 16 67q12 27 40 48.5t81 21.5q51 0 79.5 -21.5t41.5 -48.5q14 -31 16 -67q-2 -39 -16 -70q-12 -27 -41 -47.5t-80 -20.5q-53 0 -81 20.5t-40 47.5q-14 31 -16 70z" />
<glyph unicode="&#x2026;" horiz-adv-x="825" d="M70 68q0 18 8 32q6 12 19 23.5t40 11.5t41.5 -11t20.5 -24q8 -14 8 -32q0 -20 -8 -35q-6 -12 -20.5 -22.5t-41.5 -10.5t-40 10t-19 23q-8 14 -8 35zM344 68q0 18 8 32q6 12 19.5 23.5t40.5 11.5t41 -11t20 -24q8 -14 8 -32q0 -20 -8 -35q-6 -12 -20.5 -22.5t-40.5 -10.5 q-27 0 -40.5 10t-19.5 23q-8 14 -8 35zM618 68q0 18 9 32q6 12 19 23.5t40 11.5t41 -11t21 -24q8 -14 8 -32q0 -20 -8 -35q-6 -12 -20.5 -22.5t-41.5 -10.5t-40 10t-19 23q-8 14 -9 35z" />
<glyph unicode="&#x202f;" horiz-adv-x="327" />
<glyph unicode="&#x205f;" horiz-adv-x="409" />
<glyph unicode="&#x20ac;" horiz-adv-x="960" d="M2 377v67h139v203h-139v68h139v35q6 115 47 204q18 39 45 76t66 65.5t92 46t125 17.5q70 0 123 -17.5t93 -46t66.5 -65.5t45.5 -76q41 -90 47 -204h-68q-4 94 -39 170q-14 33 -36.5 63.5t-54 55t-76 39t-101.5 14.5t-101 -14.5t-76 -39t-54.5 -55.5t-36.5 -63 q-35 -76 -39 -170v-35h338v-68h-338v-203h338v-67h-338v-37q4 -78 39 -137q29 -51 91 -93t177 -42t177.5 42t90.5 93q35 59 39 137h68q-6 -96 -47 -170q-18 -33 -45 -63.5t-67 -54t-93 -38t-123 -14.5q-72 0 -125 14.5t-92 38t-65.5 54t-45.5 63.5q-41 74 -47 170v37h-139z " />
<glyph unicode="&#x20ad;" horiz-adv-x="860" d="M2 512v68h141v579h68v-579h8q16 0 60.5 6t99.5 25.5t116.5 57.5t111.5 102.5t83 158.5t33 229h68q0 -129 -28 -224t-72 -165t-100 -116t-114 -74h311v-68h-282q106 -57 164.5 -144t85.5 -169q31 -96 35 -199h-68q-8 143 -64 256q-25 47 -61.5 93t-90.5 82t-127 58.5 t-169 22.5v-512h-68v512h-141z" />
<glyph unicode="&#x2122;" horiz-adv-x="1091" d="M35 1092v67h407v-67h-170v-615h-67v615h-170zM512 477v682h68q27 -35 55.5 -75t56 -79.5t51 -74.5t41.5 -62q18 27 42 62t51.5 74.5t56.5 79.5t55 75h68v-682h-68v576q-29 -39 -69.5 -96.5t-102.5 -139.5h-67q-59 82 -101.5 139.5t-68.5 96.5v-576h-68z" />
<glyph unicode="&#x2212;" horiz-adv-x="614" d="M35 512v68h545v-68h-545z" />
<glyph unicode="&#x25cc;" horiz-adv-x="958" d="M70 410q0 27 10 41t22 20q14 8 35 8q18 0 33 -8q12 -6 23.5 -20.5t11.5 -40.5q0 -27 -11.5 -40.5t-23.5 -19.5q-14 -8 -33 -8q-20 0 -35 8q-12 6 -22 19.5t-10 40.5zM169 155.5q-3 16.5 1 30.5q6 16 18 31q12 10 29 16q14 4 31.5 2t36.5 -20q18 -18 20 -34.5t-2 -30.5 q-6 -16 -18 -29q-12 -12 -29 -19q-14 -4 -32 -1.5t-34 20.5q-18 18 -21 34.5zM170 663.5q2 16.5 20 34.5t35 20.5t31 -1.5q16 -6 31 -17q10 -14 16 -30q4 -14 2 -30.5t-20 -35.5q-18 -18 -35 -20t-31 2q-16 6 -29 18q-12 12 -18 29q-4 14 -2 30.5zM412 68q0 18 8 32 q6 12 19 23.5t40 11.5t41.5 -11t20.5 -24q8 -14 8 -32q0 -20 -8 -35q-6 -12 -20.5 -22.5t-41.5 -10.5t-40 10t-19 23q-8 14 -8 35zM412 752q0 18 8 32q6 12 19 23.5t40 11.5t41.5 -11t20.5 -24q8 -14 8 -32q0 -20 -8 -35q-6 -12 -20.5 -22.5t-41.5 -10.5t-40 10.5t-19 22.5 q-8 14 -8 35zM652.5 638.5q-3.5 16.5 0.5 31.5q6 16 19 30q12 10 28 17q14 4 32 2t36 -21q18 -18 20.5 -34.5t-2.5 -30.5q-6 -16 -18 -29q-12 -12 -29 -18q-14 -4 -31.5 -2t-33.5 20q-18 18 -21.5 34.5zM653.5 180.5q2.5 16.5 20.5 34.5t34.5 20.5t30.5 -2.5q16 -6 31 -16 q10 -14 16 -31q4 -14 2 -30.5t-20 -34.5t-34.5 -20.5t-31.5 1.5q-16 6 -28 19q-12 12 -19 29q-4 14 -1.5 30.5zM754 410q0 27 10 41t22 20q14 8 35 8q18 0 33 -8q12 -6 23.5 -20.5t11.5 -40.5q0 -27 -11.5 -40.5t-23.5 -19.5q-14 -8 -33 -8q-20 0 -35 8q-12 6 -22 19.5 t-10 40.5z" />
<glyph unicode="&#xe000;" horiz-adv-x="819" d="M0 0v819h819v-819h-819z" />
<glyph unicode="&#xf700;" horiz-adv-x="686" d="M70 547q4 76 34 135q27 51 82.5 94t157.5 43q76 0 125 -24.5t80 -59.5v84h67v-272h-67q-4 57 -27 102q-20 39 -60 71t-118 32t-120 -32t-60 -71q-23 -45 -25 -102q0 -51 36 -72.5t88 -29t114.5 -9.5t115 -15t88 -46t35.5 -101v-274h-67v35q-2 29 -10 57q-8 25 -21.5 53.5 t-40.5 51.5q0 -6 1 -10.5t1 -8.5v-6q-2 -39 -16 -70q-12 -27 -40 -47t-79 -20q-53 0 -80.5 20.5t-40.5 46.5q-14 31 -16 70q2 37 16 68q12 25 40 46t81 21h23q66 -4 109.5 -27.5t72.5 -56.5v51q0 51 -36 73t-89 29t-114.5 9t-115 15.5t-89 46t-35.5 100.5zM274 172 q0 -20 9 -35q6 -12 20 -22.5t41 -10.5q25 0 39 10.5t20 22.5q9 15 9 35q0 18 -9 33q-6 12 -20 23.5t-39 11.5q-27 0 -41 -11.5t-20 -23.5q-8 -14 -9 -33z" />
<glyph unicode="&#xf701;" d="M-618 887v67q2 57 24 103q18 39 60.5 70.5t120.5 31.5t117.5 -31.5t60.5 -70.5q23 -45 26 -103v-67h-409zM-551 954h273q-2 37 -17 68q-12 27 -39.5 48.5t-78.5 21.5q-53 0 -81 -21.5t-40 -48.5q-14 -31 -17 -68z" />
<glyph unicode="&#xf702;" d="M-618 887v67q2 57 24 103q18 39 60.5 70.5t120.5 31.5q47 0 79.5 -12t55.5 -33v45h69v-272h-409zM-551 954h273l-2 22q-2 21 -14.5 47t-40 47.5t-78.5 21.5q-53 0 -81 -21.5t-40 -48.5q-14 -31 -17 -68z" />
<glyph unicode="&#xf703;" d="M-618 887v67q2 57 24 103q18 39 60.5 70.5t120.5 31.5q70 0 114 -29q16 12 37.5 20.5t52.5 8.5q51 0 80 -21.5t41 -45.5q14 -31 17 -68q-2 -39 -17 -70q-12 -27 -40.5 -47t-80.5 -20h-10h-399zM-549 954h222q4 -8 16 -24q-12 14 -18.5 30.5t-10.5 30.5q-4 16 -4 33 q0 12 2 24.5t6 22.5q-31 20 -77 21q-51 0 -79 -21.5t-40 -48.5q-14 -31 -17 -68zM-311 930q10 -12 31 -27q-21 15 -31 27zM-280 903q4 -2 9 -4t11 -4q-12 4 -20 8zM-276 1024q0 -20 8 -35q6 -14 19 -24.5t40 -10.5t41.5 10.5t20.5 24.5q8 14 8 35q0 18 -8 33 q-6 12 -20.5 23.5t-41.5 11.5t-40 -11.5t-19 -23.5q-8 -14 -8 -33z" />
<glyph unicode="&#xf704;" d="M-721 887v67q2 57 25 103q18 39 60 70.5t120 31.5q47 0 80 -12t55 -33v45h70v-272h-410zM-653 954h272l-2 22q-2 21 -14 47t-40 47.5t-79 21.5q-53 0 -80.5 -21.5t-40.5 -48.5q-14 -31 -16 -68zM-276 887v272h67v-272h-67z" />
<glyph unicode="&#xf705;" d="M-276 887v342h67v-342h-67z" />
<glyph unicode="&#xf706;" d="M-481 887v67h16t16 2h5q45 6 73.5 24.5t46.5 43.5q-6 -2 -22 -2q-51 0 -79 20.5t-40 47.5q-14 31 -16 69q2 37 16 68q12 27 40 48t79 21t79.5 -21.5t41.5 -47.5q14 -31 16 -68v-2q0 -6 -5 -45t-28 -86q55 37 95.5 101.5t40.5 168.5h67q0 -121 -44 -197.5t-105.5 -120.5 t-127 -62.5t-110.5 -24.5q-6 -2 -18 -2q-10 -2 -16.5 -2h-10.5h-10zM-414 1159q0 -20 8 -35q6 -12 19.5 -22t40.5 -10t41 10t20 22q8 14 9 35q0 18 -9 33q-6 12 -20 23.5t-41 11.5t-40 -11.5t-20 -23.5q-8 -14 -8 -33z" />
<glyph unicode="&#xf707;" d="M-688 1022v137q2 37 16 68q12 27 40 48t81 21q39 0 62.5 -13t39.5 -30q16 16 40 29.5t63 13.5q51 0 79.5 -21.5t41.5 -47.5q14 -31 16 -68v-67q0 -12 -2 -27q-2 -23 -16 -59q59 33 106 101.5t47 188.5h70q0 -125 -44 -201.5t-103.5 -121.5t-122 -62.5t-101.5 -21.5 q-8 0 -12 -2h-27v67q14 0 21 2h4q41 4 63.5 27t32.5 47q12 29 14 62v67q0 18 -8 33q-6 12 -20.5 23.5t-38.5 11.5q-27 0 -40 -11.5t-20 -23.5q-8 -14 -8 -33h-69v2q0 2 -1 12.5t-8.5 22.5t-20.5 21.5t-38 9.5q-27 0 -40 -11.5t-19 -23.5q-8 -14 -8 -33v-16q27 16 67 16 q51 0 80 -21.5t41 -47.5q14 -31 16 -68q-2 -39 -16 -68q-12 -27 -41 -47t-80 -20q-53 0 -80.5 20.5t-40.5 46.5q-14 29 -16 68zM-618 1022q0 -20 8 -35q6 -12 19 -22.5t40 -10.5q25 0 39 10.5t20 22.5q8 14 9 35q0 18 -9 35q-6 12 -20 23.5t-39 11.5t-38 -9.5t-20 -21.5 t-8 -23.5t-1 -13.5v-2z" />
<glyph unicode="&#xf708;" d="M-414 1024v68h138v137h67v-137h137v-68h-137v-137h-67v137h-138z" />
<glyph unicode="&#xf709;" d="M-483 1024q0 51 20.5 80t46.5 41q31 14 70 16h135q27 0 41 10.5t20 22.5q8 14 9 35h67q-2 -39 -16 -70q-12 -27 -41 -47t-80 -20h-14q16 -27 16 -68q0 -53 -21.5 -81t-48.5 -40q-31 -14 -67 -16q-39 2 -70 16q-27 12 -47 40t-20 81zM-416 1024q0 -27 10.5 -40t24.5 -19 q14 -8 35 -9q18 0 33 9q12 6 23 19t11 40q0 20 -7 33.5t-18 20.5t-21.5 10.5t-16.5 3.5h-4l-12 -1q-11 -1 -24 -7.5t-23.5 -20.5t-10.5 -39z" />
<glyph unicode="&#xf70a;" d="M-137 887v342h67v-342h-67z" />
<glyph unicode="&#xf70b;" d="M-342 887v67h16.5t16.5 2h4q45 6 73.5 24.5t47.5 43.5q-6 -2 -23 -2q-51 0 -78.5 20.5t-40.5 47.5q-14 31 -16 69q2 37 16 68q12 27 40 48t79 21t80 -21.5t41 -47.5q14 -31 16 -68v-2q0 -6 -5 -45t-27 -86q55 37 95 101.5t40 168.5h67q0 -121 -44 -197.5t-105.5 -120.5 t-127 -62.5t-110.5 -24.5q-6 -2 -18 -2q-10 -2 -16.5 -2h-10.5h-10zM-274 1159q0 -20 8 -35q6 -12 19 -22t40 -10t41 10t21 22q8 14 8 35q0 18 -8 33q-6 12 -20.5 23.5t-41.5 11.5t-40 -11.5t-19 -23.5q-8 -14 -8 -33z" />
<glyph unicode="&#xf70c;" d="M-549 1022v137q2 37 17 68q12 27 39.5 48t80.5 21q39 0 62.5 -13t40.5 -30q16 16 39.5 29.5t62.5 13.5q51 0 80 -21.5t41 -47.5q14 -31 16 -68v-67q0 -12 -2 -27q-2 -23 -16 -59q59 33 106.5 101.5t47.5 188.5h69q0 -125 -44 -201.5t-103.5 -121.5t-122 -62.5 t-101.5 -21.5q-8 0 -12 -2h-26v67q14 0 20 2h4q41 4 63.5 27t32.5 47q12 29 15 62v67q0 18 -8 33q-6 12 -20.5 23.5t-39.5 11.5q-27 0 -40 -11.5t-19 -23.5q-8 -14 -8 -33h-70v2q0 2 -1 12.5t-8 22.5t-20.5 21.5t-38.5 9.5q-27 0 -40 -11.5t-19 -23.5q-8 -14 -8 -33v-16 q27 16 67 16q51 0 80 -21.5t41 -47.5q14 -31 17 -68q-2 -39 -17 -68q-12 -27 -40.5 -47t-80.5 -20q-53 0 -80.5 20.5t-39.5 46.5q-14 29 -17 68zM-479 1022q0 -20 8 -35q6 -12 19.5 -22.5t39.5 -10.5q25 0 39.5 10.5t20.5 22.5q8 14 8 35q0 18 -8 35q-6 12 -20.5 23.5 t-39.5 11.5t-38 -9.5t-20 -21.5t-8 -23.5t-1 -13.5v-2z" />
<glyph unicode="&#xf70d;" d="M-274 1024v68h137v137h67v-137h138v-68h-138v-137h-67v137h-137z" />
<glyph unicode="&#xf70e;" d="M-344 1024q0 51 20.5 80t47.5 41q31 14 69 16h135q27 0 41.5 10.5t20.5 22.5q8 14 8 35h68q-2 -39 -17 -70q-12 -27 -40.5 -47t-80.5 -20h-14q16 -27 16 -68q0 -53 -21.5 -81t-47.5 -40q-31 -14 -68 -16q-39 2 -69 16q-27 12 -47.5 40t-20.5 81zM-276 1024q0 -27 10 -40 t24 -19q14 -8 35 -9q18 0 33 9q12 6 23.5 19t11.5 40q0 20 -7.5 33.5t-18.5 20.5t-21.5 10.5t-16.5 3.5h-4l-11 -1t-24.5 -7.5t-23.5 -20.5t-10 -39z" />
<glyph unicode="&#xf70f;" horiz-adv-x="958" d="M70 135v137q0 25 8 50q6 20 18.5 43.5t36.5 42.5q-25 18 -37 41.5t-18 46.5q-8 25 -8 49q4 76 34 135q27 51 81.5 94t156.5 43t157.5 -43t82.5 -94q31 -59 34 -135v-375q2 -29 13 -51q10 -20 30.5 -35.5t59.5 -15.5t59.5 15t30.5 36q10 23 12 51v647h68v-647 q-2 -49 -21 -86q-16 -33 -51 -58.5t-98 -25.5q-66 0 -100.5 25.5t-51.5 58.5q-20 37 -20 86v375q-4 57 -27 102q-20 39 -60 71t-118 32t-120 -32t-60 -71q-23 -45 -25 -102q2 -29 13 -51q10 -20 30.5 -36t59.5 -16v-67q-39 0 -59.5 -16.5t-30.5 -34.5q-10 -23 -13 -52v-16 q29 16 70 16q51 0 78.5 -21.5t40.5 -47.5q14 -31 16 -68q-2 -39 -16 -69q-12 -27 -40 -47.5t-79 -20.5q-53 0 -81 20.5t-40 47.5q-14 31 -16 69zM137 135q0 -20 8 -35q6 -12 20.5 -22t41.5 -10q25 0 39 10t20 22q8 14 8 35q0 18 -8 35q-6 12 -20 23.5t-39 11.5 q-27 0 -41 -11.5t-21 -23.5q-8 -16 -8 -35z" />
<glyph unicode="&#xf710;" d="M-618 1024q2 37 16 68q12 25 39.5 46t81.5 21q51 0 79.5 -21.5t41.5 -45.5q14 -31 16 -68v-6q0 -6 -4 -19q27 23 42 50.5t21 52.5q8 29 9 57h67q-4 -78 -35 -137q-27 -51 -81 -93t-156 -42q-53 0 -81 20.5t-40 46.5q-14 31 -16 70zM-549 1024q0 -20 8 -35 q6 -14 19.5 -24.5t40.5 -10.5q25 0 39 10.5t20 24.5q8 14 8 35q0 18 -8 33q-6 12 -20.5 23.5t-38.5 11.5q-27 0 -40.5 -11.5t-19.5 -23.5q-8 -15 -8 -33z" />
<glyph unicode="&#xf711;" d="M-481 1024q2 37 16 68q12 25 40 46t79 21t79.5 -21.5t41.5 -45.5q14 -31 16 -68q-2 -39 -16 -70q-12 -27 -41 -47t-80 -20t-79 20.5t-40 46.5q-14 31 -16 70zM-414 1024q0 -20 8 -35q6 -14 19.5 -24.5t40.5 -10.5t41 10.5t20 24.5q9 15 9 35q0 18 -9 33q-6 12 -20 23.5 t-41 11.5t-40 -11.5t-20 -23.5q-8 -14 -8 -33z" />
<glyph unicode="&#xf712;" d="M-686 1024v68q2 57 24 102q18 39 60.5 70.5t120.5 31.5h340v-67h-340q-53 0 -81 -21.5t-40 -48.5q-14 -31 -16 -67v-68q0 -20 8 -35q6 -14 19 -24.5t40 -10.5q25 0 39 9.5t20.5 21.5t8.5 23.5t2 13.5v2q2 37 16 68q12 25 40 46t79 21t79.5 -21.5t41.5 -45.5 q14 -31 16 -68q-2 -39 -16 -70q-12 -27 -41 -47t-80 -20q-37 0 -61.5 12t-41.5 31q-14 -18 -38.5 -30.5t-63.5 -12.5q-51 0 -78.5 20.5t-40.5 46.5q-14 31 -16 70zM-414 1024q0 -20 8 -35q6 -14 19.5 -24.5t40.5 -10.5t41 10.5t20 24.5q8 14 9 35q0 18 -9 33q-6 12 -20 23.5 t-41 11.5t-40 -11.5t-20 -23.5q-8 -14 -8 -33z" />
<glyph unicode="&#xf713;" d="M-276 1229v272h67v-272h-67z" />
<glyph unicode="&#xf714;" d="M-481 1229v67h16t16 2h5q45 6 73.5 24.5t46.5 43.5q-6 -2 -22 -2q-51 0 -79 20.5t-40 47.5q-14 31 -16 69q2 37 16 68q12 27 40 48t79 21t79.5 -21.5t41.5 -47.5q14 -31 16 -68v-2q0 -6 -5 -45t-28 -86q55 37 95.5 101.5t40.5 168.5h67q0 -121 -44 -197.5t-105.5 -120.5 t-127 -62.5t-110.5 -24.5q-6 -2 -18 -2q-10 -2 -16.5 -2h-10.5h-10zM-414 1501q0 -20 8 -35q6 -12 19.5 -22t40.5 -10t41 10t20 22q8 14 9 35q0 18 -9 33q-6 12 -20 23.5t-41 11.5t-40 -11.5t-20 -23.5q-8 -14 -8 -33z" />
<glyph unicode="&#xf715;" d="M-688 1364v137q2 37 16 68q12 27 40 48t81 21q39 0 62.5 -13t39.5 -30q16 16 40 29.5t63 13.5q51 0 79.5 -21.5t41.5 -47.5q14 -31 16 -68v-67q0 -12 -2 -27q-2 -23 -16 -59q59 33 106 101.5t47 188.5h70q0 -125 -44 -201.5t-103.5 -121.5t-122 -62.5t-101.5 -21.5 q-8 0 -12 -2h-27v67q14 0 21 2h4q41 4 63.5 27t32.5 47q12 29 14 62v67q0 18 -8 33q-6 12 -20.5 23.5t-38.5 11.5q-27 0 -40 -11.5t-20 -23.5q-8 -14 -8 -33h-69v2q0 2 -1 12.5t-8.5 22.5t-20.5 21.5t-38 9.5q-27 0 -40 -11.5t-19 -23.5q-8 -14 -8 -33v-16q27 16 67 16 q51 0 80 -21.5t41 -47.5q14 -31 16 -68q-2 -39 -16 -68q-12 -27 -41 -47t-80 -20q-53 0 -80.5 20.5t-40.5 46.5q-14 29 -16 68zM-618 1364q0 -20 8 -35q6 -12 19 -22.5t40 -10.5q25 0 39 10.5t20 22.5q8 14 9 35q0 18 -9 35q-6 12 -20 23.5t-39 11.5t-38 -9.5t-20 -21.5 t-8 -23.5t-1 -13.5v-2z" />
<glyph unicode="&#xf716;" d="M-414 1366v68h138v137h67v-137h137v-68h-137v-137h-67v137h-138z" />
<glyph unicode="&#xf717;" d="M-483 1366q0 51 20.5 80t46.5 41q31 14 70 16h135q27 0 41 10.5t20 22.5q8 14 9 35h67q-2 -39 -16 -70q-12 -27 -41 -47t-80 -20h-14q16 -27 16 -68q0 -53 -21.5 -81t-48.5 -40q-31 -14 -67 -16q-39 2 -70 16q-27 12 -47 40t-20 81zM-416 1366q0 -27 10.5 -40t24.5 -19 q14 -8 35 -9q18 0 33 9q12 6 23 19t11 40q0 20 -7 33.5t-18 20.5t-21.5 10.5t-16.5 3.5h-4l-12 -1q-11 -1 -24 -7.5t-23.5 -20.5t-10.5 -39z" />
<glyph unicode="&#xf718;" d="M-342 -549q2 37 16 68q12 27 40 48t79 21t80 -21.5t41 -47.5q14 -31 16 -68v-272h-67v151q-14 -6 -30.5 -10t-39.5 -4q-51 0 -78.5 20.5t-40.5 47.5q-14 29 -16 67zM-274 -549q0 -20 8 -35q6 -12 19 -22t40 -10t41 10t21 22q8 14 8 35q0 18 -8 35q-6 12 -20.5 23.5 t-41.5 11.5t-40 -11.5t-19 -23.5q-8 -16 -8 -35z" />
<glyph unicode="&#xf719;" d="M-547 -549q2 37 17 68q12 27 39.5 48t78.5 21t80 -21.5t41 -47.5q14 -31 17 -68v-135q0 -20 8 -35q6 -14 19.5 -24.5t39.5 -10.5q27 0 41 10.5t21 24.5q8 14 8 35v272h67v-272q-2 -39 -16 -70q-12 -27 -41 -47t-80 -20t-78.5 20.5t-40.5 46.5q-14 31 -16 70v14 q-14 -6 -30.5 -10t-39.5 -4q-51 0 -78.5 20.5t-39.5 47.5q-14 29 -17 67zM-479 -549q0 -20 8 -35q6 -12 19 -22t40 -10t41.5 10t20.5 22q8 14 8 35q0 18 -8 35q-6 12 -20.5 23.5t-41.5 11.5t-40 -11.5t-19 -23.5q-8 -16 -8 -35z" />
<glyph unicode="&#xf71a;" d="M-207 -479q0 18 8 33q6 12 19.5 23t40.5 11t41 -11t20 -23q8 -14 8 -33q0 -20 -8 -35q-6 -12 -20.5 -22.5t-40.5 -10.5q-27 0 -40.5 10.5t-19.5 22.5q-8 14 -8 35z" />
<glyph unicode="&#xf71d;" horiz-adv-x="686" d="M70 137v137q0 51 15 90t37.5 70t50.5 58.5t50 56.5q-6 -2 -16 -2q-53 0 -81 20.5t-40 46.5q-14 31 -16 70q2 37 16 68q12 25 40 46t81 21q51 0 79.5 -21.5t41.5 -45.5q14 -31 16 -68v-2q0 -4 -2 -6q-2 -74 -34 -123t-69.5 -90t-68.5 -83t-31 -106v-137q0 -27 10.5 -40 t22.5 -19q14 -8 35 -8q29 2 51 12q18 10 34.5 30.5t16.5 59.5v272h68v-272q0 -39 15.5 -59.5t35.5 -30.5q23 -10 51 -12q18 0 35 8q12 6 23.5 19.5t11.5 39.5v484q-35 -6 -70 -7q-51 0 -78.5 20.5t-40.5 47.5q-14 29 -16 68q2 37 16 67q12 27 40 48.5t79 21.5t80 -21.5 t41 -48.5q14 -31 16 -67v-21q25 23 39.5 49.5t20.5 50.5q8 29 8 58h70q-4 -49 -19 -94q-14 -39 -40.5 -80t-78.5 -68v-508q0 -53 -21.5 -80.5t-47.5 -40.5q-31 -14 -68 -16q-27 0 -49 8q-23 6 -45.5 19.5t-40.5 35.5q-20 -23 -42.5 -36t-45.5 -19q-25 -8 -49 -8 q-39 2 -70 16q-27 12 -47 40t-20 81zM139 684q0 -20 8 -35q6 -14 19.5 -24.5t40.5 -10.5q20 0 33.5 8.5t20.5 18.5t10 20.5t3 16.5v6q0 18 -8 33q-6 12 -20.5 23.5t-38.5 11.5q-27 0 -40 -11.5t-20 -23.5q-8 -14 -8 -33zM412 750q0 -20 8 -35q6 -12 19.5 -22.5t39.5 -10.5 q20 0 36.5 2t33.5 6v60q0 18 -8 34q-6 12 -20.5 23.5t-41.5 11.5t-40 -11t-19 -24q-8 -16 -8 -34z" />
<glyph unicode="&#xfb00;" horiz-adv-x="688" d="M2 750v69h135v66q4 76 35 137q27 51 82 94t158 43v-69q-78 0 -120 -32t-61 -71q-23 -45 -24 -102v-66h274v66q4 76 35 137q27 51 82 94t158 43v-69q-78 0 -120 -32t-61 -71q-23 -45 -24 -102v-66h135v-69h-135v-750h-70v750h-274v-750h-70v750h-135z" />
<glyph unicode="&#xfb01;" horiz-adv-x="555" d="M2 752v67h137v66q4 76 35 137q27 51 82 94t158 43v-69q-78 0 -120 -32t-61 -71q-23 -45 -24 -102v-66h276v-819h-69v752h-207v-752h-70v752h-137z" />
<glyph unicode="&#xfb02;" horiz-adv-x="620" d="M2 750v67h137v68q4 76 35 137q27 51 82 94t158 43h137v-1159h-70v1090h-67q-78 0 -120 -32t-61 -71q-23 -45 -24 -102v-68h135v-67h-135v-750h-70v750h-137z" />
<glyph unicode="&#xfb03;" horiz-adv-x="897" d="M2 752v67h135v66q4 76 35 137q27 51 82 94t158 43v-69q-78 0 -120 -32t-61 -71q-23 -45 -24 -102v-66h274v66q4 76 35 137q27 51 82 94t158 43v-69q-78 0 -120 -32t-61 -71q-23 -45 -24 -102v-66h276v-819h-69v752h-207v-752h-70v752h-274v-752h-70v752h-135z" />
<glyph unicode="&#xfb04;" horiz-adv-x="962" d="M2 750v67h135v68q4 76 35 137q27 51 82 94t158 43v-69q-78 0 -120 -32t-61 -71q-23 -45 -24 -102v-68h274v68q4 76 35 137q27 51 82 94t158 43h137v-1159h-70v1090h-67q-78 0 -120 -32t-61 -71q-23 -45 -24 -102v-68h135v-67h-135v-750h-70v750h-274v-750h-70v750h-135z " />
<glyph unicode="&#xfb06;" horiz-adv-x="1032" d="M70 272h67q2 -57 25 -102q18 -39 60 -70.5t120 -31.5t118 31.5t60 70.5q23 45 27 102q0 51 -36 73t-88 29t-114.5 9t-115 15.5t-88 46t-35.5 102.5q4 76 34 135q27 51 81.5 94t156.5 43t157.5 -43t82.5 -94q31 -59 34 -135h-69q-4 57 -27 102q-20 39 -60 71t-118 32 t-120 -32t-60 -71q-23 -45 -25 -102q0 -51 36 -72.5t89 -29t114.5 -9.5t115 -15t89 -47t35.5 -102q-4 -78 -34 -137q-27 -51 -82.5 -93t-157.5 -42t-156.5 42t-81.5 93q-31 59 -34 137zM688 750v69h137v273h68v-273h137v-69h-137v-750h-68v750h-137z" />
<glyph horiz-adv-x="894" d="M106 342q0 66 23 125q16 51 55 103.5t111 82.5q-47 29 -71.5 68t-35.5 76q-12 43 -14 88q4 76 35 135q27 51 81 94t156 43q100 0 155.5 -43t82.5 -94q31 -59 35 -135q-2 -45 -14 -88q-10 -37 -36 -76t-71 -68q72 -31 108.5 -83t55.5 -103q20 -59 24 -125q-6 -96 -43 -170 q-16 -33 -40.5 -63.5t-60.5 -54t-84 -38t-112 -14.5q-63 0 -111 14.5t-84 38t-60.5 54t-40.5 63.5q-37 74 -44 170zM174 342q4 -78 35 -137q27 -51 81 -93t156 -42t156.5 42t81.5 93q31 59 35 137q-4 76 -35 135q-27 51 -81 93t-157 44q-102 -2 -156 -44t-81 -93 q-31 -59 -35 -135zM242 885q2 -57 24 -103q18 -39 60.5 -69.5t119.5 -30.5q78 0 118 30.5t61 69.5q23 45 26 103q-4 57 -26 102q-20 39 -60.5 71t-118.5 32t-119.5 -32t-60.5 -71q-22 -45 -24 -102z" />
<glyph horiz-adv-x="894" d="M72 375h69q4 -86 39 -154q29 -57 90.5 -104t175.5 -47q14 0 21 2q31 2 89 18t112 66q25 27 40 55.5t24 56t13.5 51t6.5 37.5v19q0 115 -48.5 177t-105.5 91q-68 35 -152 39h-102q-102 0 -156.5 42t-81.5 93q-31 59 -34 137v203h749v-67h-680v-136h-2q2 -57 25 -102 q18 -39 60 -70.5t120 -31.5h102q104 -6 187 -48q35 -18 68.5 -44.5t60 -66.5t43 -93.5t16.5 -122.5v-8q0 -4 -1 -8.5t-1 -10.5q-4 -86 -33.5 -144.5t-70.5 -97.5q-39 -41 -97.5 -69.5t-144.5 -32.5q-6 -2 -11 -2h-9h-7q-72 0 -125 15.5t-92 42t-65.5 60.5t-44.5 68 q-41 82 -47 187z" />
<glyph horiz-adv-x="894" d="M39 274v68q76 127 161 256t161.5 240.5t136 195.5t84.5 123h69v-815h203v-68h-203v-272h-69v272h-543zM106 342h476v719q-68 -94 -114 -163t-80 -123t-61.5 -98t-58 -92t-68.5 -106.5t-94 -136.5z" />
<glyph d="M-551 1024q0 51 20.5 80t47.5 41q31 14 69 16h135q27 0 41.5 10.5t20.5 22.5q8 14 8 35h68q-2 -39 -17 -70q-12 -27 -40.5 -47t-80.5 -20h-14q16 -27 17 -68q0 -53 -21.5 -81t-48.5 -40q-31 -14 -68 -16q-39 2 -69 16q-27 12 -47.5 40t-20.5 81zM-483 1024q0 -27 10 -40 t24 -19q14 -8 35 -9q18 0 33 9q12 6 23.5 19t11.5 40q0 20 -7 33.5t-18.5 20.5t-21.5 10.5t-17 3.5h-4l-11 -1t-24.5 -7.5t-23.5 -20.5t-10 -39z" />
<glyph d="M-344 887v342h68v-342h-68z" />
<glyph d="M-483 1024v68h137v137h67v-137h138v-68h-138v-137h-67v137h-137z" />
<glyph d="M-481 887v67h16t16 2h5q45 6 73.5 24.5t46.5 43.5q-6 -2 -22 -2q-51 0 -79 20.5t-40 47.5q-14 31 -16 69q2 37 16 68q12 27 40 48t79 21t79.5 -21.5t41.5 -47.5q14 -31 16 -68v-2q0 -6 -5 -45t-28 -86q55 37 95.5 101.5t40.5 168.5h67q0 -121 -44 -197.5t-105.5 -120.5 t-127 -62.5t-110.5 -24.5q-6 -2 -18 -2q-10 -2 -16.5 -2h-10.5h-10zM-414 1159q0 -20 8 -35q6 -12 19.5 -22t40.5 -10t41 10t20 22q8 14 9 35q0 18 -9 33q-6 12 -20 23.5t-41 11.5t-40 -11.5t-20 -23.5q-8 -14 -8 -33z" />
<glyph d="M-655 1022v137q2 37 16 68q12 27 40 48t81 21q39 0 62.5 -13t39.5 -30q16 16 40 29.5t63 13.5q51 0 79.5 -21.5t40.5 -47.5q14 -31 17 -68v-67q0 -12 -2 -27q-2 -23 -17 -59q59 33 106.5 101.5t47.5 188.5h70q0 -125 -44 -201.5t-103.5 -121.5t-122 -62.5t-101.5 -21.5 q-8 0 -12 -2h-27v67q14 0 21 2h4q41 4 63.5 27t32.5 47q12 29 14 62v67q0 18 -8 33q-6 12 -20.5 23.5t-38.5 11.5q-27 0 -40.5 -11.5t-19.5 -23.5q-8 -14 -8 -33h-70v2q0 2 -1 12.5t-8 22.5t-20.5 21.5t-37.5 9.5q-27 0 -40 -11.5t-20 -23.5q-8 -14 -8 -33v-16q27 16 68 16 q51 0 79.5 -21.5t41.5 -47.5q14 -31 16 -68q-2 -39 -16 -68q-12 -27 -41 -47t-80 -20q-53 0 -81 20.5t-40 46.5q-14 29 -16 68zM-586 1022q0 -20 8 -35q6 -12 19.5 -22.5t40.5 -10.5q25 0 39 10.5t20 22.5q8 14 8 35q0 18 -8 35q-6 12 -20 23.5t-39 11.5t-38 -9.5 t-20.5 -21.5t-8.5 -23.5t-1 -13.5v-2z" />
<glyph d="M-481 1366q2 37 16 68q12 25 40 46t79 21t79.5 -21.5t41.5 -45.5q14 -31 16 -68q-2 -39 -16 -70q-12 -27 -41 -47t-80 -20t-79 20.5t-40 46.5q-14 31 -16 70zM-414 1366q0 -20 8 -35q6 -14 19.5 -24.5t40.5 -10.5t41 10.5t20 24.5q9 15 9 35q0 18 -9 33q-6 12 -20 23.5 t-41 11.5t-40 -11.5t-20 -23.5q-8 -14 -8 -33z" />
<glyph d="M-342 1366q2 37 16 68q12 25 40 46t79 21t80 -21.5t41 -45.5q14 -31 16 -68q-2 -39 -16 -70q-12 -27 -41 -47t-80 -20t-78.5 20.5t-40.5 46.5q-14 31 -16 70zM-274 1366q0 -20 8 -35q6 -14 19.5 -24.5t39.5 -10.5q27 0 41 10.5t21 24.5q8 15 8 35q0 18 -8 33 q-6 12 -20.5 23.5t-41.5 11.5t-40 -11.5t-19 -23.5q-8 -14 -8 -33z" />
<glyph horiz-adv-x="894" d="M70 784l2 29t12 70t32.5 90t64.5 90t105.5 68.5t157.5 27.5q92 0 157 -27.5t107 -68.5t64.5 -90t32.5 -90t11 -55l3 -44q16 -272 -51 -462q-29 -82 -79 -153t-129 -116t-190.5 -53t-265.5 37v67q188 -59 309.5 -31.5t193 104.5t102 181.5t41.5 200.5q-41 -59 -113 -103 t-193 -44q-72 0 -125 15t-92 42t-65.5 60.5t-44.5 68.5q-41 82 -47 186zM139 784q4 -86 39 -153q29 -57 90 -104.5t176 -47.5q113 0 175.5 47t91.5 105q35 68 39 153q-4 86 -39 154q-29 57 -91.5 105.5t-175.5 48.5q-115 0 -176 -48.5t-90 -105.5q-35 -68 -39 -154z" />
<glyph horiz-adv-x="894" d="M176 682q39 63 78 117.5t80 108t86 113.5t96 136h70v-1155h-70v1059q-66 -94 -107.5 -152.5t-70.5 -97.5t-49.5 -67.5t-42.5 -61.5h-70z" />
<glyph horiz-adv-x="342" d="M70 887v272h67v-272h-67zM205 887v272h67v-272h-67z" />
<glyph horiz-adv-x="206" d="M70 887v272h67v-272h-67z" />
</font>
</defs>
</svg>
